SplineFontDB: 3.2
FontName: Stolp-Regular
FullName: Stolp
FamilyName: Stolp
Weight: Regular
Copyright: Copyright 2020 Nikita Simmons and Aleksandr Andreev.\nOriginal glyph design by Nikita Simmons. Reencoding for Unicode, OpenType and Graphite feature creation and some tweaking by Aleksandr Andreev.
UComments: "2014-4-19: Created.+AAoA-See README for more information."
Version: 1.0
ItalicAngle: 0
UnderlinePosition: -80
UnderlineWidth: 50
Ascent: 800
Descent: 200
InvalidEm: 0
woffMajor: 1
woffMinor: 1
LayerCount: 2
Layer: 0 0 "Back" 1
Layer: 1 0 "Fore" 0
XUID: [1021 1004 1038049950 1172439]
FSType: 0
OS2Version: 0
OS2_WeightWidthSlopeOnly: 0
OS2_UseTypoMetrics: 0
CreationTime: 1397905996
ModificationTime: 1614436326
PfmFamily: 17
TTFWeight: 400
TTFWidth: 5
LineGap: 50
VLineGap: 0
OS2TypoAscent: 0
OS2TypoAOffset: 1
OS2TypoDescent: 0
OS2TypoDOffset: 1
OS2TypoLinegap: 50
OS2WinAscent: 0
OS2WinAOffset: 1
OS2WinDescent: 0
OS2WinDOffset: 1
HheadAscent: 0
HheadAOffset: 1
HheadDescent: 0
HheadDOffset: 1
OS2Vendor: '    '
Lookup: 4 0 0 "Support for deprecated mappings (ccmp)" { "Support for deprecated mappings (ccmp)-1"  } ['ccmp' ('DFLT' <'dflt' > 'cyrl' <'dflt' > 'latn' <'dflt' > ) ]
Lookup: 4 0 0 "Znamenny Priznakification" { "Znamenny Priznakification-1"  } ['ccmp' ('DFLT' <'dflt' > 'cyrl' <'dflt' > 'latn' <'dflt' > ) ]
Lookup: 4 0 0 "Znamenny Priznakification Round 2" { "Znamenny Priznakification Round 2-1"  } ['ccmp' ('DFLT' <'dflt' > 'cyrl' <'dflt' > 'latn' <'dflt' > ) ]
Lookup: 4 0 0 "Precomposed forms for Znamenny Notation" { "Precomposed forms for Znamenny Notation-1"  } ['ccmp' ('DFLT' <'dflt' > 'cyrl' <'dflt' > 'latn' <'dflt' > ) ]
Lookup: 4 0 0 "Precomposed forms for Znamenny Round 2" { "Precomposed forms for Znamenny Round 2-1"  } ['ccmp' ('DFLT' <'dflt' > 'cyrl' <'dflt' > 'latn' <'dflt' > ) ]
Lookup: 4 0 0 "Precomposed forms for Znamenny Round 3" { "Precomposed forms for Znamenny Round 3-1"  } ['ccmp' ('DFLT' <'dflt' > 'cyrl' <'dflt' > 'latn' <'dflt' > ) ]

StartChar: uni0002
Encoding: 2 2 0
Width: 500
Flags: W
HStem: 0 19<66 435> 748 22<66 435>
VStem: 37 22<34 733> 442 22<34 733>
LayerCount: 2
Fore
SplineSet
37 770 m 5
 464 770 l 5
 464 0 l 5
 37 0 l 5
 37 770 l 5
66 748 m 5
 250 398 l 5
 435 748 l 5
 66 748 l 5
258 383 m 5
 442 34 l 5
 442 733 l 5
 258 383 l 5
435 19 m 5
 250 369 l 5
 66 19 l 5
 435 19 l 5
59 733 m 5
 59 34 l 5
 243 383 l 5
 59 733 l 5
EndSplineSet
Validated: 3073
EndChar

StartChar: uni0001
Encoding: 1 1 2
Width: 500
Flags: W
HStem: 0 19<66 435> 748 22<66 435>
VStem: 37 22<34 733> 442 22<34 733>
LayerCount: 2
Fore
SplineSet
37 770 m 1
 464 770 l 1
 464 0 l 1
 37 0 l 1
 37 770 l 1
66 748 m 1
 250 398 l 1
 435 748 l 1
 66 748 l 1
258 383 m 1
 442 34 l 1
 442 733 l 1
 258 383 l 1
435 19 m 1
 250 369 l 1
 66 19 l 1
 435 19 l 1
59 733 m 1
 59 34 l 1
 243 383 l 1
 59 733 l 1
EndSplineSet
Validated: 3073
EndChar

StartChar: uni0003
Encoding: 3 3 3
Width: 500
Flags: W
HStem: 0 19<66 435> 748 22<66 435>
VStem: 37 22<34 733> 442 22<34 733>
LayerCount: 2
Fore
SplineSet
37 770 m 5
 464 770 l 5
 464 0 l 5
 37 0 l 5
 37 770 l 5
66 748 m 5
 250 398 l 5
 435 748 l 5
 66 748 l 5
258 383 m 5
 442 34 l 5
 442 733 l 5
 258 383 l 5
435 19 m 5
 250 369 l 5
 66 19 l 5
 435 19 l 5
59 733 m 5
 59 34 l 5
 243 383 l 5
 59 733 l 5
EndSplineSet
Validated: 3073
EndChar

StartChar: uni0004
Encoding: 4 4 4
Width: 500
Flags: W
HStem: 0 19<66 435> 748 22<66 435>
VStem: 37 22<34 733> 442 22<34 733>
LayerCount: 2
Fore
SplineSet
37 770 m 5
 464 770 l 5
 464 0 l 5
 37 0 l 5
 37 770 l 5
66 748 m 5
 250 398 l 5
 435 748 l 5
 66 748 l 5
258 383 m 5
 442 34 l 5
 442 733 l 5
 258 383 l 5
435 19 m 5
 250 369 l 5
 66 19 l 5
 435 19 l 5
59 733 m 5
 59 34 l 5
 243 383 l 5
 59 733 l 5
EndSplineSet
Validated: 3073
EndChar

StartChar: uni0005
Encoding: 5 5 5
Width: 500
Flags: W
HStem: 0 19<66 435> 748 22<66 435>
VStem: 37 22<34 733> 442 22<34 733>
LayerCount: 2
Fore
SplineSet
37 770 m 5
 464 770 l 5
 464 0 l 5
 37 0 l 5
 37 770 l 5
66 748 m 5
 250 398 l 5
 435 748 l 5
 66 748 l 5
258 383 m 5
 442 34 l 5
 442 733 l 5
 258 383 l 5
435 19 m 5
 250 369 l 5
 66 19 l 5
 435 19 l 5
59 733 m 5
 59 34 l 5
 243 383 l 5
 59 733 l 5
EndSplineSet
Validated: 3073
EndChar

StartChar: uni0006
Encoding: 6 6 6
Width: 500
Flags: W
HStem: 0 19<66 435> 748 22<66 435>
VStem: 37 22<34 733> 442 22<34 733>
LayerCount: 2
Fore
SplineSet
37 770 m 5
 464 770 l 5
 464 0 l 5
 37 0 l 5
 37 770 l 5
66 748 m 5
 250 398 l 5
 435 748 l 5
 66 748 l 5
258 383 m 5
 442 34 l 5
 442 733 l 5
 258 383 l 5
435 19 m 5
 250 369 l 5
 66 19 l 5
 435 19 l 5
59 733 m 5
 59 34 l 5
 243 383 l 5
 59 733 l 5
EndSplineSet
Validated: 3073
EndChar

StartChar: uni0007
Encoding: 7 7 7
Width: 500
Flags: W
HStem: 0 19<66 435> 748 22<66 435>
VStem: 37 22<34 733> 442 22<34 733>
LayerCount: 2
Fore
SplineSet
37 770 m 5
 464 770 l 5
 464 0 l 5
 37 0 l 5
 37 770 l 5
66 748 m 5
 250 398 l 5
 435 748 l 5
 66 748 l 5
258 383 m 5
 442 34 l 5
 442 733 l 5
 258 383 l 5
435 19 m 5
 250 369 l 5
 66 19 l 5
 435 19 l 5
59 733 m 5
 59 34 l 5
 243 383 l 5
 59 733 l 5
EndSplineSet
Validated: 3073
EndChar

StartChar: uni000B
Encoding: 11 11 11
Width: 500
Flags: W
HStem: 0 19<66 435> 748 22<66 435>
VStem: 37 22<34 733> 442 22<34 733>
LayerCount: 2
Fore
SplineSet
37 770 m 5
 464 770 l 5
 464 0 l 5
 37 0 l 5
 37 770 l 5
66 748 m 5
 250 398 l 5
 435 748 l 5
 66 748 l 5
258 383 m 5
 442 34 l 5
 442 733 l 5
 258 383 l 5
435 19 m 5
 250 369 l 5
 66 19 l 5
 435 19 l 5
59 733 m 5
 59 34 l 5
 243 383 l 5
 59 733 l 5
EndSplineSet
Validated: 3073
EndChar

StartChar: uni000C
Encoding: 12 12 12
Width: 500
Flags: W
HStem: 0 19<66 435> 748 22<66 435>
VStem: 37 22<34 733> 442 22<34 733>
LayerCount: 2
Fore
SplineSet
37 770 m 5
 464 770 l 5
 464 0 l 5
 37 0 l 5
 37 770 l 5
66 748 m 5
 250 398 l 5
 435 748 l 5
 66 748 l 5
258 383 m 5
 442 34 l 5
 442 733 l 5
 258 383 l 5
435 19 m 5
 250 369 l 5
 66 19 l 5
 435 19 l 5
59 733 m 5
 59 34 l 5
 243 383 l 5
 59 733 l 5
EndSplineSet
Validated: 3073
EndChar

StartChar: uni000E
Encoding: 14 14 14
Width: 500
Flags: W
HStem: 0 19<66 435> 748 22<66 435>
VStem: 37 22<34 733> 442 22<34 733>
LayerCount: 2
Fore
SplineSet
37 770 m 5
 464 770 l 5
 464 0 l 5
 37 0 l 5
 37 770 l 5
66 748 m 5
 250 398 l 5
 435 748 l 5
 66 748 l 5
258 383 m 5
 442 34 l 5
 442 733 l 5
 258 383 l 5
435 19 m 5
 250 369 l 5
 66 19 l 5
 435 19 l 5
59 733 m 5
 59 34 l 5
 243 383 l 5
 59 733 l 5
EndSplineSet
Validated: 3073
EndChar

StartChar: uni000F
Encoding: 15 15 15
Width: 500
Flags: W
HStem: 0 19<66 435> 748 22<66 435>
VStem: 37 22<34 733> 442 22<34 733>
LayerCount: 2
Fore
SplineSet
37 770 m 5
 464 770 l 5
 464 0 l 5
 37 0 l 5
 37 770 l 5
66 748 m 5
 250 398 l 5
 435 748 l 5
 66 748 l 5
258 383 m 5
 442 34 l 5
 442 733 l 5
 258 383 l 5
435 19 m 5
 250 369 l 5
 66 19 l 5
 435 19 l 5
59 733 m 5
 59 34 l 5
 243 383 l 5
 59 733 l 5
EndSplineSet
Validated: 3073
EndChar

StartChar: uni0010
Encoding: 16 16 16
Width: 500
Flags: W
HStem: 0 19<66 435> 748 22<66 435>
VStem: 37 22<34 733> 442 22<34 733>
LayerCount: 2
Fore
SplineSet
37 770 m 5
 464 770 l 5
 464 0 l 5
 37 0 l 5
 37 770 l 5
66 748 m 5
 250 398 l 5
 435 748 l 5
 66 748 l 5
258 383 m 5
 442 34 l 5
 442 733 l 5
 258 383 l 5
435 19 m 5
 250 369 l 5
 66 19 l 5
 435 19 l 5
59 733 m 5
 59 34 l 5
 243 383 l 5
 59 733 l 5
EndSplineSet
Validated: 3073
EndChar

StartChar: uni0011
Encoding: 17 17 17
Width: 500
Flags: W
HStem: 0 19<66 435> 748 22<66 435>
VStem: 37 22<34 733> 442 22<34 733>
LayerCount: 2
Fore
SplineSet
37 770 m 5
 464 770 l 5
 464 0 l 5
 37 0 l 5
 37 770 l 5
66 748 m 5
 250 398 l 5
 435 748 l 5
 66 748 l 5
258 383 m 5
 442 34 l 5
 442 733 l 5
 258 383 l 5
435 19 m 5
 250 369 l 5
 66 19 l 5
 435 19 l 5
59 733 m 5
 59 34 l 5
 243 383 l 5
 59 733 l 5
EndSplineSet
Validated: 3073
EndChar

StartChar: uni0012
Encoding: 18 18 18
Width: 500
Flags: W
HStem: 0 19<66 435> 748 22<66 435>
VStem: 37 22<34 733> 442 22<34 733>
LayerCount: 2
Fore
SplineSet
37 770 m 5
 464 770 l 5
 464 0 l 5
 37 0 l 5
 37 770 l 5
66 748 m 5
 250 398 l 5
 435 748 l 5
 66 748 l 5
258 383 m 5
 442 34 l 5
 442 733 l 5
 258 383 l 5
435 19 m 5
 250 369 l 5
 66 19 l 5
 435 19 l 5
59 733 m 5
 59 34 l 5
 243 383 l 5
 59 733 l 5
EndSplineSet
Validated: 3073
EndChar

StartChar: uni0013
Encoding: 19 19 19
Width: 500
Flags: W
HStem: 0 19<66 435> 748 22<66 435>
VStem: 37 22<34 733> 442 22<34 733>
LayerCount: 2
Fore
SplineSet
37 770 m 5
 464 770 l 5
 464 0 l 5
 37 0 l 5
 37 770 l 5
66 748 m 5
 250 398 l 5
 435 748 l 5
 66 748 l 5
258 383 m 5
 442 34 l 5
 442 733 l 5
 258 383 l 5
435 19 m 5
 250 369 l 5
 66 19 l 5
 435 19 l 5
59 733 m 5
 59 34 l 5
 243 383 l 5
 59 733 l 5
EndSplineSet
Validated: 3073
EndChar

StartChar: uni0014
Encoding: 20 20 20
Width: 500
Flags: W
HStem: 0 19<66 435> 748 22<66 435>
VStem: 37 22<34 733> 442 22<34 733>
LayerCount: 2
Fore
SplineSet
37 770 m 5
 464 770 l 5
 464 0 l 5
 37 0 l 5
 37 770 l 5
66 748 m 5
 250 398 l 5
 435 748 l 5
 66 748 l 5
258 383 m 5
 442 34 l 5
 442 733 l 5
 258 383 l 5
435 19 m 5
 250 369 l 5
 66 19 l 5
 435 19 l 5
59 733 m 5
 59 34 l 5
 243 383 l 5
 59 733 l 5
EndSplineSet
Validated: 3073
EndChar

StartChar: uni0015
Encoding: 21 21 21
Width: 500
Flags: W
HStem: 0 19<66 435> 748 22<66 435>
VStem: 37 22<34 733> 442 22<34 733>
LayerCount: 2
Fore
SplineSet
37 770 m 5
 464 770 l 5
 464 0 l 5
 37 0 l 5
 37 770 l 5
66 748 m 5
 250 398 l 5
 435 748 l 5
 66 748 l 5
258 383 m 5
 442 34 l 5
 442 733 l 5
 258 383 l 5
435 19 m 5
 250 369 l 5
 66 19 l 5
 435 19 l 5
59 733 m 5
 59 34 l 5
 243 383 l 5
 59 733 l 5
EndSplineSet
Validated: 3073
EndChar

StartChar: uni0016
Encoding: 22 22 22
Width: 500
Flags: W
HStem: 0 19<66 435> 748 22<66 435>
VStem: 37 22<34 733> 442 22<34 733>
LayerCount: 2
Fore
SplineSet
37 770 m 5
 464 770 l 5
 464 0 l 5
 37 0 l 5
 37 770 l 5
66 748 m 5
 250 398 l 5
 435 748 l 5
 66 748 l 5
258 383 m 5
 442 34 l 5
 442 733 l 5
 258 383 l 5
435 19 m 5
 250 369 l 5
 66 19 l 5
 435 19 l 5
59 733 m 5
 59 34 l 5
 243 383 l 5
 59 733 l 5
EndSplineSet
Validated: 3073
EndChar

StartChar: uni0017
Encoding: 23 23 23
Width: 500
Flags: W
HStem: 0 19<66 435> 748 22<66 435>
VStem: 37 22<34 733> 442 22<34 733>
LayerCount: 2
Fore
SplineSet
37 770 m 5
 464 770 l 5
 464 0 l 5
 37 0 l 5
 37 770 l 5
66 748 m 5
 250 398 l 5
 435 748 l 5
 66 748 l 5
258 383 m 5
 442 34 l 5
 442 733 l 5
 258 383 l 5
435 19 m 5
 250 369 l 5
 66 19 l 5
 435 19 l 5
59 733 m 5
 59 34 l 5
 243 383 l 5
 59 733 l 5
EndSplineSet
Validated: 3073
EndChar

StartChar: uni0018
Encoding: 24 24 24
Width: 500
Flags: W
HStem: 0 19<66 435> 748 22<66 435>
VStem: 37 22<34 733> 442 22<34 733>
LayerCount: 2
Fore
SplineSet
37 770 m 5
 464 770 l 5
 464 0 l 5
 37 0 l 5
 37 770 l 5
66 748 m 5
 250 398 l 5
 435 748 l 5
 66 748 l 5
258 383 m 5
 442 34 l 5
 442 733 l 5
 258 383 l 5
435 19 m 5
 250 369 l 5
 66 19 l 5
 435 19 l 5
59 733 m 5
 59 34 l 5
 243 383 l 5
 59 733 l 5
EndSplineSet
Validated: 3073
EndChar

StartChar: uni0019
Encoding: 25 25 25
Width: 500
Flags: W
HStem: 0 19<66 435> 748 22<66 435>
VStem: 37 22<34 733> 442 22<34 733>
LayerCount: 2
Fore
SplineSet
37 770 m 5
 464 770 l 5
 464 0 l 5
 37 0 l 5
 37 770 l 5
66 748 m 5
 250 398 l 5
 435 748 l 5
 66 748 l 5
258 383 m 5
 442 34 l 5
 442 733 l 5
 258 383 l 5
435 19 m 5
 250 369 l 5
 66 19 l 5
 435 19 l 5
59 733 m 5
 59 34 l 5
 243 383 l 5
 59 733 l 5
EndSplineSet
Validated: 3073
EndChar

StartChar: uni001A
Encoding: 26 26 26
Width: 500
Flags: W
HStem: 0 19<66 435> 748 22<66 435>
VStem: 37 22<34 733> 442 22<34 733>
LayerCount: 2
Fore
SplineSet
37 770 m 5
 464 770 l 5
 464 0 l 5
 37 0 l 5
 37 770 l 5
66 748 m 5
 250 398 l 5
 435 748 l 5
 66 748 l 5
258 383 m 5
 442 34 l 5
 442 733 l 5
 258 383 l 5
435 19 m 5
 250 369 l 5
 66 19 l 5
 435 19 l 5
59 733 m 5
 59 34 l 5
 243 383 l 5
 59 733 l 5
EndSplineSet
Validated: 3073
EndChar

StartChar: uni001B
Encoding: 27 27 27
Width: 500
Flags: W
HStem: 0 19<66 435> 748 22<66 435>
VStem: 37 22<34 733> 442 22<34 733>
LayerCount: 2
Fore
SplineSet
37 770 m 5
 464 770 l 5
 464 0 l 5
 37 0 l 5
 37 770 l 5
66 748 m 5
 250 398 l 5
 435 748 l 5
 66 748 l 5
258 383 m 5
 442 34 l 5
 442 733 l 5
 258 383 l 5
435 19 m 5
 250 369 l 5
 66 19 l 5
 435 19 l 5
59 733 m 5
 59 34 l 5
 243 383 l 5
 59 733 l 5
EndSplineSet
Validated: 3073
EndChar

StartChar: uni001C
Encoding: 28 28 28
Width: 500
Flags: W
HStem: 0 19<66 435> 748 22<66 435>
VStem: 37 22<34 733> 442 22<34 733>
LayerCount: 2
Fore
SplineSet
37 770 m 5
 464 770 l 5
 464 0 l 5
 37 0 l 5
 37 770 l 5
66 748 m 5
 250 398 l 5
 435 748 l 5
 66 748 l 5
258 383 m 5
 442 34 l 5
 442 733 l 5
 258 383 l 5
435 19 m 5
 250 369 l 5
 66 19 l 5
 435 19 l 5
59 733 m 5
 59 34 l 5
 243 383 l 5
 59 733 l 5
EndSplineSet
Validated: 3073
EndChar

StartChar: uni001E
Encoding: 30 30 30
Width: 500
Flags: W
HStem: 0 19<66 435> 748 22<66 435>
VStem: 37 22<34 733> 442 22<34 733>
LayerCount: 2
Fore
SplineSet
37 770 m 5
 464 770 l 5
 464 0 l 5
 37 0 l 5
 37 770 l 5
66 748 m 5
 250 398 l 5
 435 748 l 5
 66 748 l 5
258 383 m 5
 442 34 l 5
 442 733 l 5
 258 383 l 5
435 19 m 5
 250 369 l 5
 66 19 l 5
 435 19 l 5
59 733 m 5
 59 34 l 5
 243 383 l 5
 59 733 l 5
EndSplineSet
Validated: 3073
EndChar

StartChar: uni001F
Encoding: 31 31 31
Width: 500
Flags: W
HStem: 0 19<66 435> 748 22<66 435>
VStem: 37 22<34 733> 442 22<34 733>
LayerCount: 2
Fore
SplineSet
37 770 m 5
 464 770 l 5
 464 0 l 5
 37 0 l 5
 37 770 l 5
66 748 m 5
 250 398 l 5
 435 748 l 5
 66 748 l 5
258 383 m 5
 442 34 l 5
 442 733 l 5
 258 383 l 5
435 19 m 5
 250 369 l 5
 66 19 l 5
 435 19 l 5
59 733 m 5
 59 34 l 5
 243 383 l 5
 59 733 l 5
EndSplineSet
Validated: 3073
EndChar

StartChar: uni25CC
Encoding: 9676 9676 34
Width: 525
GlyphClass: 2
Flags: W
HStem: -11 69<228.932 293.07> 42 69<94.9323 160.249 360.932 425.163> 174 69<34.613 99.3941 422.932 487.163> 319 68<94.2501 160.25> 324 70<361.826 425.163> 376 69<228.508 293.163>
VStem: 33 67<174.596 241.501> 93 68<42.7508 109.864 320.136 385.492> 227 67<-9.86539 56.8636 377.135 443.492> 359 67<42.7508 109.864 324.751 392.764> 421 67<174.751 241.864>
AnchorPoint: "Omet" 454 175 basechar 0
AnchorPoint: "FinalPitch" 573 583 basechar 0
AnchorPoint: "Lomka" -265 150 basechar 0
AnchorPoint: "Tikhaya" 30 150 basechar 0
AnchorPoint: "Borzaya" -20 210 basechar 0
AnchorPoint: "Zevok" 500 160 basechar 0
AnchorPoint: "Kachka" 260 558 basechar 0
AnchorPoint: "Kupnaya" 260 -96 basechar 0
AnchorPoint: "Auxiliary" 125 560 basechar 0
AnchorPoint: "Podvertka" 595 160 basechar 0
AnchorPoint: "Flexion" 395 640 basechar 0
AnchorPoint: "Podtinka" 30 -50 basechar 0
AnchorPoint: "TonalRange" 415 660 basechar 0
AnchorPoint: "Zaderzhka" 487 319 basechar 0
AnchorPoint: "Tochka" 535 345 basechar 0
AnchorPoint: "Podchashie" 260 -30 basechar 0
AnchorPoint: "PitchMark" 60 580 basechar 0
LayerCount: 2
Fore
SplineSet
67 243 m 0x2280
 81 243 84 243 93 233 c 0x2180
 102 223 100 223 100 208 c 0
 100 193 100 194 91 184 c 0
 82 174 82 174 67 174 c 0
 52 174 52 174 42 184 c 0
 32 194 33 194 33 208 c 0
 33 222 34 222 44 232 c 0
 54 242 54 243 67 243 c 0x2280
127 111 m 0x6180
 142 111 142 111 152 101 c 0
 162 91 161 91 161 76 c 0
 161 62 161 62 151 52 c 0
 141 42 141 42 127 42 c 0
 113 42 113 42 103 52 c 0
 93 62 93 62 93 76 c 0
 93 89 94 89 104 100 c 0
 114 111 114 111 127 111 c 0x6180
127 387 m 0x3180
 141 387 141 386 151 376 c 0x2580
 161 366 161 368 161 354 c 0
 161 339 162 339 152 329 c 0
 142 319 142 319 127 319 c 0x3180
 113 319 113 320 103 330 c 0
 93 340 93 340 93 354 c 0
 93 366 93 365 104 376 c 0x2580
 115 387 115 387 127 387 c 0x3180
261 58 m 0xa080
 276 58 276 58 285 48 c 0
 294 38 294 38 294 23 c 0
 294 9 294 10 284 0 c 0
 274 -10 275 -11 261 -11 c 0
 247 -11 247 -10 237 0 c 0
 227 10 227 9 227 23 c 0
 227 36 228 36 238 47 c 0
 248 58 248 58 261 58 c 0xa080
261 445 m 0x2480
 275 445 274 445 284 435 c 0
 294 425 294 425 294 411 c 0
 294 396 294 397 285 387 c 0x3080
 276 377 276 376 261 376 c 0x2480
 247 376 247 377 237 387 c 0x3080
 227 397 227 397 227 411 c 0
 227 423 227 423 238 434 c 0
 249 445 249 445 261 445 c 0x2480
392 111 m 0x60c0
 407 111 406 111 416 101 c 0
 426 91 426 91 426 76 c 0
 426 61 426 62 416 52 c 0
 406 42 407 42 392 42 c 0
 379 42 379 42 369 52 c 0
 359 62 359 62 359 76 c 0
 359 89 360 89 370 100 c 0
 380 111 380 111 392 111 c 0x60c0
392 394 m 0x28c0
 407 394 406 394 416 384 c 0
 426 374 426 374 426 359 c 0
 426 344 426 344 416 334 c 0
 406 324 407 324 392 324 c 0
 379 324 379 324 369 334 c 0
 359 344 359 345 359 359 c 0
 359 371 360 370 370 382 c 0
 380 394 380 394 392 394 c 0x28c0
455 243 m 0
 469 243 468 243 478 233 c 0
 488 223 488 223 488 208 c 0
 488 193 488 194 479 184 c 0
 470 174 470 174 455 174 c 0
 441 174 441 174 431 184 c 0
 421 194 421 194 421 208 c 0x20a0
 421 221 422 221 432 232 c 0
 442 243 442 243 455 243 c 0
EndSplineSet
Validated: 3073
EndChar

StartChar: uni2010
Encoding: 8208 8208 52
Width: 333
Flags: W
HStem: 194 63<39 285>
VStem: 39 246<194 257>
LayerCount: 2
Fore
SplineSet
39 257 m 1
 285 257 l 1
 285 194 l 1
 39 194 l 1
 39 257 l 1
EndSplineSet
Validated: 3073
EndChar

StartChar: uni2011
Encoding: 8209 8209 53
Width: 333
Flags: W
HStem: 194 63<39 285>
VStem: 39 246<194 257>
LayerCount: 2
Fore
SplineSet
39 257 m 1
 285 257 l 1
 285 194 l 1
 39 194 l 1
 39 257 l 1
EndSplineSet
Validated: 3073
EndChar

StartChar: endash
Encoding: 8211 8211 55
Width: 500
Flags: W
HStem: 194 63<0 500>
LayerCount: 2
Fore
SplineSet
0 257 m 1
 500 257 l 1
 500 194 l 1
 0 194 l 1
 0 257 l 1
EndSplineSet
Validated: 3073
EndChar

StartChar: emdash
Encoding: 8212 8212 56
Width: 1000
Flags: W
HStem: 194 63<0 1000>
LayerCount: 2
Fore
SplineSet
0 257 m 1
 1000 257 l 1
 1000 194 l 1
 0 194 l 1
 0 257 l 1
EndSplineSet
Validated: 3073
EndChar

StartChar: bar
Encoding: 124 124 58
Width: 244
VWidth: 999
Flags: W
HStem: 652 20G<114.5 131.5>
VStem: 88 68<-138.703 670.317>
LayerCount: 2
Fore
SplineSet
156 -120 m 2
 156 -133 139 -140 122 -140 c 0
 105 -140 88 -133 88 -120 c 2
 88 650 l 2
 88 664 106 672 123 672 c 0
 140 672 156 665 156 650 c 2
 156 -120 l 2
EndSplineSet
Validated: 3073
AlternateSubs2: "Stylistic Alternatives for Znamenny (salt)-1" uniEA1B
EndChar

StartChar: currency
Encoding: 164 164 59
Width: 399
Flags: W
HStem: 141 40<151.324 249.875> 320 40<151.257 249.875>
VStem: 90 40<202.106 298.687> 270 40<201.008 299.791>
LayerCount: 2
Fore
SplineSet
151 300 m 0
 144 293 138 286 135 277 c 0
 132 268 130 259 130 250 c 0
 130 241 132 233 135 224 c 0
 138 215 143 208 150 202 c 0
 157 195 165 189 174 186 c 0
 183 183 192 181 201 181 c 0
 210 181 217 183 226 186 c 0
 235 189 243 194 250 201 c 0
 256 208 263 215 266 224 c 0
 269 233 270 241 270 250 c 0
 270 259 269 268 266 277 c 0
 263 286 257 293 250 300 c 0
 243 307 235 312 226 315 c 0
 217 318 210 320 201 320 c 0
 192 320 183 318 174 315 c 0
 165 312 158 307 151 300 c 0
307 117 m 1
 263 160 l 1
 253 154 243 149 233 146 c 0
 223 143 212 141 201 141 c 0
 190 141 179 143 168 146 c 0
 157 149 148 155 138 161 c 1
 92 116 l 1
 78 117 l 1
 76 121 74 125 72 130 c 0
 70 135 68 137 66 142 c 1
 110 187 l 1
 104 196 98 207 95 217 c 0
 92 227 90 239 90 250 c 0
 90 261 93 271 96 282 c 0
 99 293 104 303 110 313 c 1
 66 358 l 1
 67 371 l 1
 71 373 74 376 79 378 c 0
 84 380 88 382 93 384 c 1
 138 340 l 1
 148 346 157 352 168 355 c 0
 179 358 190 360 201 360 c 0
 212 360 223 358 233 355 c 0
 243 352 253 347 263 340 c 1
 307 384 l 1
 321 384 l 1
 334 357 l 1
 290 313 l 1
 296 303 302 293 305 282 c 0
 308 271 310 261 310 250 c 0
 310 239 308 227 305 217 c 0
 302 207 296 196 290 186 c 1
 334 143 l 1
 334 129 l 1
 307 117 l 1
EndSplineSet
Validated: 3073
EndChar

StartChar: section
Encoding: 167 167 60
Width: 399
Flags: W
HStem: -13 41<139.927 256.103> 562 37<144.176 237.781>
VStem: 50 54<287.191 385.941> 78 54<467.113 551.951> 82 17<86.8636 118> 272 54<41.2973 128.559> 296 54<202.096 301.9>
LayerCount: 2
Fore
SplineSet
224 220 m 0xe2
 231 216 239 213 246 209 c 2
 267 197 l 1
 276 203 283 209 288 218 c 0
 293 227 296 237 296 247 c 0
 296 260 293 272 288 282 c 0
 283 292 275 302 265 312 c 0
 255 322 241 332 225 342 c 0
 209 352 191 362 169 374 c 0
 163 377 156 381 150 385 c 0
 144 389 139 392 133 396 c 1
 128 394 124 391 120 387 c 0
 116 383 113 379 111 373 c 0
 109 367 108 363 106 357 c 0
 104 351 104 347 104 342 c 0
 104 329 106 318 111 308 c 0
 116 298 123 289 133 280 c 0
 143 271 155 262 170 252 c 0
 185 242 203 232 224 220 c 0xe2
350 273 m 0
 350 261 348 248 346 238 c 0
 344 228 340 219 335 210 c 0
 330 201 326 192 320 186 c 0
 314 180 308 175 302 170 c 1
 309 162 315 153 319 143 c 0
 323 133 326 123 326 110 c 0xc4
 326 90 324 73 318 59 c 0
 312 45 305 35 296 26 c 0
 287 17 277 9 266 4 c 0
 255 -1 244 -5 234 -7 c 0
 224 -9 215 -11 205 -12 c 0
 195 -13 188 -13 182 -13 c 0
 176 -13 168 -12 160 -10 c 0
 152 -8 143 -6 134 -3 c 0
 125 0 116 4 106 8 c 0
 96 12 87 17 78 22 c 0xd2
 76 23 75 27 74 35 c 0
 73 43 73 54 74 64 c 0
 75 74 75 85 77 96 c 0
 79 107 80 116 82 122 c 1
 99 118 l 1
 100 106 103 94 109 84 c 0
 115 74 121 63 131 55 c 0
 141 47 151 40 163 35 c 0
 175 30 189 28 203 28 c 0
 223 28 240 32 253 42 c 0
 266 52 272 66 272 86 c 0
 272 97 268 107 262 115 c 0
 256 123 249 131 239 137 c 0
 229 143 218 149 206 155 c 0
 194 161 182 167 169 174 c 0
 151 184 133 195 119 205 c 0
 105 215 92 226 82 237 c 0xcc
 72 248 64 261 58 275 c 0
 52 289 50 304 50 322 c 0xe0
 50 332 51 342 54 352 c 0
 57 362 61 370 67 379 c 0
 73 388 79 396 86 402 c 0
 93 408 100 415 108 420 c 1
 98 431 92 443 86 456 c 0
 80 469 78 483 78 499 c 0
 78 516 81 531 88 544 c 0
 95 557 105 567 116 575 c 0
 127 583 140 590 155 594 c 0
 170 598 186 599 202 599 c 0
 211 599 220 598 230 596 c 0
 240 594 251 591 261 588 c 0
 271 585 280 581 289 577 c 0
 298 573 304 568 310 563 c 0
 312 561 313 558 311 552 c 0
 309 546 308 540 306 533 c 0
 304 526 300 519 297 513 c 0
 294 507 292 503 290 501 c 1
 274 504 l 1
 260 524 246 538 232 548 c 0
 218 558 204 562 190 562 c 0
 172 562 157 558 147 550 c 0
 137 542 132 530 132 516 c 0xd0
 132 506 134 498 138 490 c 0
 142 482 147 473 155 466 c 0
 163 459 173 451 184 444 c 0
 195 437 209 429 224 420 c 0
 242 410 259 400 274 390 c 0
 289 380 303 369 314 358 c 0
 325 347 335 336 341 322 c 0
 347 308 350 292 350 273 c 0
EndSplineSet
Validated: 3073
EndChar

StartChar: brokenbar
Encoding: 166 166 61
Width: 208
Flags: W
VStem: 75 58<-198 188 294 686>
LayerCount: 2
Fore
SplineSet
133 -186 m 1
 127 -191 121 -195 113 -199 c 0
 105 -203 97 -206 90 -208 c 1
 75 -198 l 1
 75 177 l 1
 83 182 90 186 96 189 c 0
 102 192 109 196 118 198 c 1
 133 188 l 1
 133 -186 l 1
133 306 m 1
 127 301 121 298 113 294 c 0
 105 290 97 288 90 286 c 1
 75 294 l 1
 75 674 l 1
 83 679 90 683 96 686 c 0
 102 689 109 692 118 694 c 1
 133 686 l 1
 133 306 l 1
EndSplineSet
Validated: 3073
EndChar

StartChar: logicalnot
Encoding: 172 172 62
Width: 399
Flags: W
HStem: 210 47<36 325>
VStem: 325 45<86 210>
LayerCount: 2
Fore
SplineSet
370 97 m 1
 364 93 360 89 354 85 c 0
 348 81 342 78 335 76 c 1
 325 86 l 1
 325 210 l 1
 36 210 l 1
 26 221 l 1
 28 227 29 232 31 238 c 0
 33 244 36 251 38 257 c 1
 358 257 l 1
 370 248 l 1
 370 97 l 1
EndSplineSet
Validated: 3073
EndChar

StartChar: uni00AD
Encoding: 173 173 63
Width: 286
Flags: W
HStem: 190 47<36 251>
VStem: 26 236
LayerCount: 2
Fore
SplineSet
262 227 m 1
 260 221 258 214 256 207 c 0
 254 200 251 195 249 190 c 1
 36 190 l 1
 26 199 l 1
 28 205 29 212 31 218 c 0
 33 224 36 231 38 237 c 1
 251 237 l 1
 262 227 l 1
EndSplineSet
Validated: 3073
EndChar

StartChar: macron
Encoding: 175 175 64
Width: 420
Flags: W
HStem: 489 54<78 342>
VStem: 70 280
LayerCount: 2
Fore
SplineSet
350 533 m 1
 349 530 350 526 348 522 c 0
 346 518 345 514 343 510 c 0
 341 506 340 502 338 498 c 0
 336 494 335 491 334 489 c 1
 78 489 l 1
 70 499 l 1
 71 502 70 506 72 510 c 0
 74 514 75 518 77 522 c 0
 79 526 80 529 82 533 c 0
 84 537 84 541 86 543 c 1
 342 543 l 1
 350 533 l 1
EndSplineSet
Validated: 3073
EndChar

StartChar: paragraph
Encoding: 182 182 65
Width: 472
Flags: W
HStem: -104 18<185 222.608 403.624 439> 219 35<158.148 246> 502 35<140.922 328.743> 506 18<402.391 439>
VStem: 20 70<313.392 455.691> 246 50<-73.9219 222 254 491> 329 49<-73.9041 488.334>
LayerCount: 2
Fore
SplineSet
312 -74 m 1xce
 318 -72 329 -67 329 -60 c 2
 329 482 l 1
 323 484 319 485 313 487 c 2
 296 491 l 1
 296 -60 l 2
 296 -63 298 -67 302 -69 c 2
 312 -74 l 1xce
246 254 m 1
 246 499 l 1
 229 501 214 502 203 502 c 0xee
 149 502 114 472 98 434 c 0
 92 420 90 405 90 390 c 0
 90 330 123 287 165 266 c 0
 183 257 202 254 227 254 c 2
 246 254 l 1
211 537 m 8
 255 537 365 527 409 524 c 1
 439 524 l 1
 439 506 l 1xde
 420 502 405 499 394 494 c 0
 383 489 378 485 378 481 c 2
 378 -60 l 2
 378 -64 384 -68 394 -73 c 0
 404 -78 419 -82 439 -86 c 1
 439 -104 l 1
 185 -104 l 1
 185 -86 l 1
 204 -82 220 -79 230 -74 c 0
 240 -69 246 -64 246 -60 c 2
 246 222 l 1
 235 220 224 219 210 219 c 0
 126 219 64 251 35 307 c 0
 25 326 20 350 20 376 c 0
 20 456 73 504 134 525 c 0
 157 533 183 537 211 537 c 8
EndSplineSet
Validated: 3073
EndChar

StartChar: degree
Encoding: 176 176 66
Width: 304
Flags: W
HStem: 316 38<115.203 187.699> 475 39<117.503 190.771>
VStem: 58 46<360.892 463.108> 202 44<365.834 466.852>
LayerCount: 2
Fore
SplineSet
202 414 m 4
 202 422 200 430 198 437 c 4
 196 444 194 451 190 457 c 4
 186 463 181 467 175 470 c 4
 169 473 164 475 158 475 c 4
 151 475 144 473 138 471 c 4
 132 469 125 465 120 459 c 4
 115 453 111 447 108 440 c 4
 105 433 104 424 104 415 c 4
 104 407 105 400 107 393 c 4
 109 386 111 379 115 373 c 4
 119 367 123 362 129 359 c 4
 135 356 141 354 148 354 c 4
 154 354 161 356 167 358 c 4
 173 360 180 365 185 370 c 4
 190 375 194 381 197 388 c 4
 200 395 202 404 202 414 c 4
246 434 m 4
 246 417 243 401 237 387 c 4
 231 373 221 360 211 350 c 4
 201 340 188 331 175 325 c 4
 162 319 150 316 137 316 c 4
 126 316 116 318 106 322 c 4
 96 326 87 332 80 339 c 4
 73 346 68 354 64 364 c 4
 60 374 58 383 58 394 c 4
 58 411 62 428 68 442 c 4
 74 456 84 470 94 480 c 4
 104 490 116 499 129 505 c 4
 142 511 155 514 168 514 c 4
 179 514 188 511 198 507 c 4
 208 503 217 497 224 490 c 4
 231 483 237 475 241 465 c 4
 245 455 246 444 246 434 c 4
EndSplineSet
Validated: 3073
EndChar

StartChar: u1CF00.ss04
Encoding: 60928 60928 67
Width: 0
VWidth: 999
GlyphClass: 4
Flags: W
HStem: 500 52<260.149 286.37> 539 13<138.007 164 198.086 261>
VStem: 155 36<399.023 537.69> 260 27<504.22 538.717>
DStem2: 8 203 17 191 0.733297 0.679909<-5.4823 111.551>
AnchorPoint: "Stacking" 226 563 basemark 0
AnchorPoint: "Stacking" -14 458 mark 0
AnchorPoint: "PitchMark" 296 543 mark 0
LayerCount: 2
Fore
SplineSet
155 458 m 4x70
 155 485 159 521 164 539 c 5
 145 539 l 6
 139 539 138 542 138 546 c 4
 138 550 140 551 147 552 c 5x70
 193 552 240 552 286 552 c 4
 294 552 295 548 295 544 c 4
 294 538 288 532 287 524 c 4
 284 510 291 500 284 500 c 4xb0
 277 500 263 510 260 519 c 4
 259 525 259 533 261 539 c 5
 240 539 220 539 199 539 c 5
 194 511 191 486 191 456 c 4
 191 438 194 425 194 405 c 4
 194 399 182 399 176 399 c 4
 170 399 158 399 158 405 c 4
 158 421 155 439 155 458 c 4x70
206 357 m 4
 209 357 211 353 211 350 c 4
 211 348 210 346 206 343 c 4
 186 332 151 311 118 286 c 5
 130 270 142 249 144 244 c 4
 148 237 137 235 132 233 c 5
 127 233 122 232 118 239 c 4
 113 247 107 258 98 270 c 5
 64 241 34 208 17 191 c 4
 15 189 14 189 12 189 c 4
 9 189 6 192 6 197 c 4
 6 199 6 201 8 203 c 4
 22 217 54 252 89 282 c 5
 78 295 66 307 60 313 c 4
 49 323 59 324 63 324 c 4
 71 325 79 326 84 322 c 4
 91 317 100 308 109 297 c 5
 142 322 179 345 195 353 c 4
 199 355 203 357 206 357 c 4
EndSplineSet
Colour: ffc259
EndChar

StartChar: u1CF01.ss04
Encoding: 60929 60929 68
Width: 0
VWidth: 999
GlyphClass: 4
Flags: W
HStem: 466 14<185 259>
VStem: 148 37<397.04 466 480 538.247> 259 36<397.03 466 480 539.01>
DStem2: 11 203 20 191 0.733297 0.679909<-5.4823 111.551>
AnchorPoint: "Stacking" 234 562 basemark 0
AnchorPoint: "Stacking" -6 457 mark 0
AnchorPoint: "PitchMark" 304 542 mark 0
LayerCount: 2
Fore
SplineSet
304 540 m 4
 304 519 295 490 295 460 c 4
 295 439 298 424 298 403 c 4
 298 397 288 397 281 397 c 4
 273 397 262 397 262 403 c 4
 260 419 258 436 258 454 c 4
 258 458 258 462 259 466 c 5
 185 466 l 5
 185 463 185 460 185 457 c 4
 185 437 188 424 188 403 c 4
 188 397 178 397 171 397 c 4
 163 397 152 397 152 403 c 4
 150 419 148 438 148 457 c 4
 148 487 153 518 159 541 c 4
 160 546 167 547 172 547 c 4
 174 547 176 547 177 547 c 4
 182 547 196 546 194 539 c 4
 191 523 187 503 185 480 c 5
 259 480 l 5
 262 502 265 523 269 541 c 4
 270 546 277 547 282 547 c 4
 284 547 286 547 287 547 c 4
 292 547 304 546 304 540 c 4
209 357 m 4
 212 357 214 353 214 350 c 4
 214 348 213 346 209 343 c 4
 189 332 154 311 121 286 c 5
 133 270 145 249 147 244 c 4
 151 237 140 235 135 233 c 5
 130 233 125 232 121 239 c 4
 116 247 110 258 101 270 c 5
 67 241 37 208 20 191 c 4
 18 189 17 189 15 189 c 4
 12 189 9 192 9 197 c 4
 9 199 9 201 11 203 c 4
 25 217 57 252 92 282 c 5
 81 295 69 307 63 313 c 4
 52 323 62 324 66 324 c 4
 74 325 82 326 87 322 c 4
 94 317 103 308 112 297 c 5
 145 322 182 345 198 353 c 4
 202 355 206 357 209 357 c 4
EndSplineSet
Colour: ffc259
EndChar

StartChar: u1CF02.ss04
Encoding: 60930 60930 69
Width: 0
VWidth: 999
GlyphClass: 4
Flags: W
HStem: 399 13<16.0088 40 76.3398 154 189.584 202>
VStem: 37 38<412 543.894> 48 35<511 546> 152 35<412 543.734> 162 34<512 546>
AnchorPoint: "Stacking" 134 561 basemark 0
AnchorPoint: "Stacking" -106 456 mark 0
AnchorPoint: "PitchMark" 234 541 mark 0
LayerCount: 2
Fore
SplineSet
83 544 m 4xa0
 77 519 75 492 75 464 c 4
 75 447 75 429 77 412 c 5
 154 412 l 5
 153 425 152 440 152 455 c 4xd0
 152 488 155 521 162 546 c 4
 164 553 172 552 179 552 c 4
 187 552 198 551 196 544 c 4x88
 190 515 187 493 187 461 c 4
 187 443 189 429 190 412 c 5
 225 412 l 6
 230 412 234 409 234 406 c 4
 234 405 234 405 233 404 c 4
 222 394 195 374 179 348 c 4
 167 330 158 304 157 296 c 4
 157 291 151 290 145 290 c 4
 143 290 140 290 137 290 c 4
 129 290 120 291 123 298 c 4
 125 304 141 334 156 354 c 5
 172 373 195 392 202 399 c 5
 23 399 l 6
 17 399 16 402 16 406 c 4
 16 410 19 412 25 412 c 6
 40 412 l 5
 39 427 37 444 37 462 c 4xd0
 37 491 42 524 48 546 c 4
 50 553 58 553 66 553 c 5
 73 552 84 551 83 544 c 4xa0
EndSplineSet
Colour: ffc259
EndChar

StartChar: u1CF03.ss04
Encoding: 60931 60931 70
Width: 0
VWidth: 999
GlyphClass: 4
Flags: W
HStem: 500 52<140.149 166.37> 539 13<18.007 44 78.0862 141>
VStem: 35 36<399.023 537.69> 140 27<504.22 538.717>
AnchorPoint: "Stacking" 105 563 basemark 0
AnchorPoint: "Stacking" -135 458 mark 0
AnchorPoint: "PitchMark" 175 543 mark 0
LayerCount: 2
Fore
SplineSet
35 458 m 4x70
 35 485 39 521 44 539 c 5
 25 539 l 6
 19 539 18 542 18 546 c 4
 18 550 20 551 27 552 c 5x70
 73 552 120 552 166 552 c 4
 174 552 175 548 175 544 c 4
 174 538 168 532 167 524 c 4
 164 510 171 500 164 500 c 4xb0
 157 500 143 510 140 519 c 4
 139 525 139 533 141 539 c 5
 120 539 100 539 79 539 c 5
 74 511 71 486 71 456 c 4
 71 438 74 425 74 405 c 4
 74 399 62 399 56 399 c 4
 50 399 38 399 38 405 c 4
 38 421 35 439 35 458 c 4x70
EndSplineSet
Colour: ffc259
EndChar

StartChar: u1CF04.ss04
Encoding: 60932 60932 71
Width: 0
VWidth: 999
GlyphClass: 4
Flags: W
HStem: 470 14<50 124>
VStem: 13 37<401.04 470 484 542.247> 124 36<401.03 470 484 543.01>
AnchorPoint: "Stacking" 99 565 basemark 0
AnchorPoint: "Stacking" -141 460 mark 0
AnchorPoint: "PitchMark" 169 545 mark 0
LayerCount: 2
Fore
SplineSet
169 544 m 4
 169 523 160 494 160 464 c 4
 160 443 163 428 163 407 c 4
 163 401 153 401 146 401 c 4
 138 401 127 401 127 407 c 4
 125 423 123 440 123 458 c 4
 123 462 123 466 124 470 c 5
 50 470 l 5
 50 467 50 464 50 461 c 4
 50 441 53 428 53 407 c 4
 53 401 43 401 36 401 c 4
 28 401 17 401 17 407 c 4
 15 423 13 442 13 461 c 4
 13 491 18 522 24 545 c 4
 25 550 32 551 37 551 c 4
 39 551 41 551 42 551 c 4
 47 551 61 550 59 543 c 4
 56 527 52 507 50 484 c 5
 124 484 l 5
 127 506 130 527 134 545 c 4
 135 550 142 551 147 551 c 4
 149 551 151 551 152 551 c 4
 157 551 169 550 169 544 c 4
EndSplineSet
Colour: ffc259
EndChar

StartChar: u1CF05.ss04
Encoding: 60933 60933 72
Width: 0
VWidth: 999
GlyphClass: 4
Flags: W
HStem: 438 68<13.2041 72.9225>
VStem: 11 65<440.608 504.084>
AnchorPoint: "Stacking" 45 553 basemark 0
AnchorPoint: "Stacking" -130 448 mark 0
AnchorPoint: "PitchMark" 160 533 mark 0
LayerCount: 2
Fore
SplineSet
42 438 m 4
 23 438 11 455 11 473 c 4
 11 492 25 506 45 506 c 4
 62 506 76 492 76 474 c 4
 76 455 61 438 42 438 c 4
EndSplineSet
Colour: ffc259
EndChar

StartChar: u1CF06.ss04
Encoding: 60934 60934 73
Width: 0
VWidth: 999
GlyphClass: 4
Flags: W
HStem: 400 152
VStem: 110 39<457.814 524> 231 38<431.149 520>
AnchorPoint: "Stacking" -69 463 mark 0
AnchorPoint: "Stacking" 191 568 basemark 0
AnchorPoint: "PitchMark" 291 548 mark 0
LayerCount: 2
Fore
SplineSet
269 544 m 4
 269 540 269 536 269 531 c 4
 269 491 291 437 291 406 c 4
 291 401 280 400 272 400 c 4
 264 400 256 401 255 407 c 4
 249 427 245 438 241 459 c 5
 235 484 231 500 231 520 c 5
 220 510 204 487 188 464 c 4
 173 443 155 413 151 408 c 5
 149 403 136 401 135 407 c 4
 129 427 125 438 121 459 c 5
 115 484 110 505 110 524 c 5
 98 512 82 488 68 469 c 4
 63 463 35 413 31 408 c 5
 29 401 16 401 16 409 c 4
 16 425 56 484 64 495 c 4
 82 519 103 540 116 548 c 4
 120 551 128 552 133 552 c 4
 139 552 150 551 149 544 c 4
 149 542 149 539 149 537 c 4
 149 515 154 474 160 457 c 5
 182 495 210 532 236 548 c 4
 240 551 248 552 253 552 c 4
 259 552 270 551 269 544 c 4
EndSplineSet
Colour: ffc259
EndChar

StartChar: u1CF07.ss04
Encoding: 60935 60935 74
Width: 0
VWidth: 999
GlyphClass: 4
Flags: W
HStem: 539 13<17.0536 43 76.8826 153 186.883 215.953>
VStem: 33 38<399.03 537.827> 143 38<399.03 537.827>
AnchorPoint: "Stacking" 116 563 basemark 0
AnchorPoint: "Stacking" -124 458 mark 0
AnchorPoint: "PitchMark" 216 543 mark 0
LayerCount: 2
Fore
SplineSet
143 459 m 4
 143 487 147 518 153 539 c 5
 78 539 l 5
 73 514 71 488 71 461 c 4
 71 442 73 423 73 405 c 4
 73 399 63 399 56 399 c 4
 48 399 37 399 37 405 c 4
 35 421 33 440 33 459 c 4
 33 487 37 518 43 539 c 5
 24 539 l 6
 19 539 17 541 17 544 c 4
 17 549 18 552 26 552 c 4
 41 552 61 552 83 552 c 4
 127 552 178 552 207 552 c 4
 215 552 216 549 216 544 c 5
 215 540 214 539 207 539 c 6
 188 539 l 5
 183 514 181 488 181 461 c 4
 181 442 182 423 183 405 c 4
 183 399 173 399 166 399 c 4
 158 399 147 399 147 405 c 4
 145 421 143 440 143 459 c 4
EndSplineSet
Colour: ffc259
EndChar

StartChar: u1CF08.ss04
Encoding: 60936 60936 75
Width: 0
VWidth: 999
GlyphClass: 4
Flags: W
HStem: 398 13<13.0088 42 78.627 152 188.581 211.924> 539 13<36 159 192.883 225.953>
VStem: 39 38<411 537.941> 149 38<411 537.941>
AnchorPoint: "Stacking" 126 560 basemark 0
AnchorPoint: "Stacking" -108 454 mark 0
AnchorPoint: "PitchMark" 226 540 mark 0
LayerCount: 2
Fore
SplineSet
149 460 m 4
 149 488 153 518 159 539 c 5
 84 539 l 5
 79 515 77 489 77 462 c 4
 77 445 78 428 79 411 c 5
 152 411 l 5
 151 425 149 443 149 460 c 4
39 460 m 4
 39 488 43 518 49 539 c 5
 34 539 l 6
 28 539 26 542 27 546 c 4
 27 550 29 552 36 552 c 4
 50 552 70 552 92 552 c 4
 137 552 188 552 217 552 c 4
 225 552 226 549 226 544 c 5
 225 540 224 539 217 539 c 6
 194 539 l 5
 189 515 187 489 187 462 c 4
 187 445 188 427 189 410 c 5
 204 410 l 6
 211 410 212 407 212 403 c 4
 212 399 211 398 203 398 c 6
 20 398 l 6
 14 398 13 401 13 405 c 4
 13 409 16 410 22 410 c 4
 28 411 35 411 42 411 c 5
 41 426 39 443 39 460 c 4
EndSplineSet
Colour: ffc259
EndChar

StartChar: u1CF09.ss04
Encoding: 60937 60937 76
Width: 0
VWidth: 999
GlyphClass: 4
Flags: W
HStem: 585 48<163.574 205.426>
VStem: 111 39<457.814 524> 163 43<585.091 632.909> 232 38<431.149 520>
AnchorPoint: "Stacking" 192 568 basemark 0
AnchorPoint: "Stacking" -68 463 mark 0
AnchorPoint: "PitchMark" 292 548 mark 0
LayerCount: 2
Fore
SplineSet
183 585 m 4
 170 585 163 597 163 606 c 4
 163 619 173 633 186 633 c 4
 199 633 206 621 206 612 c 4
 206 599 196 585 183 585 c 4
270 544 m 4
 270 540 270 536 270 531 c 4
 270 491 292 437 292 406 c 4
 292 401 281 400 273 400 c 4
 265 400 257 401 256 407 c 4
 250 427 246 438 242 459 c 5
 236 484 232 500 232 520 c 5
 221 510 205 487 189 464 c 4
 174 443 156 413 152 408 c 5
 150 403 137 401 136 407 c 4
 130 427 126 438 122 459 c 5
 116 484 111 505 111 524 c 5
 99 512 83 488 69 469 c 4
 64 463 36 413 32 408 c 5
 30 401 17 401 17 409 c 4
 17 425 57 484 65 495 c 4
 83 519 104 540 117 548 c 4
 121 551 129 552 134 552 c 4
 140 552 151 551 150 544 c 4
 150 542 150 539 150 537 c 4
 150 515 155 474 161 457 c 5
 183 495 211 532 237 548 c 4
 241 551 249 552 254 552 c 4
 260 552 271 551 270 544 c 4
EndSplineSet
Colour: ffc259
EndChar

StartChar: u1CF0A.ss04
Encoding: 60938 60938 77
Width: 0
VWidth: 999
GlyphClass: 4
Flags: W
HStem: 539 13<16.0198 42 75.8652 152 185.865 214.999> 595 48<97.571 139.631>
VStem: 33 36<399.05 537.737> 97 43<595.084 642.99> 143 36<399.05 537.737>
AnchorPoint: "Stacking" 115 563 basemark 0
AnchorPoint: "Stacking" -125 458 mark 0
AnchorPoint: "PitchMark" 215 543 mark 0
LayerCount: 2
Fore
SplineSet
33 458 m 4
 33 487 37 517 42 539 c 5
 24 539 l 6
 18 539 16 542 16 546 c 4
 16 550 19 552 25 552 c 4
 40 552 60 552 82 552 c 4
 126 552 178 552 207 552 c 4
 213 552 215 550 215 546 c 4
 215 541 215 539 206 539 c 6
 187 539 l 5
 182 512 179 488 179 457 c 4
 179 439 181 425 182 405 c 4
 183 399 173 399 166 399 c 4
 158 399 147 399 146 405 c 4
 145 421 143 439 143 458 c 4
 143 487 147 517 152 539 c 5
 77 539 l 5
 72 512 69 488 69 457 c 4
 69 439 71 425 72 405 c 4
 73 399 63 399 56 399 c 4
 48 399 37 399 36 405 c 4
 35 421 33 439 33 458 c 4
117 595 m 4
 105 595 97 606 97 616 c 4
 97 629 107 643 119 643 c 4
 132 643 140 631 140 621 c 4
 140 608 130 595 117 595 c 4
EndSplineSet
Colour: ffc259
EndChar

StartChar: u1CF0B.ss04
Encoding: 60939 60939 78
Width: 0
GlyphClass: 4
Flags: W
HStem: 398 13<16.0199 46 81.5809 156 191.581 215.906> 539 13<30.0198 52 85.8826 162 195.883 228.999> 595 48<107.571 149.631>
VStem: 44 36<411 537.848> 107 43<595.084 642.99> 154 36<411.634 537.848>
AnchorPoint: "Stacking" 129 560 basemark 0
AnchorPoint: "Stacking" -111 455 mark 0
AnchorPoint: "PitchMark" 229 540 mark 0
LayerCount: 2
Fore
SplineSet
156 411 m 5
 155 424 154 439 154 455 c 4
 154 485 157 516 162 539 c 5
 87 539 l 5
 82 513 80 484 80 455 c 4
 80 440 81 426 82 411 c 5
 156 411 l 5
46 411 m 5
 45 425 44 440 44 456 c 4
 44 485 47 516 52 539 c 5
 38 539 l 6
 32 539 30 542 30 546 c 4
 30 550 33 552 39 552 c 4
 54 552 74 552 96 552 c 4
 140 552 192 552 221 552 c 4
 227 552 229 550 229 546 c 4
 229 541 229 539 220 539 c 6
 197 539 l 5
 192 513 190 484 190 455 c 4
 190 440 191 425 192 411 c 5
 207 410 l 6
 215 410 216 407 216 403 c 4
 215 399 214 398 207 398 c 6
 24 398 l 6
 18 398 16 401 16 405 c 4
 16 409 19 410 26 410 c 5
 32 411 38 411 46 411 c 5
127 595 m 4
 115 595 107 606 107 616 c 4
 107 629 117 643 129 643 c 4
 142 643 150 631 150 621 c 4
 150 608 140 595 127 595 c 4
EndSplineSet
Colour: ffc259
EndChar

StartChar: u1CF19.ss04
Encoding: 60945 60945 79
Width: 0
VWidth: 999
GlyphClass: 4
Flags: W
VStem: 220 39<458.814 525> 341 38<432.149 521>
DStem2: 14 206 23 194 0.733297 0.679909<-5.4823 111.551>
AnchorPoint: "PitchMark" 401 549 mark 0
LayerCount: 2
Fore
SplineSet
379 545 m 4
 379 541 379 537 379 532 c 4
 379 492 401 438 401 407 c 4
 401 402 390 401 382 401 c 4
 374 401 366 402 365 408 c 4
 359 428 355 439 351 460 c 5
 345 485 341 501 341 521 c 5
 330 511 314 488 298 465 c 4
 283 444 265 414 261 409 c 5
 259 404 246 402 245 408 c 4
 239 428 235 439 231 460 c 5
 225 485 220 506 220 525 c 5
 208 513 192 489 178 470 c 4
 173 464 145 414 141 409 c 5
 139 402 126 402 126 410 c 4
 126 426 166 485 174 496 c 4
 192 520 213 541 226 549 c 4
 230 552 238 553 243 553 c 4
 249 553 260 552 259 545 c 4
 259 543 259 540 259 538 c 4
 259 516 264 475 270 458 c 5
 292 496 320 533 346 549 c 4
 350 552 358 553 363 553 c 4
 369 553 380 552 379 545 c 4
212 360 m 4
 215 360 217 356 217 353 c 4
 217 351 216 349 212 346 c 4
 192 335 157 314 124 289 c 5
 136 273 148 252 150 247 c 4
 154 240 143 238 138 236 c 5
 133 236 128 235 124 242 c 4
 119 250 113 261 104 273 c 5
 70 244 40 211 23 194 c 4
 21 192 20 192 18 192 c 4
 15 192 12 195 12 200 c 4
 12 202 12 204 14 206 c 4
 28 220 60 255 95 285 c 5
 84 298 72 310 66 316 c 4
 55 326 65 327 69 327 c 4
 77 328 85 329 90 325 c 4
 97 320 106 311 115 300 c 5
 148 325 185 348 201 356 c 4
 205 358 209 360 212 360 c 4
EndSplineSet
Colour: ffc259
EndChar

StartChar: u1CF1B.ss04
Encoding: 60947 60947 80
Width: 0
VWidth: 999
GlyphClass: 4
Flags: W
HStem: 539 13<119.054 145 178.883 255 288.883 317.953>
VStem: 135 38<399.03 537.827> 245 38<399.03 537.827>
DStem2: 13 200 22 188 0.733297 0.679909<-5.4823 111.551>
AnchorPoint: "PitchMark" 320 543 mark 0
LayerCount: 2
Fore
SplineSet
245 459 m 4
 245 487 249 518 255 539 c 5
 180 539 l 5
 175 514 173 488 173 461 c 4
 173 442 175 423 175 405 c 4
 175 399 165 399 158 399 c 4
 150 399 139 399 139 405 c 4
 137 421 135 440 135 459 c 4
 135 487 139 518 145 539 c 5
 126 539 l 6
 121 539 119 541 119 544 c 4
 119 549 120 552 128 552 c 4
 143 552 163 552 185 552 c 4
 229 552 280 552 309 552 c 4
 317 552 318 549 318 544 c 5
 317 540 316 539 309 539 c 6
 290 539 l 5
 285 514 283 488 283 461 c 4
 283 442 284 423 285 405 c 4
 285 399 275 399 268 399 c 4
 260 399 249 399 249 405 c 4
 247 421 245 440 245 459 c 4
211 354 m 4
 214 354 216 350 216 347 c 4
 216 345 215 343 211 340 c 4
 191 329 156 308 123 283 c 5
 135 267 147 246 149 241 c 4
 153 234 142 232 137 230 c 5
 132 230 127 229 123 236 c 4
 118 244 112 255 103 267 c 5
 69 238 39 205 22 188 c 4
 20 186 19 186 17 186 c 4
 14 186 11 189 11 194 c 4
 11 196 11 198 13 200 c 4
 27 214 59 249 94 279 c 5
 83 292 71 304 65 310 c 4
 54 320 64 321 68 321 c 4
 76 322 84 323 89 319 c 4
 96 314 105 305 114 294 c 5
 147 319 184 342 200 350 c 4
 204 352 208 354 211 354 c 4
EndSplineSet
Colour: ffc259
EndChar

StartChar: u1CF1D.ss04
Encoding: 60949 60949 81
Width: 0
VWidth: 999
GlyphClass: 4
Flags: W
HStem: 398 13<132.009 161 197.627 271 307.581 330.924> 539 13<155 278 311.883 344.953>
VStem: 158 38<411 537.941> 268 38<411 537.941>
DStem2: 10 192 19 180 0.733297 0.679909<-5.4823 111.551>
AnchorPoint: "PitchMark" 345 540 mark 0
LayerCount: 2
Fore
SplineSet
268 460 m 4
 268 488 272 518 278 539 c 5
 203 539 l 5
 198 515 196 489 196 462 c 4
 196 445 197 428 198 411 c 5
 271 411 l 5
 270 425 268 443 268 460 c 4
158 460 m 4
 158 488 162 518 168 539 c 5
 153 539 l 6
 147 539 145 542 146 546 c 4
 146 550 148 552 155 552 c 4
 169 552 189 552 211 552 c 4
 256 552 307 552 336 552 c 4
 344 552 345 549 345 544 c 5
 344 540 343 539 336 539 c 6
 313 539 l 5
 308 515 306 489 306 462 c 4
 306 445 307 427 308 410 c 5
 323 410 l 6
 330 410 331 407 331 403 c 4
 331 399 330 398 322 398 c 6
 139 398 l 6
 133 398 132 401 132 405 c 4
 132 409 135 410 141 410 c 4
 147 411 154 411 161 411 c 5
 160 426 158 443 158 460 c 4
208 346 m 4
 211 346 213 342 213 339 c 4
 213 337 212 335 208 332 c 4
 188 321 153 300 120 275 c 5
 132 259 144 238 146 233 c 4
 150 226 139 224 134 222 c 5
 129 222 124 221 120 228 c 4
 115 236 109 247 100 259 c 5
 66 230 36 197 19 180 c 4
 17 178 16 178 14 178 c 4
 11 178 8 181 8 186 c 4
 8 188 8 190 10 192 c 4
 24 206 56 241 91 271 c 5
 80 284 68 296 62 302 c 4
 51 312 61 313 65 313 c 4
 73 314 81 315 86 311 c 4
 93 306 102 297 111 286 c 5
 144 311 181 334 197 342 c 4
 201 344 205 346 208 346 c 4
EndSplineSet
Colour: ffc259
EndChar

StartChar: uniEE50
Encoding: 61008 61008 82
Width: 1
GlyphClass: 4
Flags: HW
HStem: 470 196
VStem: -421 96
AnchorPoint: "TonalRange" -272.554 581 mark 0
LayerCount: 2
Fore
SplineSet
-303.909179688 596 m 1
 -288.795898438 625 -254.505859375 655 -224.271484375 662 c 2
 -207.56640625 666 l 1
 -239.430664062 542 l 1
 -275.48828125 536 -316.483398438 502 -338.125976562 470 c 1
 -303.909179688 596 l 1
EndSplineSet
Colour: ffc259
EndChar

StartChar: uniEE51
Encoding: 61009 61009 83
Width: 1
GlyphClass: 4
Flags: HW
HStem: 468 315 644 20G<-341 -326.613>
VStem: -421 226
AnchorPoint: "TonalRange" -121.924 698 mark 0
LayerCount: 2
Fore
SplineSet
-304.084960938 595 m 1xa0
 -288.971679688 624 -254.682617188 654 -224.448242188 661 c 1
 -207.918945312 664 l 1x60
 -239.783203125 540 l 1
 -275.841796875 534 -316.836914062 500 -338.478515625 468 c 1
 -304.084960938 595 l 1xa0
-153.102539062 714 m 1
 -137.989257812 743 -103.522460938 774 -73.6416015625 779 c 1
 -56.935546875 783 l 1xa0
 -88.80078125 659 l 1
 -124.858398438 653 -165.853515625 619 -187.49609375 587 c 1
 -153.102539062 714 l 1
EndSplineSet
Colour: ffc259
EndChar

StartChar: uniEE52
Encoding: 61010 61010 84
Width: 1
GlyphClass: 4
Flags: HW
HStem: 647 20G<-339 -324.613>
AnchorPoint: "TonalRange" 8.06152 800 mark 0
LayerCount: 2
Fore
SplineSet
0.4091796875 836 m 5
 15.5224609375 865 49.9892578125 896 79.87109375 901 c 5
 96.576171875 905 l 5
 64.7109375 781 l 5
 28.6533203125 775 -12.341796875 741 -33.984375 709 c 5
 0.4091796875 836 l 5
-301.732421875 597 m 5
 -286.619140625 626 -252.329101562 656 -222.094726562 663 c 6
 -205.389648438 667 l 5
 -237.254882812 543 l 5
 -273.3125 537 -314.307617188 503 -335.950195312 471 c 5
 -301.732421875 597 l 5
-150.75 716 m 5
 -135.63671875 745 -101.346679688 775 -71.1123046875 782 c 6
 -54.4072265625 786 l 5
 -86.271484375 662 l 5
 -122.329101562 656 -163.32421875 622 -184.966796875 590 c 5
 -150.75 716 l 5
EndSplineSet
Colour: ffc259
EndChar

StartChar: uniEE54
Encoding: 61012 61012 85
Width: 0
VWidth: 999
GlyphClass: 4
Flags: HW
HStem: 355 247
VStem: 3 46
AnchorPoint: "Zaderzhka" 42.584 440 mark 0
LayerCount: 2
Fore
SplineSet
155.1484375 602 m 1
 88.654296875 361 l 1
 65.595703125 355 l 1
 131.73828125 594 l 1
 155.1484375 602 l 1
EndSplineSet
Colour: ffc259
EndChar

StartChar: uniEE53
Encoding: 61011 61011 86
Width: 0
GlyphClass: 4
Flags: HW
HStem: 389 196
VStem: 0 96
AnchorPoint: "Zaderzhka" 60.584 440 mark 0
LayerCount: 2
Fore
SplineSet
102.80859375 515 m 1
 117.921875 544 152.211914062 574 182.446289062 581 c 2
 199.151367188 585 l 1
 167.287109375 461 l 1
 131.228515625 455 90.2333984375 421 68.5908203125 389 c 1
 102.80859375 515 l 1
EndSplineSet
Colour: ffc259
EndChar

StartChar: uniEE55
Encoding: 61013 61013 87
Width: 0
VWidth: 999
GlyphClass: 4
Flags: HW
HStem: -200 94<-279.665 -207.337>
VStem: -315 31<-152 -48.0337> -171 10<-21.1322 2.64682>
AnchorPoint: "Podchashie" -234 0 mark 0
LayerCount: 2
Fore
SplineSet
-163.46875 -14 m 4
 -176.693359375 -89 -223.265625 -200 -285.265625 -200 c 4
 -328.265625 -200 -346.033203125 -176 -337.5703125 -128 c 4
 -332.456054688 -99 -318.637695312 -66 -296.760742188 -27 c 4
 -287.116210938 -12 -286.055664062 -23 -289.700195312 -38 c 4
 -292.287109375 -47 -293.874023438 -56 -295.637695312 -66 c 4
 -299.693359375 -89 -284.690429688 -106 -259.690429688 -106 c 4
 -225.690429688 -106 -183.524414062 -37 -172.057617188 -6 c 4
 -170 0 -167.470703125 3 -163.470703125 3 c 4
 -161.470703125 3 -161.529296875 -3 -163.46875 -14 c 4
EndSplineSet
Colour: ffc259
EndChar

StartChar: uniEE57
Encoding: 61015 61015 88
Width: 0
VWidth: 999
GlyphClass: 4
Flags: HW
HStem: 550 94<-310.076 -238.867>
VStem: -347 31<598 709.699> -324 9<712.188 727.031> -203 10<727.094 752.497>
AnchorPoint: "Flexion" -110.15 640 mark 0
LayerCount: 2
Fore
SplineSet
-194.333984375 690 m 0xd0
 -199.094726562 663 -186.4453125 644 -159.4453125 644 c 0
 -125.4453125 644 -83.279296875 713 -71.8125 744 c 0
 -69.7548828125 750 -66.2255859375 753 -63.2255859375 753 c 0
 -61.2255859375 753 -60.578125 751 -61.107421875 748 c 0
 -61.9892578125 743 -61.9892578125 743 -62.87109375 738 c 0
 -70.2763671875 696 -84.505859375 655 -106.55859375 615 c 0
 -130.140625 572 -157.020507812 550 -186.020507812 550 c 0
 -229.020507812 550 -245.788085938 574 -237.32421875 622 c 0xd0
 -232.2109375 651 -218.392578125 684 -196.515625 723 c 0
 -189.399414062 735 -185.458007812 729 -188.397460938 718 c 0xb0
 -189.455078125 712 -192.041992188 703 -194.333984375 690 c 0xd0
-95.3486328125 792 m 1
 -123.866210938 704 l 1
 -201.462890625 763 l 1
 -173.122070312 850 l 1
 -95.3486328125 792 l 1
EndSplineSet
Colour: ffc259
EndChar

StartChar: uniEE58
Encoding: 61016 61016 89
Width: 0
VWidth: 999
GlyphClass: 4
Flags: HW
HStem: 650 98<-337.018 -245.222>
VStem: -407 13<512.371 545.082> -245 31<608.443 647.656> -245 12<592.054 612.443>
AnchorPoint: "Flexion" -161.15 640 mark 0
LayerCount: 2
Fore
SplineSet
-149.107421875 748 m 0xe0
 -110.107421875 748 -86.6923828125 722 -94.2744140625 679 c 0xe0
 -98.505859375 655 -109.266601562 628 -127.379882812 599 c 0
 -129.26171875 594 -131.614257812 592 -135.614257812 592 c 0
 -139.614257812 592 -140.909179688 596 -138.674804688 603 c 2xd0
 -134.619140625 626 l 2
 -131.797851562 642 -141.387695312 650 -162.387695312 650 c 0
 -199.387695312 650 -231.561523438 632 -258.909179688 596 c 0
 -278.140625 572 -292.548828125 547 -302.133789062 521 c 0
 -304.19140625 515 -307.720703125 512 -312.720703125 512 c 0
 -315.720703125 512 -315.309570312 520 -312.841796875 534 c 0
 -306.317382812 571 -281.797851562 642 -264.037109375 669 c 0
 -230.692382812 722 -192.107421875 748 -149.107421875 748 c 0xe0
EndSplineSet
Colour: ffc259
EndChar

StartChar: uniEE59
Encoding: 61017 61017 90
Width: 0
GlyphClass: 4
Flags: HW
HStem: 460 253
VStem: 5 31<502.5 627.462> 122 14<615.528 693.755>
AnchorPoint: "Zaderzhka" 122.004 380 mark 0
LayerCount: 2
Fore
SplineSet
143.110351562 460 m 0
 108.110351562 460 90.5185546875 485 96.6904296875 520 c 0
 99.6875 537 107.272460938 563 119.090820312 596 c 0
 136.73046875 645 149.66796875 673 157.549804688 678 c 0
 161.079101562 681 162.373046875 677 160.786132812 668 c 0
 147.499023438 621 141.443359375 598 141.267578125 597 c 0
 137.211914062 574 142.743164062 560 156.861328125 555 c 1
 199.310546875 705 l 1
 222.720703125 713 l 1
 179.038085938 556 l 1
 190.743164062 560 201.330078125 569 208.974609375 584 c 0
 224.264648438 614 228.028320312 624 237.846679688 657 c 0
 242.66796875 673 245.546875 695 254.546875 695 c 0
 257.546875 695 255.549804688 678 249.5546875 644 c 0
 243.559570312 610 233.740234375 577 220.921875 544 c 0
 200.047851562 488 174.110351562 460 143.110351562 460 c 0
EndSplineSet
Colour: ffc259
EndChar

StartChar: uniEEE0
Encoding: 61152 61152 91
Width: 835
VWidth: 0
GlyphClass: 1
Flags: HW
HStem: 17 88<16 55 780 819> 17 39<55 106 158 249 301 392 443 534 586 677 729 780> 156 88<16 55 780 819> 229 67<705 731> 230 29<126.018 182 211 326.98 511 705> 295 88<16 55 780 819> 391 29<211 363.291> 434 88<16 55 780 819> 573 89<16 55 780 819> 594 28<126.004 182 211 365.076 557.418 666.887> 712 89<16 55 780 819> 762 39<55 106 158 249 301 392 443 534 586 677 729 780>
VStem: 16 90<17 56 762 801> 16 39<56 105 156 244 295 383 434 522 573 662 712 762> 158 91<17 56 762 801> 182 29<259 391 420 594> 301 91<17 56 762 801> 415 29<465.423 549.533> 443 91<17 56 762 801> 487 24<255 266.305> 499 25<519.017 557.656> 586 91<17 56 762 801> 705 26<255 295.996 479.015 552.609> 729 90<17 56 762 801> 780 39<56 105 156 244 295 383 434 522 573 662 712 762>
LayerCount: 2
Fore
SplineSet
602.513671875 519 m 0x130094
 596.513671875 519 591.571289062 525 592.629882812 531 c 0x13008c
 595.979492188 550 611.682617188 571 637.561523438 593 c 0
 663.44140625 615 692.380859375 626 724.380859375 626 c 0
 783.380859375 626 829.211914062 574 818.80859375 515 c 0
 815.458007812 496 807.4609375 479 793.639648438 463 c 0
 750.823242188 413 600.134765625 290 556.31640625 257 c 1
 555.963867188 255 l 1
 749.963867188 255 l 1
 754.018554688 278 l 2
 756.134765625 290 761.192382812 296 770.192382812 296 c 0
 778.192382812 296 782.134765625 290 780.018554688 278 c 2
 771.37890625 229 l 1
 527.37890625 229 l 1
 534.079101562 267 l 1x130096
 705.293945312 410 l 1
 739.583984375 440 761.287109375 461 772.579101562 474 c 0
 783.87109375 487 791.33984375 501 793.984375 516 c 0
 801.743164062 560 764.620117188 599 719.620117188 599 c 0
 675.620117188 599 633.153320312 568 617.805664062 532 c 0x13008c
 614.21875 523 608.513671875 519 602.513671875 519 c 0x130094
421.67578125 622 m 2x0b41c4
 491.67578125 622 545.387695312 575 533.397460938 507 c 0
 527.754882812 475 507.994140625 448 476.939453125 425 c 0
 445.883789062 402 409.944335938 391 370.944335938 391 c 2
 279.944335938 391 l 1
 256.668945312 259 l 1
 352.668945312 259 l 2
 365.668945312 259 371.787109375 254 370.200195312 245 c 0
 368.436523438 235 360.555664062 230 347.555664062 230 c 2
 185.555664062 230 l 2
 172.555664062 230 167.436523438 235 169.200195312 245 c 0
 170.787109375 254 177.668945312 259 190.668945312 259 c 2
 227.668945312 259 l 1
 286.73828125 594 l 1
 249.73828125 594 l 2
 236.73828125 594 231.443359375 598 233.20703125 608 c 0
 234.793945312 617 241.67578125 622 254.67578125 622 c 2
 421.67578125 622 l 2x0b41c4
504.397460938 507 m 0
 513.038085938 556 469.73828125 594 419.73828125 594 c 2
 315.73828125 594 l 1
 285.057617188 420 l 1
 378.057617188 420 l 2
 433.057617188 420 495.228515625 455 504.397460938 507 c 0
944.544921875 712 m 1x03208480
 905.544921875 712 l 1x03208480
 914.361328125 762 l 1x03108480
 863.361328125 762 l 1
 870.23828125 801 l 1x031085
 960.23828125 801 l 1x032085
 944.544921875 712 l 1x03208480
811.361328125 762 m 1x031084
 720.361328125 762 l 1
 727.23828125 801 l 1
 818.23828125 801 l 1
 811.361328125 762 l 1x031084
920.03515625 573 m 1x03808480
 881.03515625 573 l 1
 896.728515625 662 l 1
 935.728515625 662 l 1
 920.03515625 573 l 1x03808480
668.361328125 762 m 1x0310a4
 577.361328125 762 l 1
 584.23828125 801 l 1
 675.23828125 801 l 1
 668.361328125 762 l 1x0310a4
895.526367188 434 m 1x03008480
 856.526367188 434 l 1
 872.04296875 522 l 1
 911.04296875 522 l 1
 895.526367188 434 l 1x03008480
526.361328125 762 m 1x031084
 435.361328125 762 l 1
 442.23828125 801 l 1
 533.23828125 801 l 1
 526.361328125 762 l 1x031084
871.016601562 295 m 1x07008480
 832.016601562 295 l 1
 847.533203125 383 l 1
 886.533203125 383 l 1
 871.016601562 295 l 1x07008480
383.361328125 762 m 1x031284
 292.361328125 762 l 1
 299.23828125 801 l 1
 390.23828125 801 l 1
 383.361328125 762 l 1x031284
846.506835938 156 m 1x23008480
 807.506835938 156 l 1
 823.0234375 244 l 1
 862.0234375 244 l 1
 846.506835938 156 l 1x23008480
240.361328125 762 m 1x031884
 189.361328125 762 l 1x031484
 180.544921875 712 l 1
 141.544921875 712 l 1x032484
 157.23828125 801 l 1x032884
 247.23828125 801 l 1
 240.361328125 762 l 1x031884
821.998046875 17 m 1x830085
 731.998046875 17 l 1
 738.874023438 56 l 1x430085
 789.874023438 56 l 1x43008480
 798.514648438 105 l 1
 837.514648438 105 l 1x83008480
 821.998046875 17 l 1x830085
156.03515625 573 m 1x038484
 117.03515625 573 l 1
 132.728515625 662 l 1
 171.728515625 662 l 1
 156.03515625 573 l 1x038484
679.998046875 17 m 1x430084
 588.998046875 17 l 1
 595.874023438 56 l 1
 686.874023438 56 l 1
 679.998046875 17 l 1x430084
131.526367188 434 m 1x030484
 92.5263671875 434 l 1
 108.04296875 522 l 1
 147.04296875 522 l 1
 131.526367188 434 l 1x030484
536.998046875 17 m 1x4300a4
 445.998046875 17 l 1
 452.874023438 56 l 1
 543.874023438 56 l 1
 536.998046875 17 l 1x4300a4
107.016601562 295 m 1x070484
 68.0166015625 295 l 1
 83.533203125 383 l 1
 122.533203125 383 l 1
 107.016601562 295 l 1x070484
394.998046875 17 m 1x430084
 303.998046875 17 l 1
 310.874023438 56 l 1
 401.874023438 56 l 1
 394.998046875 17 l 1x430084
82.5068359375 156 m 1x230484
 43.5068359375 156 l 1
 59.0234375 244 l 1
 98.0234375 244 l 1
 82.5068359375 156 l 1x230484
251.998046875 17 m 1x430284
 160.998046875 17 l 1
 167.874023438 56 l 1
 258.874023438 56 l 1
 251.998046875 17 l 1x430284
108.998046875 17 m 1x430884
 18.998046875 17 l 1x830884
 34.5146484375 105 l 1
 73.5146484375 105 l 1x830484
 64.8740234375 56 l 1x430484
 115.874023438 56 l 1
 108.998046875 17 l 1x430884
EndSplineSet
Colour: ffc259
EndChar

StartChar: uniEEE1
Encoding: 61153 61153 92
Width: 835
VWidth: 0
GlyphClass: 1
Flags: HW
HStem: 17 88<16 55 780 819> 17 38<55 106 159 249 301 391 443 535 586 677 729 780> 156 89<16 55 780 819> 223 27<552.216 664.404> 230 29<126.018 182 211 326.98> 295 88<16 55 780 819> 391 29<211 363.257> 434 88<16 55 780 819> 437 27<589.018 669.564> 573 89<16 55 780 819> 594 29<126.215 182 211 367.334> 610 27<559.449 668.701> 712 89<16 55 780 819> 762 39<55 106 158 249 301 391 443 535 586 677 729 780>
VStem: 15 40<55 105 156 245 295 383 434 522 573 662 712 762> 16 90<17 55 762 801> 158 91<17 55 762 801> 182 29<259 391 420 594> 301 90<17 55 762 801> 415 28<465.808 549.72> 443 92<17 55 762 801> 586 91<17 55 762 801> 702 26<495.595 576.661> 716 25<300.915 384.945> 729 90<17 55 762 801> 780 39<55 105 156 245 295 383 434 522 573 662 712 762>
LayerCount: 2
Fore
SplineSet
622.80078125 566 m 0x169026
 614.80078125 566 611.859375 572 613.09375 579 c 0
 613.974609375 584 618.033203125 590 627.620117188 599 c 0
 649.969726562 618 691.3203125 637 732.3203125 637 c 0
 791.3203125 637 832.73828125 594 822.6875 537 c 0x169026
 814.9296875 493 780.9921875 465 747.170898438 449 c 0
 746.170898438 449 744.994140625 448 743.818359375 447 c 1
 780.8203125 430 810.649414062 395 801.48046875 343 c 0
 789.666015625 276 720.321289062 223 651.321289062 223 c 0
 619.321289062 223 537.08203125 250 542.1953125 279 c 0
 543.077148438 284 550.311523438 291 555.311523438 291 c 0
 558.311523438 291 563.782226562 288 570.547851562 281 c 0
 587.903320312 266 619.08203125 250 657.08203125 250 c 0
 710.08203125 250 767.311523438 291 776.48046875 343 c 0x169025
 786.177734375 398 739.0546875 437 682.0546875 437 c 0
 672.0546875 437 666.936523438 442 668.5234375 451 c 0
 670.110351562 460 676.815429688 464 686.815429688 464 c 0
 737.815429688 464 755.2265625 472 778.810546875 498 c 1
 787.926757812 510 794.21875 523 796.51171875 536 c 0
 804.622070312 582 772.559570312 610 725.559570312 610 c 0
 695.559570312 610 668.1484375 602 652.856445312 589 c 1
 646.446289062 581 632.80078125 566 622.80078125 566 c 0x169026
532.57421875 508 m 0x0e2074
 520.231445312 438 442.944335938 391 369.944335938 391 c 2
 279.944335938 391 l 1
 256.668945312 259 l 1
 352.668945312 259 l 2x0e2074
 365.668945312 259 371.787109375 254 370.200195312 245 c 0x260074
 368.61328125 236 360.555664062 230 347.555664062 230 c 2
 184.555664062 230 l 2x0e0074
 172.555664062 230 167.61328125 236 169.200195312 245 c 0x260074
 170.787109375 254 177.668945312 259 189.668945312 259 c 2
 227.668945312 259 l 1
 286.73828125 594 l 1
 248.73828125 594 l 2
 236.73828125 594 232.1484375 602 233.735351562 611 c 0
 235.322265625 620 241.8515625 623 253.8515625 623 c 2
 421.8515625 623 l 2
 490.8515625 623 544.564453125 576 532.57421875 508 c 0x0e2074
504.57421875 508 m 0
 513.390625 558 469.73828125 594 418.73828125 594 c 2
 315.73828125 594 l 1
 285.057617188 420 l 1
 378.057617188 420 l 2
 434.057617188 420 495.228515625 455 504.57421875 508 c 0
944.544921875 712 m 1x06082440
 904.544921875 712 l 1x06082440
 914.361328125 762 l 1x06042440
 863.361328125 762 l 1
 870.23828125 801 l 1x06042480
 960.23828125 801 l 1x06082480
 944.544921875 712 l 1x06082440
811.361328125 762 m 1x060424
 720.361328125 762 l 1
 727.23828125 801 l 1
 818.23828125 801 l 1
 811.361328125 762 l 1x060424
920.03515625 573 m 1x06402440
 880.03515625 573 l 1
 896.728515625 662 l 1
 935.728515625 662 l 1
 920.03515625 573 l 1x06402440
669.361328125 762 m 1x06042c
 577.361328125 762 l 1
 584.23828125 801 l 1
 676.23828125 801 l 1
 669.361328125 762 l 1x06042c
895.526367188 434 m 1x07002440
 855.526367188 434 l 1
 872.04296875 522 l 1
 911.04296875 522 l 1
 895.526367188 434 l 1x07002440
525.361328125 762 m 1x060424
 435.361328125 762 l 1
 442.23828125 801 l 1
 532.23828125 801 l 1
 525.361328125 762 l 1x060424
871.016601562 295 m 1x06002440
 831.016601562 295 l 1
 847.533203125 383 l 1
 886.533203125 383 l 1
 871.016601562 295 l 1x06002440
383.361328125 762 m 1x0604a4
 292.361328125 762 l 1
 299.23828125 801 l 1
 390.23828125 801 l 1
 383.361328125 762 l 1x0604a4
846.506835938 156 m 1x26002440
 806.506835938 156 l 1
 823.200195312 245 l 1
 862.200195312 245 l 1
 846.506835938 156 l 1x26002440
240.361328125 762 m 1x060524
 189.361328125 762 l 1x060624
 180.544921875 712 l 1
 140.544921875 712 l 1x060a24
 157.23828125 801 l 1x060924
 247.23828125 801 l 1
 240.361328125 762 l 1x060524
821.998046875 17 m 1x86002480
 731.998046875 17 l 1
 738.698242188 55 l 1x46002480
 789.698242188 55 l 1x46002440
 798.514648438 105 l 1
 837.514648438 105 l 1x86002440
 821.998046875 17 l 1x86002480
156.03515625 573 m 1x064224
 116.03515625 573 l 1x064224
 132.728515625 662 l 1x064124
 171.728515625 662 l 1
 156.03515625 573 l 1x064224
679.998046875 17 m 1x460024
 588.998046875 17 l 1
 595.698242188 55 l 1
 686.698242188 55 l 1
 679.998046875 17 l 1x460024
131.526367188 434 m 1x070224
 91.5263671875 434 l 1x070224
 108.04296875 522 l 1x070124
 147.04296875 522 l 1
 131.526367188 434 l 1x070224
537.998046875 17 m 1x46002c
 445.998046875 17 l 1
 452.698242188 55 l 1
 544.698242188 55 l 1
 537.998046875 17 l 1x46002c
107.016601562 295 m 1x060224
 67.0166015625 295 l 1x060224
 83.533203125 383 l 1x060124
 122.533203125 383 l 1
 107.016601562 295 l 1x060224
393.998046875 17 m 1x460024
 303.998046875 17 l 1
 310.698242188 55 l 1
 400.698242188 55 l 1
 393.998046875 17 l 1x460024
82.5068359375 156 m 1x260224
 42.5068359375 156 l 1x260224
 59.2001953125 245 l 1x260124
 98.2001953125 245 l 1
 82.5068359375 156 l 1x260224
251.998046875 17 m 1x4600a4
 161.998046875 17 l 1
 167.698242188 55 l 1
 258.698242188 55 l 1
 251.998046875 17 l 1x4600a4
108.998046875 17 m 1x460124
 17.998046875 17 l 1x460224
 34.5146484375 105 l 1x860124
 73.5146484375 105 l 1x860224
 64.6982421875 55 l 1x460224
 115.698242188 55 l 1
 108.998046875 17 l 1x460124
EndSplineSet
Colour: ffc259
EndChar

StartChar: uniEE90
Encoding: 61072 61072 93
Width: 350
VWidth: 0
GlyphClass: 2
Flags: HW
HStem: 137 134<231.788 297.641>
VStem: 203 10<83.3571 104.99> 211 118<146.515 250.711> 304 26<10.8683 151.5>
AnchorPoint: "FinalPitch" 590.266 200 basechar 0
AnchorPoint: "Kachka" 147.608 270 basechar 0
AnchorPoint: "Zaderzhka" 186.992 465 basechar 0
AnchorPoint: "Lomka" 566.449 150 basechar 0
AnchorPoint: "Tikhaya" 35.2656 200 basechar 0
AnchorPoint: "Borzaya" 26.4492 150 basechar 0
AnchorPoint: "Zevok" 140 0 basechar 0
AnchorPoint: "Kupnaya" 41.1836 -50 basechar 0
AnchorPoint: "Podchashie" 190 0 basechar 0
AnchorPoint: "Auxiliary" 298.139 670 basechar 0
AnchorPoint: "Podvertka" 220 0 basechar 0
AnchorPoint: "Flexion" 507.85 640 basechar 0
AnchorPoint: "Podtinka" -17.6328 -100 basechar 0
AnchorPoint: "TonalRange" 531.376 660 basechar 0
AnchorPoint: "Tochka" 417.307 325 basechar 0
AnchorPoint: "Omet" 293.163 500 basechar 0
AnchorPoint: "PitchMark" 162.27 580 basechar 0
LayerCount: 2
Fore
SplineSet
166.48046875 343 m 1x80
 198.236328125 404 289.5859375 423 289.5859375 423 c 1
 257.721679688 299 l 1
 257.721679688 299 174.37109375 280 132.262695312 217 c 1
 166.48046875 343 l 1x80
307.649414062 -19 m 0
 305.944335938 -23 298.415039062 -26 296.415039062 -26 c 0
 294.415039062 -26 287.944335938 -23 290.178710938 -16 c 0
 294.647460938 -2 316.166992188 69 318.458984375 82 c 0
 323.749023438 112 319.627929688 134 289.157226562 137 c 1
 283.157226562 137 l 2
 268.157226562 137 245.922851562 130 228.869140625 90 c 0
 225.106445312 80 214.577148438 77 218.340820312 87 c 1xd0
 225.454101562 116 233.625 151 243.267578125 183 c 0
 257.731445312 231 278.784179688 271 321.784179688 271 c 0
 358.784179688 271 365.555664062 230 360.209960938 177 c 0xa0
 359.446289062 167 357.68359375 157 355.744140625 146 c 0x90
 344.634765625 83 321.291992188 13 307.649414062 -19 c 0
57.3408203125 87 m 1
 66.5146484375 105 82.3359375 121 102.627929688 134 c 0
 122.919921875 147 140.506835938 156 156.211914062 160 c 2
 180.446289062 167 l 1
 148.58203125 43 l 1
 147.405273438 42 144.229492188 41 140.052734375 40 c 0
 123.34765625 36 103.760742188 27 80.46875 14 c 0
 57.1767578125 1 38.1787109375 -16 23.123046875 -39 c 1
 57.3408203125 87 l 1
EndSplineSet
Position2: "Advance neume with cinnabar mark-1" dx=200 dy=35 dh=0 dv=0
Colour: ffc259
EndChar

StartChar: uniEE76
Encoding: 61046 61046 94
Width: 500
VWidth: 0
GlyphClass: 2
Flags: HW
HStem: 0 21G<32.0417 40.5>
AnchorPoint: "FinalPitch" 495.771 770 basechar 0
AnchorPoint: "PitchMark" 265.771 770 basechar 0
AnchorPoint: "Lomka" -313.551 150 basechar 0
AnchorPoint: "Tikhaya" 65.2412 370 basechar 0
AnchorPoint: "Borzaya" 48.4902 275 basechar 0
AnchorPoint: "Zevok" 190.58 60 basechar 0
AnchorPoint: "Kachka" 166.376 660 basechar 0
AnchorPoint: "Kupnaya" 41.1836 -50 basechar 0
AnchorPoint: "Podchashie" 110 0 basechar 0
AnchorPoint: "Auxiliary" 381.376 660 basechar 0
AnchorPoint: "Podvertka" 429.976 170 basechar 0
AnchorPoint: "Flexion" 507.85 640 basechar 0
AnchorPoint: "Podtinka" -8.81641 -50 basechar 0
AnchorPoint: "TonalRange" 531.376 660 basechar 0
AnchorPoint: "Tochka" 567.307 325 basechar 0
AnchorPoint: "Zaderzhka" 607.608 270 basechar 0
AnchorPoint: "Omet" 458.502 190 basechar 0
LayerCount: 2
Fore
SplineSet
98.5654296875 162 m 1
 115.444335938 184 135.793945312 203 160.791992188 220 c 0
 185.7890625 237 205.729492188 248 221.787109375 254 c 2
 245.197265625 262 l 1
 205.51171875 122 l 1
 197.159179688 120 183.27734375 115 164.8671875 107 c 0
 104.458984375 82 59.111328125 46 30 0 c 1
 163.63671875 480 l 1
 192.458007812 496 l 1
 98.5654296875 162 l 1
450.890625 351 m 1
 466.00390625 380 500.293945312 410 530.528320312 417 c 2
 547.233398438 421 l 1
 512.369140625 297 l 1
 476.311523438 291 436.31640625 257 414.673828125 225 c 1
 450.890625 351 l 1
300.784179688 271 m 1
 315.8984375 300 350.1875 330 380.421875 337 c 2
 397.127929688 341 l 1
 362.262695312 217 l 1
 326.205078125 211 286.209960938 177 264.567382812 145 c 1
 300.784179688 271 l 1
EndSplineSet
Position2: "Advance neume with cinnabar mark-1" dx=200 dy=35 dh=0 dv=0
Colour: ffc259
EndChar

StartChar: uniEE77
Encoding: 61047 61047 95
Width: 385
VWidth: 0
GlyphClass: 2
Flags: HW
HStem: 0 21G<32.0417 40.5> 281 134<264.827 330.563>
VStem: 236 10<227.683 248.65> 337 27<154.973 325.5>
AnchorPoint: "FinalPitch" 533.792 220 basechar 0
AnchorPoint: "PitchMark" 265.771 770 basechar 0
AnchorPoint: "Podchashie" 110 0 basechar 0
AnchorPoint: "Lomka" 566.449 150 basechar 0
AnchorPoint: "Tikhaya" -5.29004 -30 basechar 0
AnchorPoint: "Borzaya" 26.4492 150 basechar 0
AnchorPoint: "Zevok" 190.58 60 basechar 0
AnchorPoint: "Kachka" 166.376 660 basechar 0
AnchorPoint: "Kupnaya" 41.1836 -50 basechar 0
AnchorPoint: "Auxiliary" 381.376 660 basechar 0
AnchorPoint: "Podvertka" 265.869 90 basechar 0
AnchorPoint: "Flexion" 507.85 640 basechar 0
AnchorPoint: "Podtinka" -8.81641 -50 basechar 0
AnchorPoint: "TonalRange" 531.376 660 basechar 0
AnchorPoint: "Tochka" 452.307 325 basechar 0
AnchorPoint: "Zaderzhka" 8.84082 -120 basechar 0
AnchorPoint: "Omet" 293.163 500 basechar 0
LayerCount: 2
Fore
SplineSet
98.5654296875 162 m 1
 115.444335938 184 134.793945312 203 159.791992188 220 c 0
 184.7890625 237 205.729492188 248 221.787109375 254 c 2
 245.197265625 262 l 1
 205.51171875 122 l 1
 198.159179688 120 184.27734375 115 165.8671875 107 c 0
 104.282226562 81 58.9345703125 45 30 0 c 1
 163.63671875 480 l 1
 192.458007812 496 l 1
 98.5654296875 162 l 1
380.17578125 415 m 0
 418.17578125 415 429.241210938 370 413.547851562 281 c 0
 404.731445312 231 388.5625 179 366.041015625 125 c 0
 364.159179688 120 359.806640625 118 354.806640625 118 c 0
 350.806640625 118 346.688476562 123 348.5703125 128 c 0
 364.5625 179 374.380859375 212 376.849609375 226 c 0
 382.844726562 260 373.018554688 278 347.547851562 281 c 1
 341.547851562 281 l 2
 318.547851562 281 300.7265625 265 287.260742188 234 c 0
 285.202148438 228 274.615234375 219 276.555664062 230 c 0
 276.908203125 232 300.482421875 326 300.659179688 327 c 0
 318.0625 386 345.17578125 415 380.17578125 415 c 0
EndSplineSet
Position2: "Advance neume with cinnabar mark-1" dx=200 dy=35 dh=0 dv=0
Colour: ffc259
EndChar

StartChar: uniEE7C
Encoding: 61052 61052 96
Width: 325
VWidth: 0
GlyphClass: 2
Flags: HW
HStem: 206 108<82.3961 151.009>
VStem: 24 27<-42.8409 141.765> 158 32<41.3 254>
AnchorPoint: "FinalPitch" 533.743 560 basechar 0
AnchorPoint: "Lomka" 396.449 150 basechar 0
AnchorPoint: "Tikhaya" 14.1064 80 basechar 0
AnchorPoint: "Borzaya" 26.4492 150 basechar 0
AnchorPoint: "Zevok" 50 0 basechar 0
AnchorPoint: "Kachka" 166.376 660 basechar 0
AnchorPoint: "Kupnaya" 41.1836 -50 basechar 0
AnchorPoint: "Auxiliary" 381.376 660 basechar 0
AnchorPoint: "Podvertka" 349.396 110 basechar 0
AnchorPoint: "Flexion" 507.85 640 basechar 0
AnchorPoint: "Podtinka" -17.6328 -100 basechar 0
AnchorPoint: "TonalRange" 531.376 660 basechar 0
AnchorPoint: "Tochka" 392.307 325 basechar 0
AnchorPoint: "Zaderzhka" 239.347 450 basechar 0
AnchorPoint: "Omet" 293.163 500 basechar 0
AnchorPoint: "Podchashie" 94.71 -30 basechar 0
AnchorPoint: "PitchMark" 162.27 580 basechar 0
LayerCount: 2
Fore
SplineSet
358.598632812 338 m 1
 324.557617188 213 l 1
 260.60546875 287 l 1
 294.823242188 413 l 1
 358.598632812 338 l 1
46.0625 -28 m 0
 45.0048828125 -34 35.41796875 -43 28.41796875 -43 c 0
 19.41796875 -43 16.828125 -35 20.4736328125 -20 c 0
 32.4638671875 48 52.6884765625 123 75.501953125 190 c 0
 94.2001953125 245 129.366210938 314 183.366210938 314 c 0
 224.366210938 314 240.077148438 284 229.497070312 224 c 0
 218.91796875 164 199.750976562 95 172.64453125 15 c 0
 168.41015625 8 163.705078125 4 157.705078125 4 c 0
 149.705078125 4 149.234375 7 147.116210938 12 c 1
 169.340820312 87 180.922851562 130 182.862304688 141 c 0
 190.444335938 184 182.323242188 206 157.323242188 206 c 0
 120.323242188 206 91.09375 165 69.458984375 82 c 0
 61.9345703125 45 53.41015625 8 46.0625 -28 c 0
253.7578125 458 m 1
 219.716796875 333 l 1
 156.764648438 407 l 1
 189.982421875 533 l 1
 253.7578125 458 l 1
EndSplineSet
Position2: "Advance neume with cinnabar mark-1" dx=200 dy=35 dh=0 dv=0
Colour: ffc259
EndChar

StartChar: uniEE70
Encoding: 61040 61040 97
Width: 625
VWidth: 0
GlyphClass: 2
Flags: HW
HStem: 0 21G<32.0417 47.0833> 451 125<478.289 544.923>
AnchorPoint: "FinalPitch" 797.898 300 basechar 0
AnchorPoint: "Auxiliary" 406.062 800 basechar 0
AnchorPoint: "PitchMark" 265.771 770 basechar 0
AnchorPoint: "Lomka" 566.449 150 basechar 0
AnchorPoint: "Tikhaya" 65.2412 370 basechar 0
AnchorPoint: "Borzaya" 26.4492 150 basechar 0
AnchorPoint: "Zevok" 691.715 350 basechar 0
AnchorPoint: "Kachka" 166.376 660 basechar 0
AnchorPoint: "Kupnaya" 41.1836 -50 basechar 0
AnchorPoint: "Podvertka" 697.004 380 basechar 0
AnchorPoint: "Flexion" 507.85 640 basechar 0
AnchorPoint: "Podtinka" -8.81641 -50 basechar 0
AnchorPoint: "TonalRange" 531.376 660 basechar 0
AnchorPoint: "Zaderzhka" 711.11 460 basechar 0
AnchorPoint: "Omet" 537.898 300 basechar 0
AnchorPoint: "Tochka" 542.307 325 basechar 0
AnchorPoint: "Podchashie" 421.2 245 basechar 0
LayerCount: 2
Fore
SplineSet
620.564453125 576 m 0
 645.564453125 576 679.866210938 521 675.10546875 494 c 0
 675.10546875 494 674.9296875 493 674.752929688 492 c 2
 640.946289062 374 l 1
 639.883789062 402 628.115234375 426 604.818359375 447 c 0
 602.346679688 450 597.5234375 451 592.5234375 451 c 0
 576.5234375 451 545.87890625 436 501.764648438 407 c 0
 405.65625 344 264.497070312 224 79.4638671875 48 c 1
 30 0 l 1
 163.63671875 480 l 1
 192.458007812 496 l 1
 98.5654296875 162 l 1
 217.900390625 283 349.649414062 395 493.810546875 498 c 0
 564.979492188 550 607.564453125 576 620.564453125 576 c 0
EndSplineSet
Position2: "Advance neume with cinnabar mark-1" dx=200 dy=35 dh=0 dv=0
Colour: ffc259
EndChar

StartChar: uniEE85
Encoding: 61061 61061 98
Width: 625
VWidth: 0
GlyphClass: 2
Flags: HW
HStem: 0 21G<31.8692 33> 451 125<479.474 545.206>
AnchorPoint: "FinalPitch" 797.898 300 basechar 0
AnchorPoint: "Auxiliary" 406.062 800 basechar 0
AnchorPoint: "Kachka" 541.955 720 basechar 0
AnchorPoint: "PitchMark" 229.902 680 basechar 0
AnchorPoint: "Lomka" 566.449 150 basechar 0
AnchorPoint: "Tikhaya" 65.2412 370 basechar 0
AnchorPoint: "Borzaya" 26.4492 150 basechar 0
AnchorPoint: "Zevok" 691.715 350 basechar 0
AnchorPoint: "Kupnaya" 41.1836 -50 basechar 0
AnchorPoint: "Podvertka" 697.004 380 basechar 0
AnchorPoint: "Flexion" 507.85 640 basechar 0
AnchorPoint: "Podtinka" -8.81641 -50 basechar 0
AnchorPoint: "TonalRange" 531.376 660 basechar 0
AnchorPoint: "Zaderzhka" 711.11 460 basechar 0
AnchorPoint: "Omet" 587.898 300 basechar 0
AnchorPoint: "Tochka" 592.307 325 basechar 0
AnchorPoint: "Podchashie" 403.225 75 basechar 0
LayerCount: 2
Fore
SplineSet
620.564453125 576 m 0
 633.564453125 576 645.80078125 566 660.098632812 545 c 0
 673.571289062 525 677.57421875 508 675.10546875 494 c 0
 674.9296875 493 674.9296875 493 674.752929688 492 c 1
 640.946289062 374 l 1
 639.883789062 402 628.115234375 426 604.818359375 447 c 0
 602.346679688 450 597.5234375 451 592.5234375 451 c 0
 591.5234375 451 l 0
 574.5234375 451 547.407226562 439 510.999023438 414 c 0
 461.180664062 381 406.951171875 340 347.134765625 290 c 0
 287.318359375 240 222.091796875 182 150.454101562 116 c 0
 78.81640625 50 37.939453125 11 30 0 c 1
 58.8671875 107 l 1
 69.51171875 122 102.68359375 157 157.380859375 212 c 0
 276.541015625 332 351.825195312 396 493.810546875 498 c 0
 565.979492188 550 607.564453125 576 620.564453125 576 c 0
185.403320312 59 m 1
 217.159179688 120 281.74609375 129 281.74609375 129 c 1
 249.881835938 5 l 1
 249.881835938 5 193.294921875 -4 151.186523438 -67 c 1
 185.403320312 59 l 1
488.369140625 297 m 1
 520.125 358 584.711914062 367 584.711914062 367 c 1
 551.84765625 243 l 1
 551.84765625 243 496.260742188 234 454.15234375 171 c 1
 488.369140625 297 l 1
336.385742188 178 m 1
 368.142578125 239 432.729492188 248 432.729492188 248 c 1
 400.864257812 124 l 1
 400.864257812 124 344.27734375 115 302.168945312 52 c 1
 336.385742188 178 l 1
EndSplineSet
Position2: "Advance neume with cinnabar mark-1" dx=200 dy=35 dh=0 dv=0
Colour: ffc259
EndChar

StartChar: uniEE80
Encoding: 61056 61056 99
Width: 225
VWidth: 0
GlyphClass: 2
Flags: HW
HStem: 0 106<51.5524 150.3>
VStem: 20 34<107.47 184.16> 62 26<388.5 491.999> 80 11<490.513 513.981> 185 22<149.369 256>
AnchorPoint: "FinalPitch" 452.608 270 basechar 0
AnchorPoint: "PitchMark" 48.1631 500 basechar 0
AnchorPoint: "Lomka" -313.551 150 basechar 0
AnchorPoint: "Tikhaya" -5.29004 -30 basechar 0
AnchorPoint: "Borzaya" 26.4492 150 basechar 0
AnchorPoint: "Zevok" 50 0 basechar 0
AnchorPoint: "Kachka" 166.376 660 basechar 0
AnchorPoint: "Kupnaya" 41.1836 -50 basechar 0
AnchorPoint: "Auxiliary" 67.6084 270 basechar 0
AnchorPoint: "Podvertka" 200 0 basechar 0
AnchorPoint: "Flexion" 507.85 640 basechar 0
AnchorPoint: "Podtinka" -8.81641 -50 basechar 0
AnchorPoint: "TonalRange" 531.376 660 basechar 0
AnchorPoint: "Tochka" 292.307 325 basechar 0
AnchorPoint: "Zaderzhka" 8.84082 -120 basechar 0
AnchorPoint: "Omet" 293.163 500 basechar 0
AnchorPoint: "Podchashie" 94.71 -30 basechar 0
LayerCount: 2
Fore
SplineSet
29.81640625 50 m 0xe8
 30.1689453125 52 31.28515625 64 31.6376953125 66 c 0
 36.0458984375 91 55.623046875 168 65.6201171875 185 c 0
 68.326171875 189 71.6787109375 191 76.6787109375 191 c 0
 83.6787109375 191 87.326171875 189 86.4443359375 184 c 0
 85.2099609375 177 76.3310546875 155 74.919921875 147 c 0
 70.1591796875 120 78.6904296875 106 100.690429688 106 c 0
 140.690429688 106 209.333007812 138 216.033203125 176 c 0
 218.678710938 191 217.323242188 206 209.791992188 220 c 0
 202.260742188 234 191.552734375 247 177.197265625 262 c 0
 162.842773438 277 153.311523438 291 148.250976562 302 c 0
 132.069335938 335 127.241210938 370 133.764648438 407 c 0xe8
 137.64453125 429 160.10546875 494 169.397460938 507 c 0
 170.279296875 512 172.631835938 514 176.631835938 514 c 0
 179.631835938 514 181.103515625 511 180.57421875 508 c 2
 180.397460938 507 l 1xd8
 176.810546875 498 173.87109375 487 171.579101562 474 c 0
 164.349609375 433 194.23828125 387 212.125 358 c 0
 223.951171875 340 231.659179688 327 237.072265625 318 c 0
 247.8984375 300 254.9609375 272 249.318359375 240 c 0
 235.91796875 164 224.924804688 113 215.516601562 88 c 0
 203.05078125 57 187.818359375 33 158.173828125 18 c 0
 140.586914062 9 110 0 84 0 c 0
 48 0 27.173828125 18 29.81640625 50 c 0xe8
EndSplineSet
Position2: "Advance neume with cinnabar mark-1" dx=200 dy=35 dh=0 dv=0
Colour: ffc259
EndChar

StartChar: uniEEAC
Encoding: 61100 61100 100
Width: 320
VWidth: 0
GlyphClass: 2
Flags: HW
HStem: -7 21G<149 172.258>
VStem: 25 270
AnchorPoint: "FinalPitch" 453.792 220 basechar 0
AnchorPoint: "PitchMark" 265.771 770 basechar 0
AnchorPoint: "Lomka" 566.449 150 basechar 0
AnchorPoint: "Tikhaya" -5.29004 -30 basechar 0
AnchorPoint: "Borzaya" 26.4492 150 basechar 0
AnchorPoint: "Zevok" 50 0 basechar 0
AnchorPoint: "Kachka" 166.376 660 basechar 0
AnchorPoint: "Kupnaya" 41.1836 -50 basechar 0
AnchorPoint: "Auxiliary" 381.376 660 basechar 0
AnchorPoint: "Podvertka" 200 0 basechar 0
AnchorPoint: "Flexion" 507.85 640 basechar 0
AnchorPoint: "Podtinka" -8.81641 -50 basechar 0
AnchorPoint: "TonalRange" 531.376 660 basechar 0
AnchorPoint: "Tochka" 387.307 325 basechar 0
AnchorPoint: "Zaderzhka" 8.84082 -120 basechar 0
AnchorPoint: "Omet" 293.163 500 basechar 0
AnchorPoint: "Podchashie" 94.71 -30 basechar 0
LayerCount: 2
Fore
SplineSet
249.221679688 506 m 0
 251.221679688 506 256.458007812 496 263.931640625 476 c 0
 278.407226562 439 289.595703125 355 285.250976562 302 c 1
 297.250976562 302 299.779296875 305 317.895507812 317 c 0
 331.482421875 326 345.951171875 340 358.301757812 359 c 1
 327.729492188 248 l 1
 314.14453125 222 290.736328125 197 266.20703125 194 c 1
 250.390625 144 210.580078125 60 183.231445312 24 c 2
 158.765625 -7 l 1
 142.584960938 26 135.111328125 46 128.162109375 103 c 0
 123.685546875 140 122.328125 172 124.44140625 201 c 1
 111.44140625 201 108.913085938 198 90.796875 186 c 0
 77.2099609375 177 62.7412109375 163 50.390625 144 c 1
 79.787109375 254 l 1
 93.37109375 280 117.956054688 306 144.30859375 308 c 1
 158.94921875 357 197.583984375 440 223.931640625 476 c 0
 238.458007812 496 247.221679688 506 249.221679688 506 c 0
203.219726562 109 m 1
 219.451171875 133 231.446289062 167 239.028320312 210 c 0
 246.610351562 253 246.60546875 287 241.013671875 312 c 0
 235.421875 337 223.006835938 363 204.767578125 390 c 1
 192.064453125 369 181.421875 337 174.192382812 296 c 0
 159.557617188 213 169.625 151 203.219726562 109 c 1
EndSplineSet
Position2: "Advance neume with cinnabar mark-1" dx=200 dy=35 dh=0 dv=0
Colour: ffc259
EndChar

StartChar: uniEEAD
Encoding: 61101 61101 101
Width: 290
VWidth: 0
GlyphClass: 2
Flags: HW
HStem: 0 21G<24.0417 40.5714 193.121 208.857>
VStem: 22 243
AnchorPoint: "FinalPitch" 453.792 220 basechar 0
AnchorPoint: "PitchMark" 265.771 770 basechar 0
AnchorPoint: "Lomka" 566.449 150 basechar 0
AnchorPoint: "Tikhaya" -5.29004 -30 basechar 0
AnchorPoint: "Borzaya" 26.4492 150 basechar 0
AnchorPoint: "Zevok" 50 0 basechar 0
AnchorPoint: "Kachka" 166.376 660 basechar 0
AnchorPoint: "Kupnaya" 41.1836 -50 basechar 0
AnchorPoint: "Auxiliary" 381.376 660 basechar 0
AnchorPoint: "Podvertka" 200 0 basechar 0
AnchorPoint: "Flexion" 507.85 640 basechar 0
AnchorPoint: "Podtinka" -8.81641 -50 basechar 0
AnchorPoint: "TonalRange" 531.376 660 basechar 0
AnchorPoint: "Tochka" 357.307 325 basechar 0
AnchorPoint: "Zaderzhka" 8.84082 -120 basechar 0
AnchorPoint: "Omet" 293.163 500 basechar 0
AnchorPoint: "Podchashie" 94.71 -30 basechar 0
LayerCount: 2
Fore
SplineSet
352.458007812 496 m 1
 352.458007812 496 308.774414062 339 220.9375 28 c 1
 191 0 l 1
 209.637695312 66 l 1
 85.744140625 146 l 1
 75.2197265625 109 64.3427734375 70 52.9375 28 c 1
 22 0 l 1
 155.63671875 480 l 1
 183.458007812 496 l 1
 179.989257812 482 172.934570312 459 164.291992188 427 c 1
 287.185546875 347 l 1
 324.63671875 480 l 1
 352.458007812 496 l 1
259.200195312 245 m 1
 136.306640625 325 l 1
 129.250976562 302 122.666015625 276 114.729492188 248 c 1
 237.623046875 168 l 1
 259.200195312 245 l 1
EndSplineSet
Position2: "Advance neume with cinnabar mark-1" dx=200 dy=35 dh=0 dv=0
Colour: ffc259
EndChar

StartChar: uniEE87
Encoding: 61063 61063 102
Width: 260
VWidth: 0
GlyphClass: 2
Flags: HW
HStem: 1 247
VStem: 20 220
AnchorPoint: "FinalPitch" 482.028 210 basechar 0
AnchorPoint: "Podvertka" 310.58 60 basechar 0
AnchorPoint: "Lomka" 356.449 150 basechar 0
AnchorPoint: "Tikhaya" 8.81641 50 basechar 0
AnchorPoint: "Zaderzhka" 301.739 180 basechar 0
AnchorPoint: "Borzaya" 26.4492 150 basechar 0
AnchorPoint: "Zevok" 50 0 basechar 0
AnchorPoint: "Kachka" 166.376 660 basechar 0
AnchorPoint: "Kupnaya" 17.6328 100 basechar 0
AnchorPoint: "Auxiliary" 215.241 370 basechar 0
AnchorPoint: "Flexion" 507.85 640 basechar 0
AnchorPoint: "Podtinka" -8.81641 -50 basechar 0
AnchorPoint: "TonalRange" 531.376 660 basechar 0
AnchorPoint: "Tochka" 327.307 325 basechar 0
AnchorPoint: "Omet" 293.163 500 basechar 0
AnchorPoint: "Podchashie" 94.71 -30 basechar 0
AnchorPoint: "PitchMark" 162.27 580 basechar 0
LayerCount: 2
Fore
SplineSet
202.729492188 248 m 1
 262.74609375 129 l 1
 228.176757812 1 l 1
 168.3359375 121 l 1
 202.729492188 248 l 1
75.7294921875 248 m 1
 135.74609375 129 l 1
 101.176757812 1 l 1
 41.3359375 121 l 1
 75.7294921875 248 l 1
EndSplineSet
Position2: "Advance neume with cinnabar mark-1" dx=200 dy=35 dh=0 dv=0
Colour: ffc259
EndChar

StartChar: uniEE89
Encoding: 61065 61065 103
Width: 215
VWidth: 0
GlyphClass: 2
Flags: HW
HStem: 0 21G<64.0087 84>
VStem: 16 177
AnchorPoint: "FinalPitch" 373.792 220 basechar 0
AnchorPoint: "Lomka" 566.449 150 basechar 0
AnchorPoint: "Tikhaya" -5.29004 -30 basechar 0
AnchorPoint: "Borzaya" 26.4492 150 basechar 0
AnchorPoint: "Zevok" 50 0 basechar 0
AnchorPoint: "Kachka" 166.376 660 basechar 0
AnchorPoint: "Kupnaya" 41.1836 -50 basechar 0
AnchorPoint: "Auxiliary" 381.376 660 basechar 0
AnchorPoint: "Podvertka" 140 0 basechar 0
AnchorPoint: "Flexion" 507.85 640 basechar 0
AnchorPoint: "Podtinka" -8.81641 -50 basechar 0
AnchorPoint: "TonalRange" 531.376 660 basechar 0
AnchorPoint: "Tochka" 282.307 325 basechar 0
AnchorPoint: "Zaderzhka" 8.84082 -120 basechar 0
AnchorPoint: "Omet" 293.163 500 basechar 0
AnchorPoint: "Podchashie" 74 0 basechar 0
AnchorPoint: "PitchMark" 48.1631 500 basechar 0
LayerCount: 2
Fore
SplineSet
75.7841796875 271 m 2
 85.603515625 304 130.598632812 338 160.595703125 355 c 1
 197.047851562 488 l 1
 220.458007812 496 l 1
 184.536132812 366 l 1
 208.123046875 375 229.180664062 381 246.356445312 382 c 2
 260.533203125 383 l 1
 228.668945312 259 l 1
 222.844726562 260 214.374023438 263 202.021484375 261 c 0
 181.4921875 258 173.963867188 255 151.0234375 244 c 1
 84.8818359375 5 l 1
 62 0 l 1
 125.37890625 229 l 1
 102.734375 214 57.798828125 169 41.5673828125 145 c 1
 75.7841796875 271 l 2
EndSplineSet
Position2: "Advance neume with cinnabar mark-1" dx=200 dy=35 dh=0 dv=0
Colour: ffc259
EndChar

StartChar: uniEE71
Encoding: 61041 61041 104
Width: 625
VWidth: 0
GlyphClass: 2
Flags: HW
HStem: 0 20G<32.0417 47.0833 280.046 300> 451 125<478.289 544.923>
AnchorPoint: "FinalPitch" 760.771 770 basechar 0
AnchorPoint: "Podchashie" 455.266 200 basechar 0
AnchorPoint: "PitchMark" 265.771 770 basechar 0
AnchorPoint: "Lomka" -313.551 150 basechar 0
AnchorPoint: "Tikhaya" 65.2412 370 basechar 0
AnchorPoint: "Borzaya" 26.4492 150 basechar 0
AnchorPoint: "Zevok" 691.715 350 basechar 0
AnchorPoint: "Kachka" 166.376 660 basechar 0
AnchorPoint: "Kupnaya" 41.1836 -50 basechar 0
AnchorPoint: "Auxiliary" 406.062 800 basechar 0
AnchorPoint: "Podvertka" 697.004 380 basechar 0
AnchorPoint: "Flexion" 507.85 640 basechar 0
AnchorPoint: "Podtinka" -8.81641 -50 basechar 0
AnchorPoint: "TonalRange" 531.376 660 basechar 0
AnchorPoint: "Zaderzhka" 711.11 460 basechar 0
AnchorPoint: "Omet" 537.898 300 basechar 0
AnchorPoint: "Tochka" 542.307 325 basechar 0
LayerCount: 2
Fore
SplineSet
620.564453125 576 m 0
 645.564453125 576 679.866210938 521 675.10546875 494 c 2
 675.10546875 494 674.9296875 493 674.752929688 492 c 2
 640.946289062 374 l 1
 639.883789062 402 628.115234375 426 604.818359375 447 c 0
 602.346679688 450 597.5234375 451 592.5234375 451 c 0
 576.5234375 451 545.87890625 436 501.764648438 407 c 0
 469.0625 386 432.125 358 389.129882812 324 c 1
 300.881835938 5 l 1
 277.823242188 -1 l 1
 362.250976562 302 l 1
 283.7890625 237 188.801757812 152 79.4638671875 48 c 1
 30 0 l 1
 163.63671875 480 l 1
 192.458007812 496 l 1
 98.5654296875 162 l 1
 217.900390625 283 349.649414062 395 493.810546875 498 c 1
 564.979492188 550 607.564453125 576 620.564453125 576 c 0
EndSplineSet
Position2: "Advance neume with cinnabar mark-1" dx=200 dy=35 dh=0 dv=0
Colour: ffc259
EndChar

StartChar: uniEE72
Encoding: 61042 61042 105
Width: 625
VWidth: 0
GlyphClass: 2
Flags: HW
HStem: 0 21G<32.0168 47.5> 451 125<478.289 545.144>
AnchorPoint: "FinalPitch" 797.898 300 basechar 0
AnchorPoint: "Auxiliary" 406.062 800 basechar 0
AnchorPoint: "TonalRange" 544.902 680 basechar 0
AnchorPoint: "PitchMark" 265.771 770 basechar 0
AnchorPoint: "Lomka" 566.449 150 basechar 0
AnchorPoint: "Tikhaya" 65.2412 370 basechar 0
AnchorPoint: "Borzaya" 26.4492 150 basechar 0
AnchorPoint: "Zevok" 691.715 350 basechar 0
AnchorPoint: "Kachka" 166.376 660 basechar 0
AnchorPoint: "Kupnaya" 41.1836 -50 basechar 0
AnchorPoint: "Podvertka" 697.004 380 basechar 0
AnchorPoint: "Flexion" 507.85 640 basechar 0
AnchorPoint: "Podtinka" -8.81641 -50 basechar 0
AnchorPoint: "Zaderzhka" 711.11 460 basechar 0
AnchorPoint: "Omet" 537.898 300 basechar 0
AnchorPoint: "Tochka" 542.307 325 basechar 0
AnchorPoint: "Podchashie" 421.2 245 basechar 0
LayerCount: 2
Fore
SplineSet
620.564453125 576 m 0
 646.564453125 576 679.690429688 520 674.9296875 493 c 0
 674.752929688 492 l 2
 640.946289062 374 l 1
 639.883789062 402 628.115234375 426 604.818359375 447 c 0
 602.346679688 450 597.5234375 451 592.5234375 451 c 0
 576.5234375 451 545.87890625 436 501.764648438 407 c 0
 457.651367188 378 412.65625 344 365.956054688 306 c 0
 265.96875 221 170.98046875 136 80.4638671875 48 c 1
 30 0 l 1
 95.9658203125 238 l 1
 71.673828125 225 52.67578125 208 40.1494140625 188 c 1
 69.134765625 290 l 1
 81.3662109375 314 103.364257812 331 124.951171875 340 c 1
 163.63671875 480 l 1
 165.813476562 481 l 1
 182.926757812 510 226.569335938 542 255.861328125 555 c 2
 275.448242188 564 l 1
 246.405273438 456 l 1
 242.405273438 456 232.875976562 453 216.818359375 447 c 0
 201.759765625 441 184.8203125 430 168.823242188 413 c 1
 98.5654296875 162 l 1
 217.900390625 283 349.649414062 395 493.810546875 498 c 0
 564.979492188 550 607.564453125 576 620.564453125 576 c 0
EndSplineSet
Position2: "Advance neume with cinnabar mark-1" dx=200 dy=35 dh=0 dv=0
Colour: ffc259
EndChar

StartChar: uniEE84
Encoding: 61060 61060 106
Width: 625
VWidth: 0
GlyphClass: 2
Flags: HW
HStem: 0 21G<31.8692 33 228.89 242.5> 451 125<479.474 545.206>
AnchorPoint: "FinalPitch" 797.898 300 basechar 0
AnchorPoint: "Auxiliary" 406.062 800 basechar 0
AnchorPoint: "Kachka" 541.955 720 basechar 0
AnchorPoint: "PitchMark" 229.902 680 basechar 0
AnchorPoint: "Lomka" 566.449 150 basechar 0
AnchorPoint: "Tikhaya" 65.2412 370 basechar 0
AnchorPoint: "Borzaya" 240.531 400 basechar 0
AnchorPoint: "Zevok" 691.715 350 basechar 0
AnchorPoint: "Kupnaya" 41.1836 -50 basechar 0
AnchorPoint: "Podvertka" 697.004 380 basechar 0
AnchorPoint: "Flexion" 507.85 640 basechar 0
AnchorPoint: "Podtinka" -8.81641 -50 basechar 0
AnchorPoint: "TonalRange" 531.376 660 basechar 0
AnchorPoint: "Zaderzhka" 711.11 460 basechar 0
AnchorPoint: "Omet" 567.898 300 basechar 0
AnchorPoint: "Tochka" 572.307 325 basechar 0
AnchorPoint: "Podchashie" 403.225 75 basechar 0
LayerCount: 2
Fore
SplineSet
620.564453125 576 m 0
 633.564453125 576 645.80078125 566 660.098632812 545 c 0
 673.571289062 525 677.57421875 508 675.10546875 494 c 0
 674.9296875 493 674.9296875 493 674.752929688 492 c 1
 640.946289062 374 l 1
 639.883789062 402 628.115234375 426 604.818359375 447 c 0
 602.346679688 450 597.5234375 451 592.5234375 451 c 0
 591.5234375 451 l 0
 574.5234375 451 547.407226562 439 510.999023438 414 c 0
 461.180664062 381 406.951171875 340 347.134765625 290 c 0
 287.318359375 240 222.091796875 182 150.454101562 116 c 0
 78.81640625 50 37.939453125 11 30 0 c 1
 58.8671875 107 l 1
 69.51171875 122 102.68359375 157 157.380859375 212 c 0
 276.541015625 332 351.825195312 396 493.810546875 498 c 0
 565.979492188 550 607.564453125 576 620.564453125 576 c 0
261.5703125 128 m 1
 293.326171875 189 357.736328125 197 357.736328125 197 c 1
 325.872070312 73 l 1
 325.872070312 73 269.28515625 64 227.176757812 1 c 1
 261.5703125 128 l 1
412.552734375 247 m 1
 444.30859375 308 508.719726562 316 508.719726562 316 c 1
 476.854492188 192 l 1
 476.854492188 192 420.267578125 183 378.159179688 120 c 1
 412.552734375 247 l 1
EndSplineSet
Position2: "Advance neume with cinnabar mark-1" dx=200 dy=35 dh=0 dv=0
Colour: ffc259
EndChar

StartChar: uniEE8C
Encoding: 61068 61068 107
Width: 752
VWidth: 0
GlyphClass: 2
Flags: HW
HStem: -4 47<153.416 216.758> 3 73<578 635.7> 322 81<483.486 609.356> 329 75<150.465 265.879>
VStem: 20 71<115.362 264.116> 668 64<109.396 265.284>
AnchorPoint: "FinalPitch" 913.792 220 basechar 0
AnchorPoint: "Lomka" 566.449 150 basechar 0
AnchorPoint: "Tikhaya" -5.29004 -30 basechar 0
AnchorPoint: "Borzaya" 26.4492 150 basechar 0
AnchorPoint: "Zevok" 50 0 basechar 0
AnchorPoint: "Kachka" 166.376 660 basechar 0
AnchorPoint: "Kupnaya" 41.1836 -50 basechar 0
AnchorPoint: "Auxiliary" 381.376 660 basechar 0
AnchorPoint: "Podvertka" 200 0 basechar 0
AnchorPoint: "Flexion" 507.85 640 basechar 0
AnchorPoint: "Podtinka" -8.81641 -50 basechar 0
AnchorPoint: "TonalRange" 531.376 660 basechar 0
AnchorPoint: "Tochka" 817.307 325 basechar 0
AnchorPoint: "Zaderzhka" 8.84082 -120 basechar 0
AnchorPoint: "Omet" 293.163 500 basechar 0
AnchorPoint: "Podchashie" 400 0 basechar 0
AnchorPoint: "PitchMark" 162.27 580 basechar 0
LayerCount: 2
Fore
SplineSet
439.4296875 286 m 1x9c
 481.598632812 338 554.059570312 403 630.059570312 403 c 0
 685.059570312 403 723.533203125 383 746.303710938 342 c 0
 769.07421875 301 776.787109375 254 767.618164062 202 c 0
 758.44921875 150 732.337890625 104 690.28515625 64 c 0
 648.231445312 24 608.529296875 3 571.529296875 3 c 1
 591.400390625 76 l 1
 608.400390625 76 626.106445312 80 645.516601562 88 c 0
 680.162109375 103 692.685546875 140 700.444335938 184 c 0
 711.552734375 247 692.134765625 290 641.190429688 313 c 0
 628.248046875 319 612.77734375 322 593.77734375 322 c 0x6c
 575.77734375 322 552.54296875 315 524.8984375 300 c 0
 480.666015625 276 438.7890625 237 400.444335938 184 c 1
 390.615234375 219 350.016601562 295 305.719726562 316 c 0
 288.129882812 324 276.01171875 329 266.01171875 329 c 0
 256.01171875 329 247.834960938 328 240.482421875 326 c 0
 205.190429688 313 174.958984375 289 151.610351562 253 c 0
 136.731445312 231 128.205078125 211 125.20703125 194 c 0
 122.209960938 177 121.741210938 163 123.625 151 c 0
 130.985351562 102 160.58203125 43 217.58203125 43 c 0
 227.58203125 43 235.111328125 46 236.171875 35 c 0
 237.11328125 29 234.231445312 24 227.703125 21 c 0
 206.939453125 11 155.294921875 -4 129.294921875 -4 c 0
 82.294921875 -4 57.05078125 57 51.2802734375 98 c 0
 47.3935546875 127 46.44921875 150 49.623046875 168 c 0
 67.255859375 268 110.421875 337 180.298828125 376 c 0
 212.649414062 395 243.236328125 404 272.236328125 404 c 0
 349.236328125 404 405.359375 365 439.4296875 286 c 1x9c
EndSplineSet
Position2: "Advance neume with cinnabar mark-1" dx=200 dy=35 dh=0 dv=0
Colour: ffc259
EndChar

StartChar: uniEE8E
Encoding: 61070 61070 108
Width: 440
VWidth: 0
GlyphClass: 2
Flags: HW
HStem: 454 21G<302.5 307.5> 545 117<210.931 296.442>
VStem: 183 19<492.423 522.491> 298 27<462.636 537.411>
AnchorPoint: "FinalPitch" 660.266 200 basechar 0
AnchorPoint: "Kachka" 147.608 270 basechar 0
AnchorPoint: "Zaderzhka" 186.992 465 basechar 0
AnchorPoint: "Lomka" 566.449 150 basechar 0
AnchorPoint: "Tikhaya" 35.2656 200 basechar 0
AnchorPoint: "Borzaya" 26.4492 150 basechar 0
AnchorPoint: "Zevok" 50 0 basechar 0
AnchorPoint: "Kupnaya" 41.1836 -50 basechar 0
AnchorPoint: "Auxiliary" 248.719 730 basechar 0
AnchorPoint: "Podvertka" 454.71 -30 basechar 0
AnchorPoint: "Flexion" 507.85 640 basechar 0
AnchorPoint: "Podtinka" -17.6328 -100 basechar 0
AnchorPoint: "TonalRange" 531.376 660 basechar 0
AnchorPoint: "Tochka" 507.307 325 basechar 0
AnchorPoint: "Omet" 293.163 500 basechar 0
AnchorPoint: "Podchashie" 154.71 -30 basechar 0
AnchorPoint: "PitchMark" 102.27 580 basechar 0
LayerCount: 2
Fore
SplineSet
377.728515625 662 m 2
 430.728515625 662 432.735351562 611 421.626953125 548 c 0
 417.571289062 525 409.458007812 496 396.287109375 461 c 0
 394.405273438 456 390.052734375 454 385.052734375 454 c 0
 380.052734375 454 378.934570312 459 380.16796875 466 c 0
 381.754882812 475 387.047851562 488 388.282226562 495 c 0
 388.810546875 498 388.810546875 498 389.33984375 501 c 0
 394.100585938 528 383.569335938 542 357.098632812 545 c 1
 351.098632812 545 l 2
 322.098632812 545 302.629882812 531 290.692382812 503 c 0
 288.634765625 497 281.752929688 492 276.752929688 492 c 0
 272.752929688 492 270.282226562 495 271.692382812 503 c 0
 288.50390625 587 308.728515625 662 376.728515625 662 c 2
 377.728515625 662 l 2
322.211914062 160 m 1
 428.9296875 79 l 1
 397.888671875 -46 l 1
 291.171875 35 l 1
 322.211914062 160 l 1
340.53125 400 m 1
 447.248046875 319 l 1
 416.20703125 194 l 1
 309.490234375 275 l 1
 340.53125 400 l 1
166.48046875 343 m 1
 175.654296875 361 190.475585938 377 210.767578125 390 c 0
 231.059570312 403 249.646484375 412 265.3515625 416 c 2
 289.5859375 423 l 1
 257.721679688 299 l 1
 201.724609375 282 163.374023438 263 132.262695312 217 c 1
 166.48046875 343 l 1
57.3408203125 87 m 1
 66.5146484375 105 81.3359375 121 101.627929688 134 c 0
 121.919921875 147 140.506835938 156 156.211914062 160 c 2
 180.446289062 167 l 1
 148.58203125 43 l 1
 92.5849609375 26 54.234375 7 23.123046875 -39 c 1
 57.3408203125 87 l 1
EndSplineSet
LCarets2: 1 229
Position2: "Advance neume with cinnabar mark-1" dx=200 dy=35 dh=0 dv=0
Colour: ffc259
EndChar

StartChar: uniEE8F
Encoding: 61071 61071 109
Width: 240
VWidth: 0
GlyphClass: 2
Flags: HW
VStem: 30 185
AnchorPoint: "FinalPitch" 400.266 200 basechar 0
AnchorPoint: "Kachka" 147.608 270 basechar 0
AnchorPoint: "Zaderzhka" 186.992 465 basechar 0
AnchorPoint: "Lomka" 566.449 150 basechar 0
AnchorPoint: "Tikhaya" 35.2656 200 basechar 0
AnchorPoint: "Borzaya" 26.4492 150 basechar 0
AnchorPoint: "Zevok" 358.163 500 basechar 0
AnchorPoint: "Kupnaya" 41.1836 -50 basechar 0
AnchorPoint: "Podchashie" 190 0 basechar 0
AnchorPoint: "Auxiliary" 298.139 670 basechar 0
AnchorPoint: "Podvertka" 220 0 basechar 0
AnchorPoint: "Flexion" 507.85 640 basechar 0
AnchorPoint: "Podtinka" -17.6328 -100 basechar 0
AnchorPoint: "TonalRange" 531.376 660 basechar 0
AnchorPoint: "Tochka" 322.307 325 basechar 0
AnchorPoint: "Omet" 293.163 500 basechar 0
AnchorPoint: "PitchMark" 155.796 600 basechar 0
LayerCount: 2
Fore
SplineSet
166.48046875 343 m 1
 175.654296875 361 190.475585938 377 210.767578125 390 c 0
 231.059570312 403 249.646484375 412 265.3515625 416 c 2
 289.5859375 423 l 1
 257.721679688 299 l 1
 234.487304688 292 217.4296875 286 189.608398438 270 c 0
 167.31640625 257 147.318359375 240 132.262695312 217 c 1
 166.48046875 343 l 1
57.3408203125 87 m 1
 66.5146484375 105 81.3359375 121 101.627929688 134 c 0
 121.919921875 147 140.506835938 156 156.211914062 160 c 2
 180.446289062 167 l 1
 148.58203125 43 l 1
 125.34765625 36 108.290039062 30 80.46875 14 c 0
 58.1767578125 1 38.1787109375 -16 23.123046875 -39 c 1
 57.3408203125 87 l 1
EndSplineSet
Position2: "Advance neume with cinnabar mark-1" dx=200 dy=35 dh=0 dv=0
Colour: ffc259
EndChar

StartChar: uniEE8D
Encoding: 61069 61069 110
Width: 200
VWidth: 0
GlyphClass: 2
Flags: HW
VStem: 23 154
AnchorPoint: "FinalPitch" 400.266 200 basechar 0
AnchorPoint: "Podvertka" 220.29 30 basechar 0
AnchorPoint: "Kachka" 147.608 270 basechar 0
AnchorPoint: "Lomka" 566.449 150 basechar 0
AnchorPoint: "Tikhaya" 35.2656 200 basechar 0
AnchorPoint: "Zaderzhka" 251.739 180 basechar 0
AnchorPoint: "Borzaya" 26.4492 150 basechar 0
AnchorPoint: "Zevok" 50 0 basechar 0
AnchorPoint: "Kupnaya" 41.1836 -50 basechar 0
AnchorPoint: "Auxiliary" 381.376 660 basechar 0
AnchorPoint: "Flexion" 507.85 640 basechar 0
AnchorPoint: "Podtinka" -8.81641 -50 basechar 0
AnchorPoint: "TonalRange" 531.376 660 basechar 0
AnchorPoint: "Tochka" 267.307 325 basechar 0
AnchorPoint: "Omet" 293.163 500 basechar 0
AnchorPoint: "Podchashie" 94.71 -30 basechar 0
AnchorPoint: "PitchMark" 48.1631 500 basechar 0
LayerCount: 2
Fore
SplineSet
129.33203125 552 m 1
 257.228515625 455 l 1
 229.008789062 346 l 1
 101.11328125 443 l 1
 129.33203125 552 l 1
64.4443359375 184 m 1
 192.340820312 87 l 1
 164.12109375 -22 l 1
 36.224609375 75 l 1
 64.4443359375 184 l 1
96.888671875 368 m 1
 224.784179688 271 l 1
 196.565429688 162 l 1
 68.6689453125 259 l 1
 96.888671875 368 l 1
EndSplineSet
Position2: "Advance neume with cinnabar mark-1" dx=200 dy=35 dh=0 dv=0
Colour: ffc259
EndChar

StartChar: uniEE8A
Encoding: 61066 61066 111
Width: 240
VWidth: 0
GlyphClass: 2
Flags: HW
HStem: -4 112<124.008 169.548>
VStem: 68 49<48.5 209.314> 117 52<367.678 508> 117 36<360.356 425.472>
AnchorPoint: "FinalPitch" 453.792 220 basechar 0
AnchorPoint: "Lomka" 566.449 150 basechar 0
AnchorPoint: "Tikhaya" -5.29004 -30 basechar 0
AnchorPoint: "Borzaya" 26.4492 150 basechar 0
AnchorPoint: "Zevok" 50 0 basechar 0
AnchorPoint: "Kachka" 166.376 660 basechar 0
AnchorPoint: "Kupnaya" 41.1836 -50 basechar 0
AnchorPoint: "Auxiliary" 381.376 660 basechar 0
AnchorPoint: "Podvertka" 200 0 basechar 0
AnchorPoint: "Flexion" 507.85 640 basechar 0
AnchorPoint: "Podtinka" -8.81641 -50 basechar 0
AnchorPoint: "TonalRange" 531.376 660 basechar 0
AnchorPoint: "Tochka" 307.307 325 basechar 0
AnchorPoint: "Zaderzhka" 8.84082 -120 basechar 0
AnchorPoint: "Omet" 293.163 500 basechar 0
AnchorPoint: "Podchashie" 94.71 -30 basechar 0
AnchorPoint: "PitchMark" 48.1631 500 basechar 0
LayerCount: 2
Fore
SplineSet
217.508789062 553 m 0xa0
 252.274414062 546 261.748046875 526 255.400390625 490 c 0xa0
 250.287109375 461 237.705078125 418 216.477539062 360 c 1x90
 221.654296875 361 225.830078125 362 231.006835938 363 c 2
 264.064453125 369 l 1
 232.200195312 245 l 1
 206.495117188 241 185.61328125 236 168.555664062 230 c 1
 158.970703125 204 150.678710938 191 146.446289062 167 c 0
 140.098632812 131 147.04296875 108 175.04296875 108 c 0
 183.04296875 108 193.924804688 113 205.688476562 123 c 0
 217.451171875 133 229.096679688 148 241.798828125 169 c 0
 246.209960938 177 259.091796875 182 253.975585938 170 c 0
 239.98046875 136 225.575195312 94 208.28515625 64 c 0
 204.2265625 58 198.993164062 51 193.405273438 42 c 0
 181.231445312 24 154.294921875 -4 131.294921875 -4 c 0
 77.294921875 -4 71.5263671875 20 81.5771484375 77 c 0xc0
 85.9853515625 102 100.919921875 147 125.205078125 211 c 1
 98.9130859375 198 80.091796875 182 68.09375 165 c 1
 102.311523438 291 l 1
 113.013671875 312 137.1875 330 176.008789062 346 c 1
 178.94921875 357 181.536132812 366 183.123046875 375 c 0
 189.999023438 414 181.349609375 433 150.349609375 433 c 0
 129.349609375 433 109.705078125 418 92.5908203125 389 c 0
 88.533203125 383 85.00390625 380 81.00390625 380 c 0
 80.00390625 380 79.533203125 383 80.4150390625 388 c 0
 81.296875 393 89.470703125 411 103.759765625 441 c 0
 130.634765625 497 130.458007812 496 162.805664062 532 c 0
 175.274414062 546 190.508789062 553 207.508789062 553 c 0
 212.508789062 553 212.508789062 553 217.508789062 553 c 0xa0
EndSplineSet
Position2: "Advance neume with cinnabar mark-1" dx=200 dy=35 dh=0 dv=0
Colour: ffc259
EndChar

StartChar: uniEE8B
Encoding: 61067 61067 112
Width: 230
VWidth: 0
GlyphClass: 2
Flags: HW
VStem: 31 40<290 399.582> 155 40<118.412 215>
AnchorPoint: "FinalPitch" 453.792 220 basechar 0
AnchorPoint: "Lomka" 566.449 150 basechar 0
AnchorPoint: "Tikhaya" -5.29004 -30 basechar 0
AnchorPoint: "Borzaya" 26.4492 150 basechar 0
AnchorPoint: "Zevok" 50 0 basechar 0
AnchorPoint: "Kachka" 166.376 660 basechar 0
AnchorPoint: "Kupnaya" 41.1836 -50 basechar 0
AnchorPoint: "Auxiliary" 381.376 660 basechar 0
AnchorPoint: "Podvertka" 200 0 basechar 0
AnchorPoint: "Flexion" 507.85 640 basechar 0
AnchorPoint: "Podtinka" -8.81641 -50 basechar 0
AnchorPoint: "TonalRange" 531.376 660 basechar 0
AnchorPoint: "Tochka" 297.307 325 basechar 0
AnchorPoint: "Zaderzhka" 8.84082 -120 basechar 0
AnchorPoint: "Omet" 293.163 500 basechar 0
AnchorPoint: "Podchashie" 94.71 -30 basechar 0
AnchorPoint: "PitchMark" 48.1631 500 basechar 0
LayerCount: 2
Fore
SplineSet
208.216796875 540 m 0
 210.216796875 540 215.453125 530 223.57421875 508 c 0
 231.6953125 486 239.700195312 452 245.412109375 405 c 0
 251.125 358 249.661132812 310 240.844726562 260 c 0
 232.028320312 210 216.388671875 161 194.1015625 114 c 0
 171.813476562 67 152.642578125 32 134.763671875 10 c 2
 108.944335938 -23 l 1
 107.473632812 -20 105.35546875 -15 102.236328125 -10 c 0
 89.998046875 17 79.345703125 53 71.6328125 100 c 0
 63.919921875 147 65.9130859375 198 75.4345703125 252 c 0
 84.9560546875 306 100.94921875 357 123.236328125 404 c 0
 145.5234375 451 165.6953125 486 181.57421875 508 c 0
 197.453125 530 206.216796875 540 208.216796875 540 c 0
117.560546875 196 m 1
 123.388671875 161 136.922851562 130 158.337890625 104 c 1
 172.041015625 125 183.565429688 162 192.91015625 215 c 1
 167.380859375 212 142.147460938 205 117.560546875 196 c 1
200.366210938 314 m 1
 195.538085938 349 181.356445312 382 158.823242188 413 c 1
 144.415039062 388 132.538085938 349 123.192382812 296 c 2
 122.134765625 290 l 1
 143.250976562 302 169.661132812 310 200.366210938 314 c 1
EndSplineSet
Position2: "Advance neume with cinnabar mark-1" dx=200 dy=35 dh=0 dv=0
Colour: ffc259
EndChar

StartChar: uniEE73
Encoding: 61043 61043 113
Width: 625
VWidth: 0
GlyphClass: 2
Flags: HW
HStem: 0 21G<32.0417 47.0833> 451 125<478.289 544.923>
AnchorPoint: "FinalPitch" 797.898 300 basechar 0
AnchorPoint: "Auxiliary" 446.062 800 basechar 0
AnchorPoint: "TonalRange" 584.902 680 basechar 0
AnchorPoint: "PitchMark" 265.771 770 basechar 0
AnchorPoint: "Lomka" 566.449 150 basechar 0
AnchorPoint: "Tikhaya" 65.2412 370 basechar 0
AnchorPoint: "Borzaya" 26.4492 150 basechar 0
AnchorPoint: "Zevok" 691.715 350 basechar 0
AnchorPoint: "Kupnaya" 41.1836 -50 basechar 0
AnchorPoint: "Kachka" 47.6084 270 basechar 0
AnchorPoint: "Podvertka" 697.004 380 basechar 0
AnchorPoint: "Flexion" 507.85 640 basechar 0
AnchorPoint: "Podtinka" -8.81641 -50 basechar 0
AnchorPoint: "Zaderzhka" 711.11 460 basechar 0
AnchorPoint: "Omet" 537.898 300 basechar 0
AnchorPoint: "Tochka" 542.307 325 basechar 0
AnchorPoint: "Podchashie" 421.2 245 basechar 0
LayerCount: 2
Fore
SplineSet
620.564453125 576 m 0
 645.564453125 576 679.690429688 520 675.10546875 494 c 0
 674.9296875 493 674.9296875 493 674.752929688 492 c 2
 640.946289062 374 l 1
 639.883789062 402 628.115234375 426 604.818359375 447 c 0
 602.346679688 450 597.5234375 451 592.5234375 451 c 0
 576.5234375 451 545.87890625 436 501.764648438 407 c 0
 405.65625 344 264.497070312 224 79.4638671875 48 c 1
 30 0 l 1
 163.63671875 480 l 1
 192.458007812 496 l 1
 98.5654296875 162 l 1
 148.557617188 213 211.9609375 272 290.774414062 339 c 1
 355.740234375 577 l 1
 380.151367188 585 l 1
 319.182617188 364 l 1
 338.00390625 380 359.001953125 397 381.17578125 415 c 1
 430.561523438 593 l 1
 454.97265625 601 l 1
 410.0546875 437 l 1
 435.581054688 457 463.108398438 477 493.810546875 498 c 0
 564.979492188 550 607.564453125 576 620.564453125 576 c 0
EndSplineSet
Position2: "Advance neume with cinnabar mark-1" dx=200 dy=35 dh=0 dv=0
Colour: ffc259
EndChar

StartChar: uniEE9B
Encoding: 61083 61083 114
Width: 790
VWidth: 0
GlyphClass: 2
Flags: HW
HStem: 0 21G<196.869 198 446.046 466> 451 125<644.474 710.206>
AnchorPoint: "PitchMark" 211.69 520 basechar 0
AnchorPoint: "Auxiliary" 591.062 800 basechar 0
AnchorPoint: "FinalPitch" 918.719 730 basechar 0
AnchorPoint: "Kachka" 581.376 660 basechar 0
AnchorPoint: "Lomka" -313.551 150 basechar 0
AnchorPoint: "Tikhaya" 17.6328 100 basechar 0
AnchorPoint: "Borzaya" 26.4492 150 basechar 0
AnchorPoint: "Zevok" 861.715 350 basechar 0
AnchorPoint: "Kupnaya" 41.1836 -50 basechar 0
AnchorPoint: "Podvertka" 867.004 380 basechar 0
AnchorPoint: "Flexion" 667.85 640 basechar 0
AnchorPoint: "Podtinka" -24.6855 -140 basechar 0
AnchorPoint: "TonalRange" 691.376 660 basechar 0
AnchorPoint: "Zaderzhka" 881.11 460 basechar 0
AnchorPoint: "Omet" 707.898 300 basechar 0
AnchorPoint: "Tochka" 712.307 325 basechar 0
AnchorPoint: "Podchashie" 622.266 200 basechar 0
LayerCount: 2
Fore
SplineSet
785.564453125 576 m 0
 798.564453125 576 810.80078125 566 825.098632812 545 c 0
 838.571289062 525 842.57421875 508 840.10546875 494 c 0
 839.9296875 493 839.9296875 493 839.752929688 492 c 2
 805.946289062 374 l 1
 804.883789062 402 793.115234375 426 769.818359375 447 c 0
 767.346679688 450 762.5234375 451 757.5234375 451 c 2
 756.5234375 451 l 2
 739.5234375 451 712.407226562 439 675.999023438 414 c 0
 638.590820312 389 598.477539062 360 555.482421875 326 c 1
 467.057617188 6 l 1
 444 0 l 1
 528.426757812 303 l 1
 522.721679688 299 518.016601562 295 512.134765625 290 c 0
 452.318359375 240 387.091796875 182 315.454101562 116 c 0
 243.81640625 50 202.939453125 11 195 0 c 1
 223.8671875 107 l 1
 234.51171875 122 267.68359375 157 322.380859375 212 c 0
 441.541015625 332 516.825195312 396 658.810546875 498 c 0
 730.979492188 550 772.564453125 576 785.564453125 576 c 0
40.4130859375 -9 m 1
 72.1689453125 52 163.51953125 71 163.51953125 71 c 1
 131.654296875 -53 l 1
 131.654296875 -53 48.3046875 -72 6.1962890625 -135 c 1
 40.4130859375 -9 l 1
149.552734375 247 m 1
 181.30859375 308 272.659179688 327 272.659179688 327 c 1
 240.793945312 203 l 1
 240.793945312 203 157.444335938 184 115.3359375 121 c 1
 149.552734375 247 l 1
EndSplineSet
Position2: "Advance neume with cinnabar mark-1" dx=200 dy=35 dh=0 dv=0
Colour: ffc259
EndChar

StartChar: uniEE9C
Encoding: 61084 61084 115
Width: 790
VWidth: 0
GlyphClass: 2
Flags: HW
HStem: 0 21G<196.869 198> 451 125<644.474 710.206>
AnchorPoint: "PitchMark" 211.69 520 basechar 0
AnchorPoint: "Auxiliary" 591.062 800 basechar 0
AnchorPoint: "FinalPitch" 957.898 300 basechar 0
AnchorPoint: "Kachka" 581.376 660 basechar 0
AnchorPoint: "Lomka" 731.449 150 basechar 0
AnchorPoint: "Tikhaya" 17.6328 100 basechar 0
AnchorPoint: "Borzaya" 26.4492 150 basechar 0
AnchorPoint: "Zevok" 861.715 350 basechar 0
AnchorPoint: "Kupnaya" 41.1836 -50 basechar 0
AnchorPoint: "Podvertka" 867.004 380 basechar 0
AnchorPoint: "Flexion" 667.85 640 basechar 0
AnchorPoint: "Podtinka" -24.6855 -140 basechar 0
AnchorPoint: "TonalRange" 691.376 660 basechar 0
AnchorPoint: "Zaderzhka" 881.11 460 basechar 0
AnchorPoint: "Omet" 707.898 300 basechar 0
AnchorPoint: "Tochka" 712.307 325 basechar 0
AnchorPoint: "Podchashie" 481.065 -45 basechar 0
LayerCount: 2
Fore
SplineSet
149.552734375 247 m 1
 181.30859375 308 272.659179688 327 272.659179688 327 c 1
 240.793945312 203 l 1
 240.793945312 203 157.444335938 184 115.3359375 121 c 1
 149.552734375 247 l 1
40.4130859375 -9 m 1
 72.1689453125 52 163.51953125 71 163.51953125 71 c 1
 131.654296875 -53 l 1
 131.654296875 -53 48.3046875 -72 6.1962890625 -135 c 1
 40.4130859375 -9 l 1
785.564453125 576 m 0
 798.564453125 576 810.80078125 566 825.098632812 545 c 0
 838.571289062 525 842.57421875 508 840.10546875 494 c 0
 839.9296875 493 839.9296875 493 839.752929688 492 c 1
 805.946289062 374 l 1
 804.883789062 402 793.115234375 426 769.818359375 447 c 0
 767.346679688 450 762.5234375 451 757.5234375 451 c 0
 756.5234375 451 l 0
 739.5234375 451 712.407226562 439 675.999023438 414 c 0
 626.180664062 381 571.951171875 340 512.134765625 290 c 0
 452.318359375 240 387.091796875 182 315.454101562 116 c 0
 243.81640625 50 202.939453125 11 195 0 c 1
 223.8671875 107 l 1
 234.51171875 122 267.68359375 157 322.380859375 212 c 0
 441.541015625 332 516.825195312 396 658.810546875 498 c 0
 730.979492188 550 772.564453125 576 785.564453125 576 c 0
521.287109375 47 m 1
 504.001953125 -17 483.130859375 -90 483.130859375 -90 c 1
 460.072265625 -96 l 1
 494.995117188 34 l 1
 472.87890625 22 451.881835938 5 437.001953125 -17 c 1
 471.395507812 110 l 1
 483.451171875 133 506.44921875 150 530.565429688 162 c 1
 552.84765625 243 l 1
 577.2578125 251 l 1
 565.67578125 208 567.439453125 218 555.680664062 174 c 1
 585.796875 186 610.501953125 190 610.501953125 190 c 1
 578.637695312 66 l 1
 578.637695312 66 552.580078125 60 521.287109375 47 c 1
EndSplineSet
Position2: "Advance neume with cinnabar mark-1" dx=200 dy=35 dh=0 dv=0
Colour: ffc259
EndChar

StartChar: uniEE91
Encoding: 61073 61073 116
Width: 365
VWidth: 0
GlyphClass: 2
Flags: HW
HStem: 0 21G<240 260>
VStem: 30 309
AnchorPoint: "FinalPitch" 527.318 240 basechar 0
AnchorPoint: "Kachka" 147.608 270 basechar 0
AnchorPoint: "Zaderzhka" 186.992 465 basechar 0
AnchorPoint: "Lomka" 566.449 150 basechar 0
AnchorPoint: "Tikhaya" 35.2656 200 basechar 0
AnchorPoint: "Borzaya" 26.4492 150 basechar 0
AnchorPoint: "Zevok" 140 0 basechar 0
AnchorPoint: "Kupnaya" 41.1836 -50 basechar 0
AnchorPoint: "Podchashie" 190 0 basechar 0
AnchorPoint: "Auxiliary" 298.139 670 basechar 0
AnchorPoint: "Podvertka" 220 0 basechar 0
AnchorPoint: "Flexion" 507.85 640 basechar 0
AnchorPoint: "Podtinka" -17.6328 -100 basechar 0
AnchorPoint: "TonalRange" 531.376 660 basechar 0
AnchorPoint: "Tochka" 432.307 325 basechar 0
AnchorPoint: "Omet" 293.163 500 basechar 0
AnchorPoint: "PitchMark" 162.27 580 basechar 0
LayerCount: 2
Fore
SplineSet
166.48046875 343 m 1
 198.236328125 404 289.5859375 423 289.5859375 423 c 1
 257.721679688 299 l 1
 257.721679688 299 174.37109375 280 132.262695312 217 c 1
 166.48046875 343 l 1
57.3408203125 87 m 1
 89.0966796875 148 180.446289062 167 180.446289062 167 c 1
 148.58203125 43 l 1
 148.58203125 43 65.2314453125 24 23.123046875 -39 c 1
 57.3408203125 87 l 1
299.21484375 143 m 1
 281.9296875 79 261.057617188 6 261.057617188 6 c 1
 238 0 l 1
 273.922851562 130 l 1
 251.806640625 118 229.80859375 101 214.9296875 79 c 1
 249.323242188 206 l 1
 261.37890625 229 284.375976562 246 308.4921875 258 c 1
 330.774414062 339 l 1
 355.185546875 347 l 1
 343.603515625 304 345.366210938 314 333.608398438 270 c 1
 363.724609375 282 389.4296875 286 389.4296875 286 c 1
 356.565429688 162 l 1
 356.565429688 162 330.506835938 156 299.21484375 143 c 1
EndSplineSet
Position2: "Advance neume with cinnabar mark-1" dx=200 dy=35 dh=0 dv=0
Colour: ffc259
EndChar

StartChar: uniEE9A
Encoding: 61082 61082 117
Width: 790
VWidth: 0
GlyphClass: 2
Flags: HW
HStem: 0 21G<196.869 198> 451 125<644.474 710.206>
AnchorPoint: "PitchMark" 211.69 520 basechar 0
AnchorPoint: "Auxiliary" 591.062 800 basechar 0
AnchorPoint: "FinalPitch" 957.898 300 basechar 0
AnchorPoint: "Kachka" 581.376 660 basechar 0
AnchorPoint: "Lomka" 731.449 150 basechar 0
AnchorPoint: "Tikhaya" 17.6328 100 basechar 0
AnchorPoint: "Borzaya" 612.343 70 basechar 0
AnchorPoint: "Zevok" 861.715 350 basechar 0
AnchorPoint: "Kupnaya" 41.1836 -50 basechar 0
AnchorPoint: "Podvertka" 867.004 380 basechar 0
AnchorPoint: "Flexion" 667.85 640 basechar 0
AnchorPoint: "Podtinka" -24.6855 -140 basechar 0
AnchorPoint: "TonalRange" 691.376 660 basechar 0
AnchorPoint: "Zaderzhka" 881.11 460 basechar 0
AnchorPoint: "Omet" 707.898 300 basechar 0
AnchorPoint: "Tochka" 712.307 325 basechar 0
AnchorPoint: "Podchashie" 586.2 245 basechar 0
LayerCount: 2
Fore
SplineSet
149.552734375 247 m 1
 181.30859375 308 272.659179688 327 272.659179688 327 c 1
 240.793945312 203 l 1
 240.793945312 203 157.444335938 184 115.3359375 121 c 1
 149.552734375 247 l 1
40.4130859375 -9 m 1
 72.1689453125 52 163.51953125 71 163.51953125 71 c 1
 131.654296875 -53 l 1
 131.654296875 -53 48.3046875 -72 6.1962890625 -135 c 1
 40.4130859375 -9 l 1
785.564453125 576 m 0
 798.564453125 576 810.80078125 566 825.098632812 545 c 0
 838.571289062 525 842.57421875 508 840.10546875 494 c 0
 839.9296875 493 839.9296875 493 839.752929688 492 c 1
 805.946289062 374 l 1
 804.883789062 402 793.115234375 426 769.818359375 447 c 0
 767.346679688 450 762.5234375 451 757.5234375 451 c 0
 756.5234375 451 l 0
 739.5234375 451 712.407226562 439 675.999023438 414 c 0
 626.180664062 381 571.951171875 340 512.134765625 290 c 0
 452.318359375 240 387.091796875 182 315.454101562 116 c 0
 243.81640625 50 202.939453125 11 195 0 c 1
 223.8671875 107 l 1
 234.51171875 122 267.68359375 157 322.380859375 212 c 0
 441.541015625 332 516.825195312 396 658.810546875 498 c 0
 730.979492188 550 772.564453125 576 785.564453125 576 c 0
EndSplineSet
Position2: "Advance neume with cinnabar mark-1" dx=200 dy=35 dh=0 dv=0
Colour: ffc259
EndChar

StartChar: uniEE93
Encoding: 61075 61075 118
Width: 350
VWidth: 0
GlyphClass: 2
Flags: HW
VStem: 30 295
AnchorPoint: "FinalPitch" 550.266 200 basechar 0
AnchorPoint: "Podvertka" 380.29 30 basechar 0
AnchorPoint: "Kachka" 147.608 270 basechar 0
AnchorPoint: "Zaderzhka" 186.992 465 basechar 0
AnchorPoint: "Lomka" 446.449 150 basechar 0
AnchorPoint: "Tikhaya" 35.2656 200 basechar 0
AnchorPoint: "Borzaya" 26.4492 150 basechar 0
AnchorPoint: "Zevok" 358.163 500 basechar 0
AnchorPoint: "Kupnaya" 41.1836 -50 basechar 0
AnchorPoint: "Auxiliary" 298.139 670 basechar 0
AnchorPoint: "Flexion" 507.85 640 basechar 0
AnchorPoint: "Podtinka" -17.6328 -100 basechar 0
AnchorPoint: "TonalRange" 531.376 660 basechar 0
AnchorPoint: "Tochka" 417.307 325 basechar 0
AnchorPoint: "Omet" 293.163 500 basechar 0
AnchorPoint: "Podchashie" 314.71 -30 basechar 0
AnchorPoint: "PitchMark" 162.27 580 basechar 0
LayerCount: 2
Fore
SplineSet
283.849609375 226 m 1
 343.8671875 107 l 1
 309.473632812 -20 l 1
 249.456054688 99 l 1
 283.849609375 226 l 1
166.48046875 343 m 1
 198.236328125 404 289.5859375 423 289.5859375 423 c 1
 257.721679688 299 l 1
 257.721679688 299 174.37109375 280 132.262695312 217 c 1
 166.48046875 343 l 1
57.3408203125 87 m 1
 89.0966796875 148 180.446289062 167 180.446289062 167 c 1
 148.58203125 43 l 1
 148.58203125 43 65.2314453125 24 23.123046875 -39 c 1
 57.3408203125 87 l 1
EndSplineSet
Position2: "Advance neume with cinnabar mark-1" dx=200 dy=35 dh=0 dv=0
Colour: ffc259
EndChar

StartChar: uniEE92
Encoding: 61074 61074 119
Width: 525
VWidth: 0
GlyphClass: 2
Flags: HW
HStem: 0 21G<405 426> 137 134<232.569 297.563>
VStem: 203 10<83.7422 104.195> 304 27<10.9733 144>
AnchorPoint: "FinalPitch" 697.318 240 basechar 0
AnchorPoint: "Kachka" 147.608 270 basechar 0
AnchorPoint: "Zaderzhka" 186.992 465 basechar 0
AnchorPoint: "Lomka" 566.449 150 basechar 0
AnchorPoint: "Tikhaya" 35.2656 200 basechar 0
AnchorPoint: "Borzaya" 26.4492 150 basechar 0
AnchorPoint: "Zevok" 140 0 basechar 0
AnchorPoint: "Kupnaya" 41.1836 -50 basechar 0
AnchorPoint: "Podchashie" 190 0 basechar 0
AnchorPoint: "Auxiliary" 298.139 670 basechar 0
AnchorPoint: "Podvertka" 220 0 basechar 0
AnchorPoint: "Flexion" 507.85 640 basechar 0
AnchorPoint: "Podtinka" -17.6328 -100 basechar 0
AnchorPoint: "TonalRange" 531.376 660 basechar 0
AnchorPoint: "Tochka" 592.307 325 basechar 0
AnchorPoint: "Omet" 293.163 500 basechar 0
AnchorPoint: "PitchMark" 162.27 580 basechar 0
LayerCount: 2
Fore
SplineSet
465.21484375 143 m 1
 427.057617188 6 l 1
 403 0 l 1
 438.922851562 130 l 1
 413.629882812 117 394.6328125 100 380.9296875 79 c 1
 415.323242188 206 l 1
 426.026367188 227 446.0234375 244 474.4921875 258 c 1
 496.774414062 339 l 1
 520.185546875 347 l 1
 516.893554688 334 514.306640625 325 513.248046875 319 c 0
 509.956054688 306 505.958984375 289 499.608398438 270 c 1
 524.37109375 280 537.547851562 281 554.4296875 286 c 1
 522.565429688 162 l 1
 504.859375 158 485.801757812 152 465.21484375 143 c 1
307.649414062 -19 m 0
 305.768554688 -24 301.415039062 -26 296.415039062 -26 c 0
 292.415039062 -26 288.296875 -21 290.178710938 -16 c 0
 306.171875 35 315.990234375 68 318.458984375 82 c 0
 324.454101562 116 314.627929688 134 289.157226562 137 c 1
 283.157226562 137 l 2
 260.157226562 137 242.3359375 121 228.869140625 90 c 0
 226.98828125 85 218.400390625 76 217.634765625 83 c 0
 221.514648438 105 230.333007812 138 243.267578125 183 c 0
 260.670898438 242 286.784179688 271 321.784179688 271 c 0
 353.784179688 271 366.318359375 240 360.385742188 178 c 0
 359.09375 165 357.625 151 355.157226562 137 c 0
 346.340820312 87 330.171875 35 307.649414062 -19 c 0
166.48046875 343 m 1
 175.654296875 361 191.475585938 377 211.767578125 390 c 0
 232.059570312 403 249.646484375 412 265.3515625 416 c 2
 289.5859375 423 l 1
 257.721679688 299 l 1
 239.6640625 293 214.077148438 284 195.313476562 274 c 0
 169.668945312 259 148.318359375 240 132.262695312 217 c 1
 166.48046875 343 l 1
57.3408203125 87 m 1
 66.5146484375 105 82.3359375 121 102.627929688 134 c 0
 122.919921875 147 140.506835938 156 156.211914062 160 c 2
 180.446289062 167 l 1
 148.58203125 43 l 1
 130.524414062 37 104.9375 28 86.173828125 18 c 0
 60.529296875 3 39.1787109375 -16 23.123046875 -39 c 1
 57.3408203125 87 l 1
EndSplineSet
Position2: "Advance neume with cinnabar mark-1" dx=200 dy=35 dh=0 dv=0
Colour: ffc259
EndChar

StartChar: uniEE9E
Encoding: 61086 61086 120
Width: 950
VWidth: 0
GlyphClass: 2
Flags: HW
HStem: 0 21G<356.869 358> 65 134<60.4374 124.588> 89 134<222.437 286.588> 451 125<804.474 870.206>
VStem: 30 11<10.051 31.4036> 131 27<-61.0176 109.5> 192 11<34.051 55.4036> 293 27<-37.0176 133.5>
AnchorPoint: "FinalPitch" 1117.9 300 basechar 0
AnchorPoint: "PitchMark" 312.27 580 basechar 0
AnchorPoint: "Auxiliary" 701.062 800 basechar 0
AnchorPoint: "Lomka" 901.449 150 basechar 0
AnchorPoint: "Tikhaya" -5.29004 -30 basechar 0
AnchorPoint: "Borzaya" 26.4492 150 basechar 0
AnchorPoint: "Zevok" 1021.71 350 basechar 0
AnchorPoint: "Kupnaya" 41.1836 -50 basechar 0
AnchorPoint: "Kachka" 238.188 330 basechar 0
AnchorPoint: "Podvertka" 1027 380 basechar 0
AnchorPoint: "Flexion" 827.85 640 basechar 0
AnchorPoint: "Podtinka" -17.6328 -100 basechar 0
AnchorPoint: "TonalRange" 851.376 660 basechar 0
AnchorPoint: "Zaderzhka" 1041.11 460 basechar 0
AnchorPoint: "Omet" 857.898 300 basechar 0
AnchorPoint: "Tochka" 862.307 325 basechar 0
AnchorPoint: "Podchashie" 744.2 245 basechar 0
LayerCount: 2
Fore
SplineSet
302.321289062 223 m 0xbf
 340.321289062 223 351.385742188 178 335.693359375 89 c 0
 326.876953125 39 310.708007812 -13 288.186523438 -67 c 0
 286.3046875 -72 282.952148438 -74 277.952148438 -74 c 0
 273.952148438 -74 269.833007812 -69 271.71484375 -64 c 0
 287.001953125 -17 295.64453125 15 298.995117188 34 c 0
 304.990234375 68 295.1640625 86 270.693359375 89 c 1
 263.693359375 89 l 2
 241.693359375 89 223.872070312 73 210.405273438 42 c 0
 208.524414062 37 204.995117188 34 200.818359375 33 c 0
 197.642578125 32 196.995117188 34 198.876953125 39 c 0
 220.216796875 126 238.321289062 223 302.321289062 223 c 0xbf
136.088867188 199 m 0xdf
 174.088867188 199 185.154296875 154 169.4609375 65 c 0
 160.64453125 15 144.475585938 -37 121.954101562 -91 c 0
 120.072265625 -96 116.719726562 -98 111.719726562 -98 c 0
 107.719726562 -98 103.6015625 -93 105.483398438 -88 c 0
 120.770507812 -41 129.413085938 -9 132.763671875 10 c 0
 138.758789062 44 128.932617188 62 104.4609375 65 c 1
 97.4609375 65 l 2
 75.4609375 65 57.6396484375 49 44.173828125 18 c 0
 42.2919921875 13 38.763671875 10 34.5869140625 9 c 0
 31.41015625 8 30.763671875 10 32.64453125 15 c 0
 53.9853515625 102 72.0888671875 199 136.088867188 199 c 0xdf
945.564453125 576 m 0
 958.564453125 576 970.80078125 566 985.098632812 545 c 0
 998.571289062 525 1002.57421875 508 1000.10546875 494 c 0
 999.9296875 493 999.9296875 493 999.752929688 492 c 1
 965.946289062 374 l 1
 964.883789062 402 953.115234375 426 929.818359375 447 c 0
 927.346679688 450 922.5234375 451 917.5234375 451 c 0
 916.5234375 451 l 0
 899.5234375 451 872.407226562 439 835.999023438 414 c 0
 786.180664062 381 731.951171875 340 672.134765625 290 c 0
 612.318359375 240 547.091796875 182 475.454101562 116 c 0
 403.81640625 50 362.939453125 11 355 0 c 1
 383.8671875 107 l 1
 394.51171875 122 427.68359375 157 482.380859375 212 c 0
 601.541015625 332 676.825195312 396 818.810546875 498 c 0
 890.979492188 550 932.564453125 576 945.564453125 576 c 0
EndSplineSet
Position2: "Advance neume with cinnabar mark-1" dx=200 dy=35 dh=0 dv=0
Colour: ffc259
EndChar

StartChar: uniEE9F
Encoding: 61087 61087 121
Width: 950
VWidth: 0
GlyphClass: 2
Flags: HW
HStem: 0 21G<356.869 358> 65 134<60.4374 124.588> 89 134<222.437 286.588> 451 125<804.474 870.206>
VStem: 30 11<10.051 31.4036> 131 27<-61.0176 109.5> 192 11<34.051 55.4036> 293 27<-37.0176 133.5>
AnchorPoint: "FinalPitch" 1117.9 300 basechar 0
AnchorPoint: "Auxiliary" 701.062 800 basechar 0
AnchorPoint: "Kachka" 238.188 330 basechar 0
AnchorPoint: "PitchMark" 312.27 580 basechar 0
AnchorPoint: "Lomka" 901.449 150 basechar 0
AnchorPoint: "Tikhaya" -5.29004 -30 basechar 0
AnchorPoint: "Borzaya" 26.4492 150 basechar 0
AnchorPoint: "Zevok" 1021.71 350 basechar 0
AnchorPoint: "Kupnaya" 41.1836 -50 basechar 0
AnchorPoint: "Podvertka" 1027 380 basechar 0
AnchorPoint: "Flexion" 827.85 640 basechar 0
AnchorPoint: "Podtinka" -17.6328 -100 basechar 0
AnchorPoint: "TonalRange" 851.376 660 basechar 0
AnchorPoint: "Zaderzhka" 1041.11 460 basechar 0
AnchorPoint: "Omet" 877.898 300 basechar 0
AnchorPoint: "Tochka" 882.307 325 basechar 0
AnchorPoint: "Podchashie" 751.398 93 basechar 0
LayerCount: 2
Fore
SplineSet
302.321289062 223 m 0xbf
 340.321289062 223 351.385742188 178 335.693359375 89 c 0
 326.876953125 39 310.708007812 -13 288.186523438 -67 c 0
 286.3046875 -72 282.952148438 -74 277.952148438 -74 c 0
 273.952148438 -74 269.833007812 -69 271.71484375 -64 c 0
 287.001953125 -17 295.64453125 15 298.995117188 34 c 0
 304.990234375 68 295.1640625 86 270.693359375 89 c 1
 263.693359375 89 l 2
 241.693359375 89 223.872070312 73 210.405273438 42 c 0
 208.524414062 37 204.995117188 34 200.818359375 33 c 0
 197.642578125 32 196.995117188 34 198.876953125 39 c 0
 220.216796875 126 238.321289062 223 302.321289062 223 c 0xbf
136.088867188 199 m 0xdf
 174.088867188 199 185.154296875 154 169.4609375 65 c 0
 160.64453125 15 144.475585938 -37 121.954101562 -91 c 0
 120.072265625 -96 116.719726562 -98 111.719726562 -98 c 0
 107.719726562 -98 103.6015625 -93 105.483398438 -88 c 0
 120.770507812 -41 129.413085938 -9 132.763671875 10 c 0
 138.758789062 44 128.932617188 62 104.4609375 65 c 1
 97.4609375 65 l 2
 75.4609375 65 57.6396484375 49 44.173828125 18 c 0
 42.2919921875 13 38.763671875 10 34.5869140625 9 c 0
 31.41015625 8 30.763671875 10 32.64453125 15 c 0
 53.9853515625 102 72.0888671875 199 136.088867188 199 c 0xdf
945.564453125 576 m 0
 958.564453125 576 970.80078125 566 985.098632812 545 c 0
 998.571289062 525 1002.57421875 508 1000.10546875 494 c 0
 999.9296875 493 999.9296875 493 999.752929688 492 c 1
 965.946289062 374 l 1
 964.883789062 402 953.115234375 426 929.818359375 447 c 0
 927.346679688 450 922.5234375 451 917.5234375 451 c 0
 916.5234375 451 l 0
 899.5234375 451 872.407226562 439 835.999023438 414 c 0
 786.180664062 381 731.951171875 340 672.134765625 290 c 0
 612.318359375 240 547.091796875 182 475.454101562 116 c 0
 403.81640625 50 362.939453125 11 355 0 c 1
 383.8671875 107 l 1
 394.51171875 122 427.68359375 157 482.380859375 212 c 0
 601.541015625 332 676.825195312 396 818.810546875 498 c 0
 890.979492188 550 932.564453125 576 945.564453125 576 c 0
620.625 151 m 1
 652.380859375 212 716.791992188 220 716.791992188 220 c 1
 684.927734375 96 l 1
 684.927734375 96 628.340820312 87 586.231445312 24 c 1
 620.625 151 l 1
771.608398438 270 m 1
 803.364257812 331 867.774414062 339 867.774414062 339 c 1
 835.91015625 215 l 1
 835.91015625 215 779.323242188 206 737.21484375 143 c 1
 771.608398438 270 l 1
EndSplineSet
Position2: "Advance neume with cinnabar mark-1" dx=200 dy=35 dh=0 dv=0
Colour: ffc259
EndChar

StartChar: uniEEA0
Encoding: 61088 61088 122
Width: 950
VWidth: 0
GlyphClass: 2
Flags: HW
HStem: -1 22G<191.89 195.5 356.869 358> 65 134<60.4374 124.588> 451 125<804.474 870.206>
VStem: 30 11<10.051 31.4036> 131 27<-61.0176 109.5>
AnchorPoint: "FinalPitch" 1117.9 300 basechar 0
AnchorPoint: "Auxiliary" 701.062 800 basechar 0
AnchorPoint: "Kachka" 238.188 330 basechar 0
AnchorPoint: "PitchMark" 312.27 580 basechar 0
AnchorPoint: "Lomka" 901.449 150 basechar 0
AnchorPoint: "Tikhaya" -5.29004 -30 basechar 0
AnchorPoint: "Borzaya" 26.4492 150 basechar 0
AnchorPoint: "Zevok" 1021.71 350 basechar 0
AnchorPoint: "Kupnaya" 41.1836 -50 basechar 0
AnchorPoint: "Podvertka" 1027 380 basechar 0
AnchorPoint: "Flexion" 827.85 640 basechar 0
AnchorPoint: "Podtinka" -17.6328 -100 basechar 0
AnchorPoint: "TonalRange" 851.376 660 basechar 0
AnchorPoint: "Zaderzhka" 1041.11 460 basechar 0
AnchorPoint: "Omet" 857.898 300 basechar 0
AnchorPoint: "Tochka" 862.307 325 basechar 0
AnchorPoint: "Podchashie" 744.2 245 basechar 0
LayerCount: 2
Fore
SplineSet
945.564453125 576 m 0
 958.564453125 576 970.80078125 566 985.098632812 545 c 0
 998.571289062 525 1002.57421875 508 1000.10546875 494 c 0
 999.9296875 493 999.9296875 493 999.752929688 492 c 1
 965.946289062 374 l 1
 964.883789062 402 953.115234375 426 929.818359375 447 c 0
 927.346679688 450 922.5234375 451 917.5234375 451 c 0
 916.5234375 451 l 0
 899.5234375 451 872.407226562 439 835.999023438 414 c 0
 786.180664062 381 731.951171875 340 672.134765625 290 c 0
 612.318359375 240 547.091796875 182 475.454101562 116 c 0
 403.81640625 50 362.939453125 11 355 0 c 1
 383.8671875 107 l 1
 394.51171875 122 427.68359375 157 482.380859375 212 c 0
 601.541015625 332 676.825195312 396 818.810546875 498 c 0
 890.979492188 550 932.564453125 576 945.564453125 576 c 0
274.108398438 63 m 1
 256.823242188 -1 235.952148438 -74 235.952148438 -74 c 1
 211.893554688 -80 l 1
 247.81640625 50 l 1
 225.700195312 38 204.703125 21 189.823242188 -1 c 1
 224.216796875 126 l 1
 236.272460938 149 259.270507812 166 283.385742188 178 c 1
 305.668945312 259 l 1
 329.079101562 267 l 1
 317.497070312 224 320.260742188 234 308.501953125 190 c 1
 338.618164062 202 363.323242188 206 363.323242188 206 c 1
 331.458984375 82 l 1
 331.458984375 82 305.400390625 76 274.108398438 63 c 1
136.088867188 199 m 0
 174.088867188 199 185.154296875 154 169.4609375 65 c 0
 160.64453125 15 144.475585938 -37 121.954101562 -91 c 0
 120.072265625 -96 116.719726562 -98 111.719726562 -98 c 0
 107.719726562 -98 103.6015625 -93 105.483398438 -88 c 0
 120.770507812 -41 129.413085938 -9 132.763671875 10 c 0
 138.758789062 44 128.932617188 62 104.4609375 65 c 1
 97.4609375 65 l 2
 75.4609375 65 57.6396484375 49 44.173828125 18 c 0
 42.2919921875 13 38.763671875 10 34.5869140625 9 c 0
 31.41015625 8 30.763671875 10 32.64453125 15 c 0
 53.9853515625 102 72.0888671875 199 136.088867188 199 c 0
EndSplineSet
Position2: "Advance neume with cinnabar mark-1" dx=200 dy=35 dh=0 dv=0
Colour: ffc259
EndChar

StartChar: uniEE7E
Encoding: 61054 61054 123
Width: 410
VWidth: 0
GlyphClass: 2
Flags: HW
HStem: 0 15G<176.5 179.5 345 351.5> 84 94<48.6637 109.37> 108 94<208.664 269.37> 371 125<200 275.483>
VStem: 112 9<2.02298 16.4071> 113 31<19.5513 135> 272 9<26.023 40.4071> 273 31<43.5513 159> 348 34<46.8179 282.938>
AnchorPoint: "FinalPitch" 616.135 290 basechar 0
AnchorPoint: "PitchMark" 162.27 580 basechar 0
AnchorPoint: "Lomka" 566.449 150 basechar 0
AnchorPoint: "Tikhaya" -5.29004 -30 basechar 0
AnchorPoint: "Borzaya" 26.4492 150 basechar 0
AnchorPoint: "Zevok" 50 0 basechar 0
AnchorPoint: "Kachka" 166.376 660 basechar 0
AnchorPoint: "Kupnaya" 41.1836 -50 basechar 0
AnchorPoint: "Auxiliary" 381.376 660 basechar 0
AnchorPoint: "Podvertka" 400 0 basechar 0
AnchorPoint: "Flexion" 507.85 640 basechar 0
AnchorPoint: "Podtinka" -8.81641 -50 basechar 0
AnchorPoint: "TonalRange" 531.376 660 basechar 0
AnchorPoint: "Tochka" 477.307 325 basechar 0
AnchorPoint: "Zaderzhka" 8.84082 -120 basechar 0
AnchorPoint: "Omet" 293.163 500 basechar 0
AnchorPoint: "Podchashie" 350 0 basechar 0
LayerCount: 2
Fore
SplineSet
381.501953125 190 m 2x9080
 401.779296875 305 360.416992188 371 253.416992188 371 c 1
 287.458007812 496 l 1
 335.458007812 496 373.579101562 474 402.8203125 430 c 0
 432.0625 386 439.306640625 325 425.200195312 245 c 0
 411.09375 165 389.98828125 85 361.057617188 6 c 0
 358.647460938 -2 353.942382812 -6 346.942382812 -6 c 0
 340.942382812 -6 333.823242188 -1 337.057617188 6 c 0
 357.224609375 75 368.629882812 117 371.098632812 131 c 2
 381.501953125 190 l 2x9080
283.618164062 202 m 0xb180
 318.618164062 202 335.033203125 176 329.038085938 142 c 0xb180
 322.337890625 104 307.813476562 67 286.290039062 30 c 0
 279.173828125 18 275.408203125 25 278.34765625 36 c 0xb280
 279.405273438 42 281.993164062 51 284.4609375 65 c 0
 289.575195312 94 280.04296875 108 257.04296875 108 c 0
 232.04296875 108 208.224609375 75 185.41015625 8 c 0
 183.352539062 2 181 0 178 0 c 0
 175 0 175.763671875 10 179.642578125 32 c 0
 183.521484375 54 192.634765625 83 205.806640625 118 c 0
 226.680664062 174 252.618164062 202 283.618164062 202 c 0xb180
119.385742188 178 m 0xd480
 154.385742188 178 170.801757812 152 164.806640625 118 c 0xd480
 158.106445312 80 143.58203125 43 122.057617188 6 c 0
 114.942382812 -6 111.176757812 1 114.116210938 12 c 0xd880
 115.173828125 18 117.760742188 27 120.229492188 41 c 0
 125.342773438 70 115.811523438 84 92.8115234375 84 c 0
 67.8115234375 84 43.9931640625 51 21.1787109375 -16 c 0
 19.12109375 -22 16.591796875 -25 13.591796875 -25 c 0
 10.591796875 -25 11.53125 -14 15.41015625 8 c 0
 19.2900390625 30 28.4033203125 59 41.5751953125 94 c 0
 62.44921875 150 88.3857421875 178 119.385742188 178 c 0xd480
EndSplineSet
Position2: "Advance neume with cinnabar mark-1" dx=200 dy=35 dh=0 dv=0
Colour: ffc259
EndChar

StartChar: uniEA9A
Encoding: 60058 60058 124
Width: 410
GlyphClass: 2
Flags: HW
HStem: -6 27G<178.5 185.5 345.123 376.553> 371 125<35 109.791>
VStem: 182 35<48.6146 282.938>
AnchorPoint: "FinalPitch" 609.082 250 basechar 0
AnchorPoint: "PitchMark" 265.771 770 basechar 0
AnchorPoint: "Podvertka" 155.266 200 basechar 0
AnchorPoint: "Lomka" 566.449 150 basechar 0
AnchorPoint: "Tikhaya" 31.7393 180 basechar 0
AnchorPoint: "Borzaya" 26.4492 150 basechar 0
AnchorPoint: "Zevok" 50 0 basechar 0
AnchorPoint: "Kachka" 47.6084 270 basechar 0
AnchorPoint: "Kupnaya" 41.1836 -50 basechar 0
AnchorPoint: "Auxiliary" 381.376 660 basechar 0
AnchorPoint: "Flexion" 507.85 640 basechar 0
AnchorPoint: "Podtinka" -8.81641 -50 basechar 0
AnchorPoint: "TonalRange" 531.376 660 basechar 0
AnchorPoint: "Tochka" 492.307 325 basechar 0
AnchorPoint: "Zaderzhka" 8.84082 -120 basechar 0
AnchorPoint: "Omet" 293.163 500 basechar 0
AnchorPoint: "Podchashie" 183 0 basechar 0
LayerCount: 2
Fore
SplineSet
294.444335938 184 m 1
 401.162109375 103 l 1
 375 0 l 1
 268.282226562 81 l 1
 294.444335938 184 l 1
215.501953125 190 m 0
 233.779296875 305 194.416992188 371 88.4169921875 371 c 1
 122.458007812 496 l 1
 170.458007812 496 208.579101562 474 237.8203125 430 c 0
 267.0625 386 274.482421875 326 260.729492188 248 c 0
 246.975585938 170 224.693359375 89 195.057617188 6 c 0
 192.647460938 -2 187.942382812 -6 180.942382812 -6 c 0
 173.942382812 -6 169.823242188 -1 172.057617188 6 c 0
 181.700195312 38 201.04296875 108 213.209960938 177 c 0
 213.915039062 181 214.796875 186 215.501953125 190 c 0
EndSplineSet
Position2: "Advance neume with cinnabar mark-1" dx=200 dy=35 dh=0 dv=0
Colour: ffff
EndChar

StartChar: uniEEAB
Encoding: 61099 61099 125
Width: 1070
VWidth: 999
GlyphClass: 2
Flags: HW
HStem: -7 21G<149 172.258 476.869 478> 451 125<924.474 990.206>
AnchorPoint: "FinalPitch" 1117.9 300 basechar 0
AnchorPoint: "Auxiliary" 816.062 800 basechar 0
AnchorPoint: "PitchMark" 451.666 690 basechar 0
AnchorPoint: "Lomka" 1011.45 150 basechar 0
AnchorPoint: "Tikhaya" 277.633 100 basechar 0
AnchorPoint: "Borzaya" 589.347 450 basechar 0
AnchorPoint: "Zevok" 1141.71 350 basechar 0
AnchorPoint: "Kachka" 166.376 660 basechar 0
AnchorPoint: "Kupnaya" 41.1836 -50 basechar 0
AnchorPoint: "Podvertka" 1147 380 basechar 0
AnchorPoint: "Flexion" 947.85 640 basechar 0
AnchorPoint: "Podtinka" -8.81641 -50 basechar 0
AnchorPoint: "TonalRange" 971.376 660 basechar 0
AnchorPoint: "Zaderzhka" 1161.11 460 basechar 0
AnchorPoint: "Omet" 293.163 500 basechar 0
AnchorPoint: "Tochka" 972.307 325 basechar 0
AnchorPoint: "Podchashie" 856.2 245 basechar 0
LayerCount: 2
Fore
SplineSet
249.221679688 506 m 0
 251.221679688 506 256.458007812 496 263.931640625 476 c 0
 278.407226562 439 289.595703125 355 285.250976562 302 c 1
 297.250976562 302 299.779296875 305 317.895507812 317 c 0
 331.482421875 326 345.951171875 340 358.301757812 359 c 1
 327.729492188 248 l 1
 314.14453125 222 290.736328125 197 266.20703125 194 c 1
 250.390625 144 210.580078125 60 183.231445312 24 c 2
 158.765625 -7 l 1
 142.584960938 26 135.111328125 46 128.162109375 103 c 0
 123.685546875 140 122.328125 172 124.44140625 201 c 1
 111.44140625 201 108.913085938 198 90.796875 186 c 0
 77.2099609375 177 62.7412109375 163 50.390625 144 c 1
 79.787109375 254 l 1
 93.37109375 280 117.956054688 306 144.30859375 308 c 1
 158.94921875 357 197.583984375 440 223.931640625 476 c 0
 238.458007812 496 247.221679688 506 249.221679688 506 c 0
203.219726562 109 m 1
 219.451171875 133 231.446289062 167 239.028320312 210 c 0
 246.610351562 253 246.60546875 287 241.013671875 312 c 0
 235.421875 337 223.006835938 363 204.767578125 390 c 1
 192.064453125 369 181.421875 337 174.192382812 296 c 0
 159.557617188 213 169.625 151 203.219726562 109 c 1
429.552734375 247 m 1
 461.30859375 308 552.659179688 327 552.659179688 327 c 1
 520.793945312 203 l 1
 520.793945312 203 437.444335938 184 395.3359375 121 c 1
 429.552734375 247 l 1
320.413085938 -9 m 1
 352.168945312 52 443.51953125 71 443.51953125 71 c 1
 411.654296875 -53 l 1
 411.654296875 -53 328.3046875 -72 286.196289062 -135 c 1
 320.413085938 -9 l 1
1065.56445312 576 m 0
 1078.56445312 576 1090.80078125 566 1105.09863281 545 c 0
 1118.57128906 525 1122.57421875 508 1120.10546875 494 c 0
 1119.9296875 493 1119.9296875 493 1119.75292969 492 c 1
 1085.94628906 374 l 1
 1084.88378906 402 1073.11523438 426 1049.81835938 447 c 0
 1047.34667969 450 1042.5234375 451 1037.5234375 451 c 0
 1036.5234375 451 l 0
 1019.5234375 451 992.407226562 439 955.999023438 414 c 0
 906.180664062 381 851.951171875 340 792.134765625 290 c 0
 732.318359375 240 667.091796875 182 595.454101562 116 c 0
 523.81640625 50 482.939453125 11 475 0 c 1
 503.8671875 107 l 1
 514.51171875 122 547.68359375 157 602.380859375 212 c 0
 721.541015625 332 796.825195312 396 938.810546875 498 c 0
 1010.97949219 550 1052.56445312 576 1065.56445312 576 c 0
EndSplineSet
Ligature2: "Support for deprecated mappings (ccmp)-1" uniEEAC uniEE9A
LCarets2: 1 0
Position2: "Advance neume with cinnabar mark-1" dx=200 dy=35 dh=0 dv=0
Colour: ffc259
EndChar

StartChar: uniEE82
Encoding: 61058 61058 126
Width: 625
VWidth: 0
GlyphClass: 2
Flags: HW
HStem: 0 21G<31.8692 33> 46 94<335.335 407.663> 451 125<479.474 545.206>
VStem: 300 31<94 197.966> 444 10<224.868 248.647>
AnchorPoint: "FinalPitch" 797.898 300 basechar 0
AnchorPoint: "Auxiliary" 406.062 800 basechar 0
AnchorPoint: "Kachka" 541.955 720 basechar 0
AnchorPoint: "PitchMark" 229.902 680 basechar 0
AnchorPoint: "Lomka" 566.449 150 basechar 0
AnchorPoint: "Tikhaya" 65.2412 370 basechar 0
AnchorPoint: "Borzaya" 26.4492 150 basechar 0
AnchorPoint: "Zevok" 691.715 350 basechar 0
AnchorPoint: "Kupnaya" 41.1836 -50 basechar 0
AnchorPoint: "Podvertka" 697.004 380 basechar 0
AnchorPoint: "Flexion" 507.85 640 basechar 0
AnchorPoint: "Podtinka" -8.81641 -50 basechar 0
AnchorPoint: "TonalRange" 531.376 660 basechar 0
AnchorPoint: "Zaderzhka" 711.11 460 basechar 0
AnchorPoint: "Omet" 567.898 300 basechar 0
AnchorPoint: "Tochka" 572.307 325 basechar 0
AnchorPoint: "Podchashie" 375 0 basechar 0
LayerCount: 2
Fore
SplineSet
494.908203125 232 m 0
 481.68359375 157 435.111328125 46 373.111328125 46 c 0
 330.111328125 46 312.342773438 70 320.806640625 118 c 0
 325.919921875 147 339.739257812 180 361.615234375 219 c 0
 371.260742188 234 372.321289062 223 368.67578125 208 c 0
 366.088867188 199 364.501953125 190 362.739257812 180 c 0
 358.68359375 157 373.685546875 140 398.685546875 140 c 0
 432.685546875 140 474.852539062 209 486.318359375 240 c 0
 488.375976562 246 490.905273438 249 494.905273438 249 c 0
 496.905273438 249 496.84765625 243 494.908203125 232 c 0
620.564453125 576 m 0
 633.564453125 576 645.80078125 566 660.098632812 545 c 0
 673.571289062 525 677.57421875 508 675.10546875 494 c 0
 674.9296875 493 674.9296875 493 674.752929688 492 c 1
 640.946289062 374 l 1
 639.883789062 402 628.115234375 426 604.818359375 447 c 0
 602.346679688 450 597.5234375 451 592.5234375 451 c 0
 591.5234375 451 l 0
 574.5234375 451 547.407226562 439 510.999023438 414 c 0
 461.180664062 381 406.951171875 340 347.134765625 290 c 0
 287.318359375 240 222.091796875 182 150.454101562 116 c 0
 78.81640625 50 37.939453125 11 30 0 c 1
 58.8671875 107 l 1
 69.51171875 122 102.68359375 157 157.380859375 212 c 0
 276.541015625 332 351.825195312 396 493.810546875 498 c 0
 565.979492188 550 607.564453125 576 620.564453125 576 c 0
EndSplineSet
Position2: "Advance neume with cinnabar mark-1" dx=200 dy=35 dh=0 dv=0
Colour: ffc259
EndChar

StartChar: uniEE83
Encoding: 61059 61059 127
Width: 625
VWidth: 0
GlyphClass: 2
Flags: HW
HStem: 0 21G<31.8692 33> 451 125<479.474 545.206>
AnchorPoint: "FinalPitch" 797.898 300 basechar 0
AnchorPoint: "Auxiliary" 406.062 800 basechar 0
AnchorPoint: "Kachka" 541.955 720 basechar 0
AnchorPoint: "PitchMark" 229.902 680 basechar 0
AnchorPoint: "Lomka" 566.449 150 basechar 0
AnchorPoint: "Tikhaya" 65.2412 370 basechar 0
AnchorPoint: "Borzaya" 26.4492 150 basechar 0
AnchorPoint: "Zevok" 691.715 350 basechar 0
AnchorPoint: "Kupnaya" 41.1836 -50 basechar 0
AnchorPoint: "Podvertka" 697.004 380 basechar 0
AnchorPoint: "Flexion" 507.85 640 basechar 0
AnchorPoint: "Podtinka" -8.81641 -50 basechar 0
AnchorPoint: "TonalRange" 531.376 660 basechar 0
AnchorPoint: "Zaderzhka" 711.11 460 basechar 0
AnchorPoint: "Omet" 567.898 300 basechar 0
AnchorPoint: "Tochka" 572.307 325 basechar 0
AnchorPoint: "Podchashie" 403.225 75 basechar 0
LayerCount: 2
Fore
SplineSet
620.564453125 576 m 0
 633.564453125 576 645.80078125 566 660.098632812 545 c 0
 673.571289062 525 677.57421875 508 675.10546875 494 c 0
 674.9296875 493 674.9296875 493 674.752929688 492 c 1
 640.946289062 374 l 1
 639.883789062 402 628.115234375 426 604.818359375 447 c 0
 602.346679688 450 597.5234375 451 592.5234375 451 c 0
 591.5234375 451 l 0
 574.5234375 451 547.407226562 439 510.999023438 414 c 0
 461.180664062 381 406.951171875 340 347.134765625 290 c 0
 287.318359375 240 222.091796875 182 150.454101562 116 c 0
 78.81640625 50 37.939453125 11 30 0 c 1
 58.8671875 107 l 1
 69.51171875 122 102.68359375 157 157.380859375 212 c 0
 276.541015625 332 351.825195312 396 493.810546875 498 c 0
 565.979492188 550 607.564453125 576 620.564453125 576 c 0
323.036132812 159 m 1
 354.791992188 220 419.202148438 228 419.202148438 228 c 1
 387.337890625 104 l 1
 387.337890625 104 330.750976562 95 288.642578125 32 c 1
 323.036132812 159 l 1
EndSplineSet
Position2: "Advance neume with cinnabar mark-1" dx=200 dy=35 dh=0 dv=0
Colour: ffc259
EndChar

StartChar: uniEEAA
Encoding: 61098 61098 128
Width: 715
VWidth: 0
GlyphClass: 2
Flags: HW
HStem: 0 21G<32.0417 40.5> 451 125<569.049 637.264>
AnchorPoint: "FinalPitch" 782.898 300 basechar 0
AnchorPoint: "Auxiliary" 476.062 800 basechar 0
AnchorPoint: "Tikhaya" 65.2412 370 basechar 0
AnchorPoint: "PitchMark" 265.771 770 basechar 0
AnchorPoint: "Lomka" 566.449 150 basechar 0
AnchorPoint: "Borzaya" 26.4492 150 basechar 0
AnchorPoint: "Zevok" 791.715 350 basechar 0
AnchorPoint: "Kachka" 166.376 660 basechar 0
AnchorPoint: "Kupnaya" 41.1836 -50 basechar 0
AnchorPoint: "Podvertka" 797.004 380 basechar 0
AnchorPoint: "Flexion" 592.85 640 basechar 0
AnchorPoint: "Podtinka" -8.81641 -50 basechar 0
AnchorPoint: "TonalRange" 616.376 660 basechar 0
AnchorPoint: "Zaderzhka" 811.11 460 basechar 0
AnchorPoint: "Omet" 293.163 500 basechar 0
AnchorPoint: "Tochka" 632.307 325 basechar 0
AnchorPoint: "Podchashie" 541.49 275 basechar 0
LayerCount: 2
Fore
SplineSet
98.5654296875 162 m 1
 115.444335938 184 135.793945312 203 160.791992188 220 c 0
 185.7890625 237 205.905273438 249 221.787109375 254 c 2
 246.197265625 262 l 1
 206.51171875 122 l 1
 198.159179688 120 183.27734375 115 164.8671875 107 c 0
 104.458984375 82 59.111328125 46 30 0 c 1
 163.63671875 480 l 1
 192.458007812 496 l 1
 98.5654296875 162 l 1
711.564453125 576 m 0
 724.564453125 576 737.80078125 566 752.098632812 545 c 0
 765.571289062 525 767.75 509 765.282226562 495 c 0
 765.10546875 494 764.9296875 493 764.752929688 492 c 1
 731.946289062 374 l 1
 731.059570312 403 719.291992188 427 696.818359375 447 c 0
 694.346679688 450 689.5234375 451 684.5234375 451 c 0
 668.5234375 451 638.0546875 437 593.94140625 408 c 0
 549.828125 379 497.774414062 339 439.134765625 290 c 0
 380.495117188 241 340.323242188 206 318.973632812 187 c 0
 297.623046875 168 283.801757812 152 275.685546875 140 c 1
 313.903320312 266 l 1
 314.079101562 267 l 1
 322.077148438 284 350.190429688 313 400.772460938 356 c 0
 451.354492188 399 511.641601562 446 583.810546875 498 c 0
 655.979492188 550 698.564453125 576 711.564453125 576 c 0
EndSplineSet
Position2: "Advance neume with cinnabar mark-1" dx=200 dy=35 dh=0 dv=0
Colour: ffc259
EndChar

StartChar: uniEE75
Encoding: 61045 61045 129
Width: 225
VWidth: 0
GlyphClass: 2
Flags: HW
HStem: 0 21G<32.0417 40.5>
VStem: 30 169
AnchorPoint: "FinalPitch" 453.792 220 basechar 0
AnchorPoint: "PitchMark" 325.771 770 basechar 0
AnchorPoint: "Podchashie" 110 0 basechar 0
AnchorPoint: "Lomka" 566.449 150 basechar 0
AnchorPoint: "Tikhaya" -5.29004 -30 basechar 0
AnchorPoint: "Zaderzhka" 256.739 180 basechar 0
AnchorPoint: "Borzaya" 26.4492 150 basechar 0
AnchorPoint: "Zevok" 190.58 60 basechar 0
AnchorPoint: "Kachka" 166.376 660 basechar 0
AnchorPoint: "Kupnaya" 41.1836 -50 basechar 0
AnchorPoint: "Auxiliary" 381.376 660 basechar 0
AnchorPoint: "Podvertka" 265.869 90 basechar 0
AnchorPoint: "Flexion" 507.85 640 basechar 0
AnchorPoint: "Podtinka" -8.81641 -50 basechar 0
AnchorPoint: "TonalRange" 531.376 660 basechar 0
AnchorPoint: "Tochka" 292.307 325 basechar 0
AnchorPoint: "Omet" 293.163 500 basechar 0
LayerCount: 2
Fore
SplineSet
98.5654296875 162 m 1
 115.444335938 184 135.793945312 203 160.791992188 220 c 0
 185.7890625 237 205.729492188 248 221.787109375 254 c 2
 245.197265625 262 l 1
 205.51171875 122 l 1
 197.159179688 120 183.27734375 115 164.8671875 107 c 0
 104.458984375 82 59.111328125 46 30 0 c 1
 163.63671875 480 l 1
 192.458007812 496 l 1
 98.5654296875 162 l 1
EndSplineSet
Position2: "Advance neume with cinnabar mark-1" dx=200 dy=35 dh=0 dv=0
Colour: ffc259
EndChar

StartChar: uniEE74
Encoding: 61044 61044 130
Width: 625
VWidth: 0
GlyphClass: 3
Flags: HW
HStem: 0 21G<32.0417 47.0833> 450 126<471.926 525.859>
AnchorPoint: "Borzaya" 420.58 60 basechar 0
AnchorPoint: "FinalPitch" 857.898 300 basechar 0
AnchorPoint: "TonalRange" 584.902 680 basechar 0
AnchorPoint: "Auxiliary" 446.062 800 basechar 0
AnchorPoint: "Kachka" 547.245 750 basechar 0
AnchorPoint: "Lomka" 566.449 150 basechar 0
AnchorPoint: "Tikhaya" 65.2412 370 basechar 0
AnchorPoint: "Zevok" 691.715 350 basechar 0
AnchorPoint: "Kupnaya" 41.1836 -50 basechar 0
AnchorPoint: "Podvertka" 697.004 380 basechar 0
AnchorPoint: "Flexion" 507.85 640 basechar 0
AnchorPoint: "Podtinka" -8.81641 -50 basechar 0
AnchorPoint: "Zaderzhka" 711.11 460 basechar 0
AnchorPoint: "Omet" 567.898 300 basechar 0
AnchorPoint: "Tochka" 572.307 325 basechar 0
AnchorPoint: "Podchashie" 414.147 205 basechar 0
AnchorPoint: "PitchMark" 265.771 770 basechar 0
LayerCount: 2
Fore
SplineSet
620.564453125 576 m 0
 645.564453125 576 679.690429688 520 675.10546875 494 c 0
 674.9296875 493 674.9296875 493 674.752929688 492 c 2
 640.946289062 374 l 1
 639.883789062 402 628.115234375 426 604.818359375 447 c 0
 602.170898438 449 598.346679688 450 593.346679688 450 c 0
 591.346679688 450 588.346679688 450 586.346679688 450 c 0
 567.346679688 450 550.994140625 448 490.236328125 404 c 1
 530.76953125 373 l 1
 503.608398438 270 l 1
 413.598632812 338 l 1
 386.142578125 239 l 1
 362.37890625 229 l 1
 388.306640625 325 l 1
 300.434570312 252 176.862304688 141 79.4638671875 48 c 1
 30 0 l 1
 163.63671875 480 l 1
 192.458007812 496 l 1
 98.5654296875 162 l 1
 153.262695312 217 256.837890625 311 347.415039062 388 c 1
 306.880859375 419 l 1
 335.04296875 522 l 1
 424.052734375 454 l 1
 448.569335938 542 l 1
 473.861328125 555 l 1
 450.049804688 471 l 1
 566.56640625 559 602.564453125 576 620.564453125 576 c 0
EndSplineSet
Position2: "Advance neume with cinnabar mark-1" dx=200 dy=35 dh=0 dv=0
Colour: ffc259
EndChar

StartChar: uniEE7D
Encoding: 61053 61053 131
Width: 450
VWidth: 0
GlyphClass: 2
Flags: HW
HStem: 206 108<69.6788 136.817>
VStem: 10 27<-42.8159 141.02> 144 32<48.7511 257>
AnchorPoint: "FinalPitch" 567.27 580 basechar 0
AnchorPoint: "PitchMark" 162.27 580 basechar 0
AnchorPoint: "Lomka" 396.449 150 basechar 0
AnchorPoint: "Tikhaya" 26.4492 150 basechar 0
AnchorPoint: "Borzaya" 26.4492 150 basechar 0
AnchorPoint: "Zevok" 50 0 basechar 0
AnchorPoint: "Kachka" 166.376 660 basechar 0
AnchorPoint: "Kupnaya" 41.1836 -50 basechar 0
AnchorPoint: "Auxiliary" 381.376 660 basechar 0
AnchorPoint: "Podvertka" 399.396 110 basechar 0
AnchorPoint: "Flexion" 507.85 640 basechar 0
AnchorPoint: "Podtinka" -17.6328 -100 basechar 0
AnchorPoint: "TonalRange" 531.376 660 basechar 0
AnchorPoint: "Tochka" 517.307 325 basechar 0
AnchorPoint: "Zaderzhka" 362.294 410 basechar 0
AnchorPoint: "Omet" 293.163 500 basechar 0
AnchorPoint: "Podchashie" 94.71 -30 basechar 0
LayerCount: 2
Fore
SplineSet
366.248046875 319 m 1
 375.421875 337 391.243164062 353 414.536132812 366 c 0
 437.828125 379 459.415039062 388 478.120117188 392 c 2
 505.354492188 399 l 1
 473.490234375 275 l 1
 444.255859375 268 429.55078125 264 393.375976562 246 c 0
 368.083984375 233 347.086914062 216 332.03125 193 c 1
 366.248046875 319 l 1
334.296875 393 m 1
 247.577148438 77 l 1
 223.51953125 71 l 1
 310.885742188 385 l 1
 334.296875 393 l 1
32.0625 -28 m 0
 31.0048828125 -34 21.41796875 -43 14.41796875 -43 c 0
 6.2412109375 -44 3.123046875 -39 4.7099609375 -30 c 2
 7.8837890625 -12 l 2
 33.451171875 133 67.5556640625 230 109.37109375 280 c 0
 128.426757812 303 148.366210938 314 169.366210938 314 c 0
 210.366210938 314 226.4296875 286 216.202148438 228 c 0
 205.975585938 170 186.456054688 99 157.64453125 15 c 0
 153.41015625 8 148.705078125 4 142.705078125 4 c 0
 136.705078125 4 132.881835938 5 132.763671875 10 c 1
 133.116210938 12 l 1
 155.340820312 87 166.922851562 130 168.862304688 141 c 0
 176.444335938 184 167.323242188 206 142.323242188 206 c 0
 105.323242188 206 77.09375 165 55.458984375 82 c 0
 47.9345703125 45 39.41015625 8 32.0625 -28 c 0
EndSplineSet
Position2: "Advance neume with cinnabar mark-1" dx=200 dy=35 dh=0 dv=0
Colour: ffc259
EndChar

StartChar: uniEE7F
Encoding: 61055 61055 132
Width: 545
VWidth: 0
GlyphClass: 2
Flags: HW
HStem: 0 21G<179.5 182.5> 30 106<367.552 466.3> 84 94<51.6637 112.37> 108 94<211.664 272.37>
VStem: 116 31<26.8191 78.9965> 116 8<3.52825 14.6724> 276 31<50.8191 102.996> 276 8<27.5282 38.6724> 336 34<137.47 214.16> 378 26<418.5 521.999> 396 11<520.513 543.981> 501 22<179.369 286>
AnchorPoint: "FinalPitch" 762.608 270 basechar 0
AnchorPoint: "PitchMark" 162.27 580 basechar 0
AnchorPoint: "Lomka" 566.449 150 basechar 0
AnchorPoint: "Tikhaya" -5.29004 -30 basechar 0
AnchorPoint: "Borzaya" 26.4492 150 basechar 0
AnchorPoint: "Zevok" 50 0 basechar 0
AnchorPoint: "Kachka" 166.376 660 basechar 0
AnchorPoint: "Kupnaya" 41.1836 -50 basechar 0
AnchorPoint: "Auxiliary" 381.376 660 basechar 0
AnchorPoint: "Podvertka" 520 0 basechar 0
AnchorPoint: "Flexion" 507.85 640 basechar 0
AnchorPoint: "Podtinka" -8.81641 -50 basechar 0
AnchorPoint: "TonalRange" 531.376 660 basechar 0
AnchorPoint: "Tochka" 612.307 325 basechar 0
AnchorPoint: "Zaderzhka" 8.84082 -120 basechar 0
AnchorPoint: "Omet" 293.163 500 basechar 0
AnchorPoint: "Podchashie" 400 0 basechar 0
LayerCount: 2
Fore
SplineSet
351.106445312 80 m 0xc0d0
 351.458984375 82 352.575195312 94 352.927734375 96 c 0
 357.3359375 121 376.913085938 198 386.91015625 215 c 0
 389.615234375 219 392.96875 221 397.96875 221 c 0
 404.96875 221 408.615234375 219 407.734375 214 c 0
 406.5 207 397.620117188 185 396.209960938 177 c 0
 391.44921875 150 399.98046875 136 421.98046875 136 c 0
 461.98046875 136 530.623046875 168 537.323242188 206 c 0
 539.96875 221 538.61328125 236 531.08203125 250 c 0
 523.55078125 264 512.842773438 277 498.487304688 292 c 0
 484.1328125 307 474.600585938 321 469.541015625 332 c 0
 453.359375 365 448.53125 400 455.0546875 437 c 0xc0d0
 458.934570312 459 481.395507812 524 490.6875 537 c 0
 491.569335938 542 493.921875 544 497.921875 544 c 0
 500.921875 544 502.392578125 541 501.864257812 538 c 2
 501.6875 537 l 1xc0b0
 498.100585938 528 495.161132812 517 492.869140625 504 c 0
 485.639648438 463 515.528320312 417 533.415039062 388 c 0
 545.241210938 370 552.94921875 357 558.361328125 348 c 0
 569.1875 330 576.250976562 302 570.608398438 270 c 0
 557.20703125 194 546.21484375 143 536.806640625 118 c 0
 524.340820312 87 509.108398438 63 479.463867188 48 c 0
 461.876953125 39 431.290039062 30 405.290039062 30 c 0
 369.290039062 30 348.463867188 48 351.106445312 80 c 0xc0d0
286.618164062 202 m 0x9290
 321.618164062 202 338.033203125 176 332.038085938 142 c 0x9290
 325.337890625 104 310.813476562 67 289.290039062 30 c 0
 282.173828125 18 279.408203125 25 282.34765625 36 c 0xc190
 283.405273438 42 284.993164062 51 287.4609375 65 c 0
 292.575195312 94 283.04296875 108 260.04296875 108 c 0
 235.04296875 108 211.224609375 75 188.41015625 8 c 0
 186.352539062 2 184 0 181 0 c 0
 178 0 178.763671875 10 182.642578125 32 c 0
 186.521484375 54 195.634765625 83 208.806640625 118 c 0
 229.680664062 174 255.618164062 202 286.618164062 202 c 0x9290
122.385742188 178 m 0xa890
 157.385742188 178 173.801757812 152 167.806640625 118 c 0xa890
 161.106445312 80 146.58203125 43 125.057617188 6 c 0
 117.942382812 -6 115.176757812 1 118.116210938 12 c 0xa490
 119.173828125 18 120.760742188 27 123.229492188 41 c 0
 128.342773438 70 118.811523438 84 95.8115234375 84 c 0
 70.8115234375 84 46.9931640625 51 24.1787109375 -16 c 0
 22.12109375 -22 19.591796875 -25 16.591796875 -25 c 0
 13.591796875 -25 14.53125 -14 18.41015625 8 c 0
 22.2900390625 30 31.4033203125 59 44.5751953125 94 c 0
 65.44921875 150 91.3857421875 178 122.385742188 178 c 0xa890
EndSplineSet
Position2: "Advance neume with cinnabar mark-1" dx=200 dy=35 dh=0 dv=0
Colour: ffc259
EndChar

StartChar: uniEE7A
Encoding: 61050 61050 133
Width: 323
VWidth: 0
GlyphClass: 2
Flags: HW
HStem: 259 104<110.444 210.011>
VStem: 22 26<-52.9475 129.723> 212 23<4.13019 78.034> 229 37<87.0116 292.5>
AnchorPoint: "FinalPitch" 506.135 290 basechar 0
AnchorPoint: "PitchMark" 416.388 575 basechar 0
AnchorPoint: "Kachka" 409.588 820 basechar 0
AnchorPoint: "Lomka" 566.449 150 basechar 0
AnchorPoint: "Tikhaya" 14.1064 80 basechar 0
AnchorPoint: "Zaderzhka" 326.739 180 basechar 0
AnchorPoint: "Borzaya" 26.4492 150 basechar 0
AnchorPoint: "Zevok" 50 0 basechar 0
AnchorPoint: "Kupnaya" 41.1836 -50 basechar 0
AnchorPoint: "Auxiliary" 381.376 660 basechar 0
AnchorPoint: "Podvertka" 250 0 basechar 0
AnchorPoint: "Flexion" 507.85 640 basechar 0
AnchorPoint: "Podtinka" -17.6328 -100 basechar 0
AnchorPoint: "TonalRange" 531.376 660 basechar 0
AnchorPoint: "Tochka" 362.307 325 basechar 0
AnchorPoint: "Omet" 293.163 500 basechar 0
AnchorPoint: "Podchashie" 94.71 -30 basechar 0
LayerCount: 2
Fore
SplineSet
215.173828125 18 m 1xe0
 225.993164062 51 249.806640625 118 256.68359375 157 c 0
 268.673828125 225 253.668945312 259 209.668945312 259 c 0
 146.668945312 259 103.5 207 74.162109375 103 c 0
 61.521484375 54 52.173828125 18 46.9423828125 -6 c 0
 40.828125 -35 38.654296875 -53 24.654296875 -53 c 0
 18.654296875 -53 15.5361328125 -48 14.7705078125 -41 c 0
 14.357421875 -32 18.765625 -7 18.765625 -7 c 0
 63.0234375 244 138.006835938 363 239.006835938 363 c 0
 299.006835938 363 323.834960938 328 311.31640625 257 c 0xd0
 300.03125 193 266.750976562 95 237.998046875 17 c 0
 235.586914062 9 228.705078125 4 222.705078125 4 c 0
 217.705078125 4 211.41015625 8 215.173828125 18 c 1xe0
EndSplineSet
Position2: "Advance neume with cinnabar mark-1" dx=200 dy=35 dh=0 dv=0
Colour: ffc259
EndChar

StartChar: uniEE86
Encoding: 61062 61062 134
Width: 625
VWidth: 0
GlyphClass: 2
Flags: HW
HStem: 0 22G<32.0417 47.0833 228.89 242.5> 451 125<478.289 544.923>
AnchorPoint: "FinalPitch" 797.898 300 basechar 0
AnchorPoint: "Auxiliary" 406.062 800 basechar 0
AnchorPoint: "Kachka" 541.955 720 basechar 0
AnchorPoint: "PitchMark" 229.902 680 basechar 0
AnchorPoint: "Lomka" 566.449 150 basechar 0
AnchorPoint: "Tikhaya" 65.2412 370 basechar 0
AnchorPoint: "Borzaya" 26.4492 150 basechar 0
AnchorPoint: "Zevok" 691.715 350 basechar 0
AnchorPoint: "Kupnaya" 41.1836 -50 basechar 0
AnchorPoint: "Podvertka" 697.004 380 basechar 0
AnchorPoint: "Flexion" 507.85 640 basechar 0
AnchorPoint: "Podtinka" -8.81641 -50 basechar 0
AnchorPoint: "TonalRange" 531.376 660 basechar 0
AnchorPoint: "Zaderzhka" 711.11 460 basechar 0
AnchorPoint: "Omet" 567.898 300 basechar 0
AnchorPoint: "Tochka" 572.307 325 basechar 0
AnchorPoint: "Podchashie" 403.225 75 basechar 0
LayerCount: 2
Fore
SplineSet
261.5703125 128 m 1
 293.326171875 189 357.736328125 197 357.736328125 197 c 1
 325.872070312 73 l 1
 325.872070312 73 269.28515625 64 227.176757812 1 c 1
 261.5703125 128 l 1
412.552734375 247 m 1
 444.30859375 308 508.719726562 316 508.719726562 316 c 1
 476.854492188 192 l 1
 476.854492188 192 420.267578125 183 378.159179688 120 c 1
 412.552734375 247 l 1
620.564453125 576 m 0
 645.564453125 576 679.866210938 521 675.10546875 494 c 0
 675.10546875 494 674.9296875 493 674.752929688 492 c 2
 640.946289062 374 l 1
 639.883789062 402 628.115234375 426 604.818359375 447 c 0
 602.346679688 450 597.5234375 451 592.5234375 451 c 0
 576.5234375 451 545.87890625 436 501.764648438 407 c 0
 405.65625 344 264.497070312 224 79.4638671875 48 c 1
 30 0 l 1
 163.63671875 480 l 1
 192.458007812 496 l 1
 98.5654296875 162 l 1
 217.900390625 283 349.649414062 395 493.810546875 498 c 0
 564.979492188 550 607.564453125 576 620.564453125 576 c 0
EndSplineSet
Position2: "Advance neume with cinnabar mark-1" dx=200 dy=35 dh=0 dv=0
Colour: ffc259
EndChar

StartChar: uniEEAF
Encoding: 61103 61103 135
Width: 825
VWidth: 0
GlyphClass: 2
Flags: HW
HStem: 0 21G<235.5 247.5> 450 126<678.494 746.2>
AnchorPoint: "FinalPitch" 927.898 300 basechar 0
AnchorPoint: "PitchMark" 329.902 680 basechar 0
AnchorPoint: "Lomka" 731.449 150 basechar 0
AnchorPoint: "Tikhaya" 35.2656 200 basechar 0
AnchorPoint: "Borzaya" 26.4492 150 basechar 0
AnchorPoint: "Zevok" 901.715 350 basechar 0
AnchorPoint: "Kachka" 166.376 660 basechar 0
AnchorPoint: "Kupnaya" 41.1836 -50 basechar 0
AnchorPoint: "Auxiliary" 541.376 660 basechar 0
AnchorPoint: "Podvertka" 907.004 380 basechar 0
AnchorPoint: "Flexion" 757.85 640 basechar 0
AnchorPoint: "Podtinka" -17.6328 -100 basechar 0
AnchorPoint: "TonalRange" 781.376 660 basechar 0
AnchorPoint: "Zaderzhka" 921.11 460 basechar 0
AnchorPoint: "Omet" 293.163 500 basechar 0
AnchorPoint: "Tochka" 742.307 325 basechar 0
AnchorPoint: "Podchashie" 626.2 245 basechar 0
LayerCount: 2
Fore
SplineSet
166.48046875 343 m 1
 198.236328125 404 289.5859375 423 289.5859375 423 c 1
 257.721679688 299 l 1
 257.721679688 299 174.37109375 280 132.262695312 217 c 1
 166.48046875 343 l 1
57.3408203125 87 m 1
 89.0966796875 148 180.446289062 167 180.446289062 167 c 1
 148.58203125 43 l 1
 148.58203125 43 65.2314453125 24 23.123046875 -39 c 1
 57.3408203125 87 l 1
692.810546875 498 m 0
 764.979492188 550 807.564453125 576 820.564453125 576 c 0
 833.564453125 576 846.80078125 566 862.098632812 545 c 0
 875.748046875 526 877.926757812 510 875.458007812 496 c 0
 875.282226562 495 874.9296875 493 874.752929688 492 c 2
 840.946289062 374 l 1
 839.883789062 402 828.115234375 426 804.818359375 447 c 0
 802.346679688 450 797.346679688 450 792.346679688 450 c 0
 776.346679688 450 747.0546875 437 702.94140625 408 c 0
 658.828125 379 613.833007812 345 566.956054688 306 c 0
 467.14453125 222 370.98046875 136 280.463867188 48 c 1
 230 0 l 1
 260.395507812 110 361.754882812 475 391.798828125 583 c 1
 498.516601562 502 l 1
 470.354492188 399 l 1
 382.9921875 465 l 1
 298.565429688 162 l 1
 417.900390625 283 549.649414062 395 692.810546875 498 c 0
EndSplineSet
Ligature2: "Support for deprecated mappings (ccmp)-1" uniEE8F uniEEAE
LCarets2: 1 0
Position2: "Advance neume with cinnabar mark-1" dx=200 dy=35 dh=0 dv=0
Colour: ffc259
EndChar

StartChar: uniEE78
Encoding: 61048 61048 136
Width: 250
VWidth: 0
GlyphClass: 2
Flags: HW
HStem: -6 21G<178.5 185.5> 371 125<35 110.225>
VStem: 182 35<48.6146 286.634>
AnchorPoint: "FinalPitch" 477.898 300 basechar 0
AnchorPoint: "Kachka" 47.6084 270 basechar 0
AnchorPoint: "PitchMark" 265.771 770 basechar 0
AnchorPoint: "Podvertka" 248.816 50 basechar 0
AnchorPoint: "Lomka" -173.551 150 basechar 0
AnchorPoint: "Tikhaya" 31.7393 180 basechar 0
AnchorPoint: "Zaderzhka" 281.739 180 basechar 0
AnchorPoint: "Borzaya" 26.4492 150 basechar 0
AnchorPoint: "Zevok" 50 0 basechar 0
AnchorPoint: "Kupnaya" 41.1836 -50 basechar 0
AnchorPoint: "Auxiliary" 381.376 660 basechar 0
AnchorPoint: "Flexion" 507.85 640 basechar 0
AnchorPoint: "Podtinka" -8.81641 -50 basechar 0
AnchorPoint: "TonalRange" 531.376 660 basechar 0
AnchorPoint: "Tochka" 317.307 325 basechar 0
AnchorPoint: "Omet" 293.163 500 basechar 0
AnchorPoint: "Podchashie" 183 0 basechar 0
LayerCount: 2
Fore
SplineSet
215.501953125 190 m 2
 235.779296875 305 194.416992188 371 88.4169921875 371 c 1
 122.458007812 496 l 1
 170.458007812 496 208.579101562 474 237.8203125 430 c 0
 267.0625 386 274.482421875 326 260.729492188 248 c 0
 246.975585938 170 224.693359375 89 195.057617188 6 c 0
 192.647460938 -2 187.942382812 -6 180.942382812 -6 c 0
 173.942382812 -6 168.823242188 -1 172.057617188 6 c 0
 190.166992188 69 201.219726562 109 204.216796875 126 c 2
 215.501953125 190 l 2
EndSplineSet
Position2: "Advance neume with cinnabar mark-1" dx=200 dy=35 dh=0 dv=0
Colour: ffc259
EndChar

StartChar: uniEEAE
Encoding: 61102 61102 137
Width: 625
VWidth: 0
GlyphClass: 2
Flags: HW
HStem: 0 21G<35.5 47.5> 450 126<478.494 546.2>
AnchorPoint: "FinalPitch" 777.898 300 basechar 0
AnchorPoint: "PitchMark" 265.771 770 basechar 0
AnchorPoint: "Lomka" 566.449 150 basechar 0
AnchorPoint: "Tikhaya" -5.29004 -30 basechar 0
AnchorPoint: "Borzaya" 26.4492 150 basechar 0
AnchorPoint: "Zevok" 691.715 350 basechar 0
AnchorPoint: "Kachka" 166.376 660 basechar 0
AnchorPoint: "Kupnaya" 41.1836 -50 basechar 0
AnchorPoint: "Auxiliary" 381.376 660 basechar 0
AnchorPoint: "Podvertka" 697.004 380 basechar 0
AnchorPoint: "Flexion" 507.85 640 basechar 0
AnchorPoint: "Podtinka" -8.81641 -50 basechar 0
AnchorPoint: "TonalRange" 531.376 660 basechar 0
AnchorPoint: "Zaderzhka" 711.11 460 basechar 0
AnchorPoint: "Omet" 293.163 500 basechar 0
AnchorPoint: "Tochka" 542.307 325 basechar 0
AnchorPoint: "Podchashie" 421.2 245 basechar 0
LayerCount: 2
Fore
SplineSet
492.810546875 498 m 0
 564.979492188 550 607.564453125 576 620.564453125 576 c 0
 633.564453125 576 646.80078125 566 662.098632812 545 c 0
 675.748046875 526 677.926757812 510 675.458007812 496 c 0
 675.282226562 495 674.9296875 493 674.752929688 492 c 2
 640.946289062 374 l 1
 639.883789062 402 628.115234375 426 604.818359375 447 c 0
 602.346679688 450 597.346679688 450 592.346679688 450 c 0
 576.346679688 450 547.0546875 437 502.94140625 408 c 0
 458.828125 379 413.833007812 345 366.956054688 306 c 0
 267.14453125 222 170.98046875 136 80.4638671875 48 c 1
 30 0 l 1
 60.3955078125 110 161.754882812 475 191.798828125 583 c 1
 298.516601562 502 l 1
 270.354492188 399 l 1
 182.9921875 465 l 1
 98.5654296875 162 l 1
 217.900390625 283 349.649414062 395 492.810546875 498 c 0
EndSplineSet
Position2: "Advance neume with cinnabar mark-1" dx=200 dy=35 dh=0 dv=0
Colour: ffc259
EndChar

StartChar: uniEE81
Encoding: 61057 61057 138
Width: 225
VWidth: 0
GlyphClass: 2
Flags: HW
HStem: 0 106<49.7806 150.57>
VStem: 20 29<108.904 171.804> 62 26<379.5 491.847> 80 11<490.513 513.987> 185 22<148.28 255.5>
AnchorPoint: "FinalPitch" 452.608 270 basechar 0
AnchorPoint: "PitchMark" 48.1631 500 basechar 0
AnchorPoint: "Lomka" 566.449 150 basechar 0
AnchorPoint: "Tikhaya" -5.29004 -30 basechar 0
AnchorPoint: "Borzaya" 26.4492 150 basechar 0
AnchorPoint: "Zevok" 50 0 basechar 0
AnchorPoint: "Kachka" 166.376 660 basechar 0
AnchorPoint: "Kupnaya" 41.1836 -50 basechar 0
AnchorPoint: "Auxiliary" 381.376 660 basechar 0
AnchorPoint: "Podvertka" 200 0 basechar 0
AnchorPoint: "Flexion" 507.85 640 basechar 0
AnchorPoint: "Podtinka" -8.81641 -50 basechar 0
AnchorPoint: "TonalRange" 531.376 660 basechar 0
AnchorPoint: "Tochka" 292.307 325 basechar 0
AnchorPoint: "Zaderzhka" 8.84082 -120 basechar 0
AnchorPoint: "Omet" 293.163 500 basechar 0
AnchorPoint: "Podchashie" 94.71 -30 basechar 0
LayerCount: 2
Fore
SplineSet
81.623046875 168 m 0xe8
 80.91796875 164 75.2724609375 149 72.98046875 136 c 0
 68.3955078125 110 78.6904296875 106 109.690429688 106 c 0xd8
 127.690429688 106 147.924804688 113 173.5703125 128 c 0
 199.21484375 143 212.859375 158 215.680664062 174 c 0
 218.501953125 190 217.323242188 206 209.791992188 220 c 0
 202.260742188 234 191.552734375 247 177.197265625 262 c 0
 138.426757812 303 124.067382812 352 133.764648438 407 c 0xe8
 137.64453125 429 160.10546875 494 169.397460938 507 c 0
 170.279296875 512 171.631835938 514 175.631835938 514 c 0
 179.631835938 514 181.279296875 512 180.57421875 508 c 2
 180.397460938 507 l 1xd8
 176.810546875 498 173.6953125 486 170.874023438 470 c 0
 168.052734375 454 171.87890625 436 182.17578125 415 c 0
 192.47265625 394 209.654296875 361 237.072265625 318 c 0
 250.369140625 297 254.784179688 271 249.318359375 240 c 0
 230.803710938 135 227.1015625 114 206.637695312 66 c 0
 202.932617188 62 197.698242188 55 190.758789062 44 c 0
 173.526367188 20 126 0 75 0 c 0
 46 0 26.87890625 22 29.81640625 50 c 2
 31.6376953125 66 l 1
 44.509765625 139 57.857421875 175 71.857421875 175 c 0
 78.857421875 175 82.328125 172 81.623046875 168 c 0xe8
81.07421875 301 m 1
 166.61328125 236 l 1
 146.859375 158 l 1
 61.3212890625 223 l 1
 81.07421875 301 l 1
EndSplineSet
Position2: "Advance neume with cinnabar mark-1" dx=200 dy=35 dh=0 dv=0
LCarets2: 1 0
Colour: ffc259
EndChar

StartChar: u1CF1F.ss04
Encoding: 60951 60951 139
Width: 0
VWidth: 999
GlyphClass: 4
Flags: W
HStem: 398 13<186.009 215 251.627 325 361.627 384.924> 501 52<139.149 165.37> 539 13<17.0757 43 76.8652 140 209 332 365.883 398.953>
VStem: 34 36<400.023 538.69> 139 27<505.22 539.717> 212 38<411 537.941> 322 38<411 537.941>
AnchorPoint: "PitchMark" 399 541 mark 0
LayerCount: 2
Fore
SplineSet
322 460 m 4xbe
 322 488 326 518 332 539 c 5
 257 539 l 5
 252 515 250 489 250 462 c 4
 250 445 251 428 252 411 c 5
 325 411 l 5
 324 425 322 443 322 460 c 4xbe
212 460 m 4
 212 488 216 518 222 539 c 5
 207 539 l 6
 201 539 199 542 200 546 c 4
 200 550 202 552 209 552 c 4
 223 552 243 552 265 552 c 4
 310 552 361 552 390 552 c 4
 398 552 399 549 399 544 c 5
 398 540 397 539 390 539 c 6
 367 539 l 5
 362 515 360 489 360 462 c 4
 360 445 361 428 362 411 c 5
 377 410 l 6
 384 410 385 407 385 403 c 4
 385 399 384 398 376 398 c 6
 193 398 l 6
 187 398 186 401 186 405 c 4
 186 409 189 410 195 410 c 4
 201 411 208 411 215 411 c 5
 214 426 212 443 212 460 c 4
34 459 m 4
 34 486 38 522 43 540 c 5
 24 540 l 6
 18 540 17 543 17 547 c 4
 17 551 19 552 26 553 c 5
 72 553 119 553 165 553 c 4
 173 553 174 549 174 545 c 4
 173 539 167 533 166 525 c 4
 163 511 170 501 163 501 c 4xde
 156 501 142 511 139 520 c 4
 138 526 138 534 140 540 c 5
 119 540 99 540 78 540 c 5
 73 512 70 487 70 457 c 4
 70 439 72 426 73 406 c 4
 74 400 61 400 55 400 c 4
 49 400 38 400 37 406 c 4
 36 422 34 440 34 459 c 4
EndSplineSet
Colour: ffc259
EndChar

StartChar: uniEA9C
Encoding: 60060 60060 140
Width: 425
VWidth: 999
GlyphClass: 2
Flags: HW
HStem: -6 21G<178.5 185.5 347.75 379.569> 371 125<35 109.791>
VStem: 182 35<48.6146 282.938>
AnchorPoint: "FinalPitch" 647.898 300 basechar 0
AnchorPoint: "PitchMark" 265.771 770 basechar 0
AnchorPoint: "Podvertka" 155.266 200 basechar 0
AnchorPoint: "Lomka" 566.449 150 basechar 0
AnchorPoint: "Tikhaya" 31.7393 180 basechar 0
AnchorPoint: "Borzaya" 26.4492 150 basechar 0
AnchorPoint: "Zevok" 50 0 basechar 0
AnchorPoint: "Kupnaya" 41.1836 -50 basechar 0
AnchorPoint: "Kachka" 47.6084 270 basechar 0
AnchorPoint: "Auxiliary" 381.376 660 basechar 0
AnchorPoint: "Flexion" 507.85 640 basechar 0
AnchorPoint: "Podtinka" -8.81641 -50 basechar 0
AnchorPoint: "TonalRange" 531.376 660 basechar 0
AnchorPoint: "Tochka" 492.307 325 basechar 0
AnchorPoint: "Zaderzhka" 8.84082 -120 basechar 0
AnchorPoint: "Omet" 293.163 500 basechar 0
AnchorPoint: "Podchashie" 183 0 basechar 0
LayerCount: 2
Fore
SplineSet
215.501953125 190 m 0
 233.779296875 305 194.416992188 371 88.4169921875 371 c 1
 122.458007812 496 l 1
 170.458007812 496 208.579101562 474 237.8203125 430 c 0
 267.0625 386 274.482421875 326 260.729492188 248 c 0
 246.975585938 170 224.693359375 89 195.057617188 6 c 0
 192.647460938 -2 187.942382812 -6 180.942382812 -6 c 0
 173.942382812 -6 169.823242188 -1 172.057617188 6 c 0
 181.700195312 38 201.04296875 108 213.209960938 177 c 0
 213.915039062 181 214.796875 186 215.501953125 190 c 0
297.091796875 182 m 1
 403.80859375 101 l 1
 377.823242188 -1 l 1
 270.9296875 79 l 1
 297.091796875 182 l 1
343.536132812 366 m 1
 450.252929688 285 l 1
 424.091796875 182 l 1
 317.374023438 263 l 1
 343.536132812 366 l 1
EndSplineSet
LCarets2: 1 0
Ligature2: "Precomposed forms for Znamenny Notation-1" u1CF5C u1CF3D
Position2: "Advance neume with cinnabar mark-1" dx=200 dy=35 dh=0 dv=0
Colour: ffff
EndChar

StartChar: uniEE9D
Encoding: 61085 61085 141
Width: 790
VWidth: 0
GlyphClass: 2
Flags: HW
HStem: 0 21G<196.869 198> 451 125<644.474 710.206>
AnchorPoint: "PitchMark" 211.69 520 basechar 0
AnchorPoint: "Auxiliary" 591.062 800 basechar 0
AnchorPoint: "FinalPitch" 957.898 300 basechar 0
AnchorPoint: "Kachka" 581.376 660 basechar 0
AnchorPoint: "Lomka" 731.449 150 basechar 0
AnchorPoint: "Tikhaya" 17.6328 100 basechar 0
AnchorPoint: "Borzaya" 26.4492 150 basechar 0
AnchorPoint: "Zevok" 861.715 350 basechar 0
AnchorPoint: "Kupnaya" 41.1836 -50 basechar 0
AnchorPoint: "Podvertka" 867.004 380 basechar 0
AnchorPoint: "Flexion" 667.85 640 basechar 0
AnchorPoint: "Podtinka" -24.6855 -140 basechar 0
AnchorPoint: "TonalRange" 691.376 660 basechar 0
AnchorPoint: "Zaderzhka" 881.11 460 basechar 0
AnchorPoint: "Omet" 707.898 300 basechar 0
AnchorPoint: "Tochka" 712.307 325 basechar 0
AnchorPoint: "Podchashie" 537.935 45 basechar 0
LayerCount: 2
Fore
SplineSet
149.552734375 247 m 1
 181.30859375 308 272.659179688 327 272.659179688 327 c 1
 240.793945312 203 l 1
 240.793945312 203 157.444335938 184 115.3359375 121 c 1
 149.552734375 247 l 1
40.4130859375 -9 m 1
 72.1689453125 52 163.51953125 71 163.51953125 71 c 1
 131.654296875 -53 l 1
 131.654296875 -53 48.3046875 -72 6.1962890625 -135 c 1
 40.4130859375 -9 l 1
785.564453125 576 m 0
 798.564453125 576 810.80078125 566 825.098632812 545 c 0
 838.571289062 525 842.57421875 508 840.10546875 494 c 0
 839.9296875 493 839.9296875 493 839.752929688 492 c 1
 805.946289062 374 l 1
 804.883789062 402 793.115234375 426 769.818359375 447 c 0
 767.346679688 450 762.5234375 451 757.5234375 451 c 0
 756.5234375 451 l 0
 739.5234375 451 712.407226562 439 675.999023438 414 c 0
 626.180664062 381 571.951171875 340 512.134765625 290 c 0
 452.318359375 240 387.091796875 182 315.454101562 116 c 0
 243.81640625 50 202.939453125 11 195 0 c 1
 223.8671875 107 l 1
 234.51171875 122 267.68359375 157 322.380859375 212 c 0
 441.541015625 332 516.825195312 396 658.810546875 498 c 0
 730.979492188 550 772.564453125 576 785.564453125 576 c 0
403.456054688 99 m 1
 435.211914062 160 499.623046875 168 499.623046875 168 c 1
 467.758789062 44 l 1
 467.758789062 44 411.171875 35 369.0625 -28 c 1
 403.456054688 99 l 1
554.439453125 218 m 1
 586.1953125 279 650.60546875 287 650.60546875 287 c 1
 618.741210938 163 l 1
 618.741210938 163 562.154296875 154 520.045898438 91 c 1
 554.439453125 218 l 1
EndSplineSet
Position2: "Advance neume with cinnabar mark-1" dx=200 dy=35 dh=0 dv=0
Colour: ffc259
EndChar

StartChar: u1CF18.ss04
Encoding: 60944 60944 142
Width: 0
VWidth: 999
GlyphClass: 2
Flags: W
HStem: 400 13<163.009 187 223.34 301 336.584 349>
VStem: 184 38<413 544.894> 195 35<512 547> 299 35<413 544.734> 309 34<513 547>
DStem2: 8 199 17 187 0.733297 0.679909<-5.4823 111.551>
AnchorPoint: "PitchMark" 382 542 mark 0
LayerCount: 2
Fore
SplineSet
230 545 m 4xa0
 224 520 222 493 222 465 c 4
 222 448 222 430 224 413 c 5
 301 413 l 5
 300 426 299 441 299 456 c 4xd0
 299 489 302 522 309 547 c 4
 311 554 319 553 326 553 c 4
 334 553 345 552 343 545 c 4x88
 337 516 334 494 334 462 c 4
 334 444 336 430 337 413 c 5
 372 413 l 6
 377 413 381 410 381 407 c 4
 381 406 381 406 380 405 c 4
 369 395 342 375 326 349 c 4
 314 331 305 305 304 297 c 4
 304 292 298 291 292 291 c 4
 290 291 287 291 284 291 c 4
 276 291 267 292 270 299 c 4
 272 305 288 335 303 355 c 5
 319 374 342 393 349 400 c 5
 170 400 l 6
 164 400 163 403 163 407 c 4
 163 411 166 413 172 413 c 6
 187 413 l 5
 186 428 184 445 184 463 c 4xd0
 184 492 189 525 195 547 c 4
 197 554 205 554 213 554 c 5
 220 553 231 552 230 545 c 4xa0
206 353 m 4
 209 353 211 349 211 346 c 4
 211 344 210 342 206 339 c 4
 186 328 151 307 118 282 c 5
 130 266 142 245 144 240 c 4
 148 233 137 231 132 229 c 5
 127 229 122 228 118 235 c 4
 113 243 107 254 98 266 c 5
 64 237 34 204 17 187 c 4
 15 185 14 185 12 185 c 4
 9 185 6 188 6 193 c 4
 6 195 6 197 8 199 c 4
 22 213 54 248 89 278 c 5
 78 291 66 303 60 309 c 4
 49 319 59 320 63 320 c 4
 71 321 79 322 84 318 c 4
 91 313 100 304 109 293 c 5
 142 318 179 341 195 349 c 4xa0
 199 351 203 353 206 353 c 4
EndSplineSet
Colour: ffc259
EndChar

StartChar: u1CF1A.ss04
Encoding: 60946 60946 143
Width: 0
VWidth: 999
GlyphClass: 4
Flags: W
HStem: 399 23<73.1048 130.913> 530 26<70.0667 129.127>
VStem: 12 44<431.998 523.962> 139 32<508.659 522.283> 393 36<430.641 520>
AnchorPoint: "PitchMark" 450 543 mark 0
LayerCount: 2
Fore
SplineSet
171 431 m 4
 153 411 124 399 94 399 c 4
 48 399 12 429 12 476 c 4
 12 523 58 556 109 556 c 4
 134 556 154 547 168 532 c 4
 170 530 171 529 171 526 c 4
 171 516 150 504 142 504 c 4
 140 504 139 504 139 505 c 4
 131 520 115 530 98 530 c 4
 68 530 56 501 56 471 c 4
 56 458 63 445 72 434 c 4
 82 424 93 422 106 422 c 4
 122 422 132 431 138 444 c 4
 139 448 143 449 148 449 c 4
 158 449 172 443 172 436 c 4
 172 434 172 433 171 431 c 4
437 400 m 6
 426 400 l 6
 420 400 416 401 414 407 c 4
 408 428 404 437 400 458 c 4
 397 471 393 482 393 492 c 4
 393 500 390 510 390 520 c 5
 385 515 378 507 371 496 c 5
 351 471 328 435 310 408 c 5
 308 403 296 400 294 407 c 4
 288 428 284 437 280 458 c 4
 277 471 273 483 273 494 c 4
 273 504 269 513 269 523 c 5
 241 495 215 456 197 419 c 4
 193 413 191 409 190 408 c 4
 189 405 186 401 182 400 c 4
 178 400 176 408 176 412 c 4
 176 415 177 418 180 425 c 4
 197 464 225 499 251 528 c 5
 264 541 272 552 292 552 c 4
 295 552 299 552 303 550 c 5
 312 550 307 533 307 523 c 5
 309 504 315 475 319 457 c 5
 340 493 348 503 371 528 c 4
 385 542 390 552 414 552 c 4
 417 552 419 552 423 550 c 5
 427 550 429 547 428 544 c 4
 427 538 427 529 429 516 c 5
 429 473 450 439 450 405 c 4
 450 401 443 400 437 400 c 6
EndSplineSet
Colour: ffc259
EndChar

StartChar: u1CF1C.ss04
Encoding: 60948 60948 144
Width: 0
VWidth: 999
Flags: W
HStem: 401 22<266.867 322.652> 531 26<261.532 321.697> 539 13<8.05356 34 67.8826 144 177.883 206.953>
VStem: 24 38<399.03 537.827> 134 38<399.03 537.827> 204 44<430.845 524.848> 331 32<509.718 523.433>
AnchorPoint: "PitchMark" 364 543 mark 0
LayerCount: 2
Fore
SplineSet
134 459 m 4xbe
 134 487 138 518 144 539 c 5
 69 539 l 5
 64 514 62 488 62 461 c 4
 62 442 64 423 64 405 c 4
 64 399 54 399 47 399 c 4
 39 399 28 399 28 405 c 4
 26 421 24 440 24 459 c 4
 24 487 28 518 34 539 c 5
 15 539 l 6
 10 539 8 541 8 544 c 4
 8 549 9 552 17 552 c 6
 198 552 l 6
 206 552 207 549 207 544 c 5
 206 540 205 539 198 539 c 6
 179 539 l 5
 174 514 172 488 172 461 c 4
 172 442 173 423 174 405 c 4
 174 399 164 399 157 399 c 4
 149 399 138 399 138 405 c 4
 136 421 134 440 134 459 c 4xbe
362 433 m 4
 345 412 316 401 286 401 c 4
 241 401 204 425 204 476 c 4
 204 524 248 557 301 557 c 4
 325 557 346 549 360 534 c 4
 362 532 363 530 363 528 c 4
 363 517 342 505 334 505 c 4
 332 505 331 506 331 507 c 4
 323 521 307 531 289 531 c 4xde
 260 531 248 502 248 472 c 4
 248 459 255 446 264 436 c 4
 273 425 285 423 297 423 c 4
 314 423 324 432 330 446 c 4
 331 449 336 450 341 450 c 4
 351 450 364 444 364 437 c 4
 364 436 364 434 362 433 c 4
EndSplineSet
Colour: ffc259
EndChar

StartChar: u1CF1E.ss04
Encoding: 60950 60950 145
Width: 0
VWidth: 999
Flags: W
HStem: 401 22<346.684 401.861> 531 26<341.66 401.697>
VStem: 225 36<430.641 520> 283 45<430.698 525.075> 411 31<509.718 523.009>
AnchorPoint: "PitchMark" 444 543 mark 0
LayerCount: 2
Fore
SplineSet
442 433 m 4
 425 412 396 401 366 401 c 4
 320 401 283 430 283 478 c 4
 283 524 329 557 381 557 c 4
 405 557 426 549 440 534 c 4
 442 532 442 530 442 528 c 4
 442 517 422 505 414 505 c 4
 412 505 411 506 411 507 c 4
 403 521 387 531 369 531 c 4
 340 531 328 502 328 472 c 4
 328 459 335 446 344 436 c 4
 353 425 365 423 377 423 c 4
 394 423 404 432 409 446 c 4
 411 449 415 450 420 450 c 4
 430 450 444 444 444 437 c 4
 444 436 444 434 442 433 c 4
269 400 m 6
 258 400 l 6
 252 400 248 401 246 407 c 4
 240 428 236 437 232 458 c 4
 229 471 225 482 225 492 c 4
 225 500 222 510 222 520 c 5
 217 515 210 507 203 496 c 5
 183 471 160 435 142 408 c 5
 140 403 128 400 126 407 c 4
 120 428 116 437 112 458 c 4
 109 471 105 483 105 494 c 4
 105 504 101 513 101 523 c 5
 73 495 47 456 29 419 c 4
 25 413 23 409 22 408 c 4
 21 405 18 401 14 400 c 4
 10 400 8 408 8 412 c 4
 8 415 9 418 12 425 c 4
 29 464 57 499 83 528 c 5
 96 541 104 552 124 552 c 4
 127 552 131 552 135 550 c 5
 144 550 139 533 139 523 c 5
 141 504 147 475 151 457 c 5
 172 493 180 503 203 528 c 4
 217 542 222 552 246 552 c 4
 249 552 251 552 255 550 c 5
 259 550 261 547 260 544 c 4
 259 538 259 529 261 516 c 5
 261 473 282 439 282 405 c 4
 282 401 275 400 269 400 c 6
EndSplineSet
Colour: ffc259
EndChar

StartChar: u1CF2D.ss04
Encoding: 60959 60959 146
Width: 0
VWidth: 999
GlyphClass: 4
Flags: W
HStem: 191 166
VStem: 8 205
DStem2: 10 203 19 191 0.733297 0.679909<-5.4823 111.551>
AnchorPoint: "PitchMark" 313 400 mark 0
LayerCount: 2
Fore
SplineSet
208 357 m 4
 211 357 213 353 213 350 c 4
 213 348 212 346 208 343 c 4
 188 332 153 311 120 286 c 5
 132 270 144 249 146 244 c 4
 150 237 139 235 134 233 c 5
 129 233 124 232 120 239 c 4
 115 247 109 258 100 270 c 5
 66 241 36 208 19 191 c 4
 17 189 16 189 14 189 c 4
 11 189 8 192 8 197 c 4
 8 199 8 201 10 203 c 4
 24 217 56 252 91 282 c 5
 80 295 68 307 62 313 c 4
 51 323 61 324 65 324 c 4
 73 325 81 326 86 322 c 4
 93 317 102 308 111 297 c 5
 144 322 181 345 197 353 c 4
 201 355 205 357 208 357 c 4
EndSplineSet
Colour: ffc259
EndChar

StartChar: uniEE88
Encoding: 61064 61064 147
Width: 340
VWidth: 0
GlyphClass: 2
Flags: HW
HStem: 1 21G<87.5 102.875 214.5 229.875> 329 126<166.921 252.997>
VStem: 121 18<269.004 304.991> 283 18<78.0371 122.684> 287 39<110.977 284.686>
AnchorPoint: "FinalPitch" 522.028 210 basechar 0
AnchorPoint: "Podvertka" 310.58 60 basechar 0
AnchorPoint: "Lomka" 566.449 150 basechar 0
AnchorPoint: "Tikhaya" 8.81641 50 basechar 0
AnchorPoint: "Borzaya" 26.4492 150 basechar 0
AnchorPoint: "Zevok" 50 0 basechar 0
AnchorPoint: "Kachka" 166.376 660 basechar 0
AnchorPoint: "Kupnaya" 41.1836 -50 basechar 0
AnchorPoint: "Auxiliary" 381.376 660 basechar 0
AnchorPoint: "Flexion" 507.85 640 basechar 0
AnchorPoint: "Podtinka" -8.81641 -50 basechar 0
AnchorPoint: "TonalRange" 531.376 660 basechar 0
AnchorPoint: "Tochka" 407.307 325 basechar 0
AnchorPoint: "Zaderzhka" 422.318 240 basechar 0
AnchorPoint: "Omet" 293.163 500 basechar 0
AnchorPoint: "Podchashie" 94.71 -30 basechar 0
AnchorPoint: "PitchMark" 162.27 580 basechar 0
LayerCount: 2
Fore
SplineSet
299.575195312 94 m 2xf0
 299.575195312 94 310.451171875 133 317.857421875 175 c 0
 319.091796875 182 320.326171875 189 321.560546875 196 c 0
 326.202148438 228 325.4921875 258 317.4296875 286 c 0
 309.366210938 314 292.01171875 329 265.01171875 329 c 2
 259.01171875 329 l 2
 227.01171875 329 196.661132812 310 189.077148438 284 c 0
 186.313476562 274 181.431640625 269 177.431640625 269 c 0
 173.431640625 269 170.313476562 274 170.900390625 283 c 0
 171.487304688 292 173.07421875 301 174.837890625 311 c 0
 184.536132812 366 206.764648438 407 241.172851562 432 c 0
 262.818359375 447 282.228515625 455 301.228515625 455 c 0
 324.228515625 455 348.641601562 446 361.5859375 423 c 0
 382.885742188 385 386.303710938 342 375.724609375 282 c 0xe8
 363.205078125 211 341.744140625 146 315.98828125 85 c 0
 314.106445312 80 309.75390625 78 304.75390625 78 c 0
 299.75390625 78 297.634765625 83 299.575195312 94 c 2xf0
202.729492188 248 m 1
 262.74609375 129 l 1
 228.176757812 1 l 1
 168.3359375 121 l 1
 202.729492188 248 l 1
75.7294921875 248 m 1
 135.74609375 129 l 1
 101.176757812 1 l 1
 41.3359375 121 l 1
 75.7294921875 248 l 1
EndSplineSet
Position2: "Advance neume with cinnabar mark-1" dx=200 dy=35 dh=0 dv=0
Colour: ffc259
EndChar

StartChar: uniEE0C
Encoding: 60940 60940 148
Width: 0
VWidth: 999
Flags: W
HStem: 596 48<130.571 172.631 210.571 252.631>
VStem: 130 43<596.084 643.99> 210 43<596.084 643.99> 228 38<431.149 520>
AnchorPoint: "Stacking" -72 463 mark 0
AnchorPoint: "Stacking" 188 568 basemark 0
AnchorPoint: "PitchMark" 288 548 mark 0
LayerCount: 2
Fore
SplineSet
266 544 m 4xd0
 266 540 266 536 266 531 c 4
 266 491 288 437 288 406 c 4
 288 401 277 400 269 400 c 4
 261 400 253 401 252 407 c 4
 246 427 242 438 238 459 c 5
 232 484 229 500 228 520 c 5
 217 510 201 487 185 464 c 4
 170 443 152 413 148 408 c 5
 146 403 133 401 132 407 c 4
 126 427 122 438 118 459 c 5
 112 484 108 505 107 524 c 5
 95 512 79 488 65 469 c 4
 60 463 32 413 28 408 c 5
 26 401 13 401 13 409 c 4
 13 425 53 484 61 495 c 4
 79 519 100 540 113 548 c 4
 117 551 125 552 130 552 c 4
 136 552 147 551 146 544 c 4
 146 542 146 539 146 537 c 4
 146 515 151 474 157 457 c 5
 179 495 207 532 233 548 c 4
 237 551 245 552 250 552 c 4
 256 552 267 551 266 544 c 4xd0
230 596 m 4
 218 596 210 607 210 617 c 4
 210 630 220 644 232 644 c 4
 245 644 253 632 253 622 c 4xe0
 253 609 243 596 230 596 c 4
150 596 m 4
 138 596 130 607 130 617 c 4
 130 630 140 644 152 644 c 4
 165 644 173 632 173 622 c 4
 173 609 163 596 150 596 c 4
EndSplineSet
Colour: ffc259
EndChar

StartChar: uniEE0D
Encoding: 60941 60941 149
Width: 0
VWidth: 999
Flags: W
HStem: 539 13<16.0536 42 75.8826 152 185.883 214.953> 594 48<54.571 96.6309 134.571 176.631>
VStem: 32 38<399.03 537.827> 54 43<594.084 641.99> 134 43<594.084 641.99> 142 38<399.03 537.827>
AnchorPoint: "Stacking" -125 458 mark 0
AnchorPoint: "Stacking" 115 563 basemark 0
AnchorPoint: "PitchMark" 215 543 mark 0
LayerCount: 2
Fore
SplineSet
154 594 m 4xc8
 142 594 134 605 134 615 c 4
 134 628 144 642 156 642 c 4
 169 642 177 630 177 620 c 4
 177 607 167 594 154 594 c 4xc8
74 594 m 4
 62 594 54 605 54 615 c 4
 54 628 64 642 76 642 c 4
 89 642 97 630 97 620 c 4xd0
 97 607 87 594 74 594 c 4
142 459 m 4xe4
 142 487 146 518 152 539 c 5
 77 539 l 5
 72 514 70 488 70 461 c 4
 70 442 72 423 72 405 c 4
 72 399 62 399 55 399 c 4
 47 399 36 399 36 405 c 4
 34 421 32 440 32 459 c 4
 32 487 36 518 42 539 c 5
 23 539 l 6
 18 539 16 541 16 544 c 4
 16 549 17 552 25 552 c 4
 40 552 60 552 82 552 c 4
 126 552 177 552 206 552 c 4
 214 552 215 549 215 544 c 5
 214 540 213 539 206 539 c 6
 187 539 l 5
 182 514 180 488 180 461 c 4
 180 442 181 423 182 405 c 4
 182 399 172 399 165 399 c 4
 157 399 146 399 146 405 c 4
 144 421 142 440 142 459 c 4xe4
EndSplineSet
Colour: ffc259
EndChar

StartChar: uniEE0E
Encoding: 60942 60942 150
Width: 0
VWidth: 999
Flags: W
HStem: 398 13<11.0199 41 76.5809 151 186.489 210.906> 539 13<25.0198 47 80.8826 157 190.883 223.999> 593 48<62.571 104.631 142.571 184.631>
VStem: 39 36<411 537.848> 62 43<593.084 640.99> 142 43<593.084 640.99> 149 36<411 537.848>
AnchorPoint: "Stacking" -116 455 mark 0
AnchorPoint: "Stacking" 124 560 basemark 0
AnchorPoint: "PitchMark" 224 540 mark 0
LayerCount: 2
Fore
SplineSet
151 411 m 5xf2
 150 424 149 439 149 455 c 4
 149 485 152 516 157 539 c 5
 82 539 l 5
 77 513 75 484 75 455 c 4
 75 440 76 426 77 411 c 5
 151 411 l 5xf2
41 411 m 5
 40 425 39 440 39 456 c 4
 39 485 42 516 47 539 c 5
 33 539 l 6
 27 539 25 542 25 546 c 4
 25 550 28 552 34 552 c 4
 49 552 69 552 91 552 c 4
 135 552 187 552 216 552 c 4
 222 552 224 550 224 546 c 4
 224 541 224 539 215 539 c 6
 192 539 l 5
 187 513 185 484 185 455 c 4
 185 440 186 424 187 410 c 5
 202 410 l 6
 210 410 211 407 211 403 c 4
 210 399 209 398 202 398 c 6
 19 398 l 6
 13 398 11 401 11 405 c 4
 11 409 14 410 21 410 c 5
 27 411 33 411 41 411 c 5
162 593 m 4
 150 593 142 604 142 614 c 4
 142 627 152 641 164 641 c 4
 177 641 185 629 185 619 c 4xe4
 185 606 175 593 162 593 c 4
82 593 m 4
 70 593 62 604 62 614 c 4
 62 627 72 641 84 641 c 4
 97 641 105 629 105 619 c 4xe8
 105 606 95 593 82 593 c 4
EndSplineSet
Colour: ffc259
EndChar

StartChar: u1CF20.ss04
Encoding: 60976 60976 151
Width: 0
GlyphClass: 4
Flags: W
HStem: 408 2<17.0015 17.6943> 420 16<27.2834 127.814> 485 2<64 102> 539 21<53.6301 101>
VStem: 11 27<489.828 534.905> 130 31<432.847 482.057>
AnchorPoint: "Auxiliary" 86 550 mark 0
LayerCount: 2
Fore
SplineSet
52 466 m 4
 31 466 11 485 11 506 c 4
 11 530 35 548 57 550 c 4
 65 551 76 550 83 554 c 4
 90 557 96 560 100 560 c 4
 102 560 103 555 102 554 c 4
 95 549 96 536 95 529 c 4
 95 528 88 528 87 529 c 4
 84 537 76 539 67 539 c 4
 50 539 38 529 38 514 c 4
 38 499 46 487 64 487 c 4
 80 487 97 507 119 507 c 4
 140 507 161 489 161 461 c 4
 161 428 130 415 97 415 c 4
 80 415 64 420 47 420 c 4
 34 420 28 414 21 408 c 5
 20 408 l 6
 19 408 17 408 17 410 c 5
 18 410 20 420 27 428 c 4
 33 435 42 436 50 436 c 4
 64 436 80 430 96 430 c 4
 115 430 130 436 130 454 c 4
 130 475 116 485 102 485 c 4
 82 485 70 466 52 466 c 4
EndSplineSet
Colour: ffc259
EndChar

StartChar: u1CF21.ss04
Encoding: 60977 60977 152
Width: 0
VWidth: 999
GlyphClass: 4
Flags: W
HStem: 418 19<69.0948 117.026> 530 22<64.8435 116.594>
VStem: 14 39<446.119 525.712> 130 38<441.785 523.234>
AnchorPoint: "Auxiliary" 91 551 mark 0
LayerCount: 2
Fore
SplineSet
99 552 m 4
 139 552 168 527 168 485 c 4
 168 444 128 418 86 418 c 4
 46 418 14 443 14 484 c 4
 14 524 54 552 99 552 c 4
89 530 m 4
 63 530 53 505 53 479 c 4
 53 468 59 457 67 448 c 4
 75 439 85 437 96 437 c 4
 122 437 130 464 130 490 c 4
 130 512 111 530 89 530 c 4
EndSplineSet
Colour: ffc259
EndChar

StartChar: u1CF22.ss04
Encoding: 60978 60978 153
Width: 0
VWidth: 999
GlyphClass: 4
Flags: W
HStem: 429 27<71.5172 119.975> 520 32<92.9175 136.457>
VStem: 6 33<285.148 404.778> 137 30<465.882 518.992>
AnchorPoint: "Stacking" 115 562 basemark 0
AnchorPoint: "Stacking" -125 457 mark 0
AnchorPoint: "PitchMark" 110 542 mark 0
LayerCount: 2
Fore
SplineSet
64 432 m 5
 57 417 51 393 46 368 c 4
 42 346 39 324 39 306 c 4
 39 298 31 285 21 285 c 4
 20 285 l 4
 11 285 6 297 6 305 c 4
 6 347 17 394 37 450 c 4
 57 506 87 552 125 552 c 4
 151 552 167 527 167 501 c 4
 167 498 167 494 166 491 c 4
 158 444 124 429 89 429 c 4
 83 429 70 431 64 432 c 5
71 460 m 5
 88 456 90 456 96 456 c 5
 103 456 110 457 115 460 c 4
 122 463 137 480 137 499 c 4
 137 512 128 520 116 520 c 4
 94 520 81 486 71 460 c 5
EndSplineSet
Colour: ffc259
EndChar

StartChar: u1CF23.ss04
Encoding: 60979 60979 154
Width: 0
VWidth: 999
GlyphClass: 4
Flags: W
HStem: 85 25<30 518>
AnchorPoint: "Tikhaya" 38 100 mark 0
LayerCount: 2
Fore
SplineSet
30 110 m 5
 530 110 l 5
 518 85 l 5
 18 85 l 5
 30 110 l 5
EndSplineSet
Colour: ffc259
EndChar

StartChar: u1CF24.ss04
Encoding: 60980 60980 155
Width: 0
VWidth: 999
GlyphClass: 4
Flags: W
HStem: 37 22<73.0937 90.9451> 102 25<201.043 243.847> 195 21<221.074 245.662> 331 27<169.319 218.147>
VStem: 11 33<81.971 193.735> 170 27<130.378 187.572> 221 32<251.582 329.57> 251 29<131.597 191.643>
AnchorPoint: "Borzaya" 280 217 mark 0
LayerCount: 2
Fore
SplineSet
11 137 m 4xfe
 11 218 142 358 215 358 c 4
 248 358 253 340 253 310 c 4
 253 281 221 214 221 214 c 5xfe
 224 215 229 216 234 216 c 4
 253 216 280 207 280 176 c 4xfd
 280 171 280 165 278 159 c 4
 268 122 242 102 209 102 c 4
 184 102 170 118 170 142 c 4
 170 148 171 154 173 161 c 4
 193 219 221 265 221 301 c 4
 221 315 217 331 198 331 c 4
 183 331 143 299 130 289 c 4
 91 258 44 201 44 148 c 4
 44 96 66 67 82 59 c 4
 88 56 91 52 91 47 c 4
 91 42 87 37 78 37 c 4
 77 37 75 38 73 38 c 4
 33 46 11 83 11 137 c 4xfe
251 169 m 4xfd
 251 187 236 195 224 195 c 4
 218 195 213 193 211 189 c 4
 208 183 203 173 198 158 c 4
 197 156 197 154 197 152 c 4
 197 140 208 127 222 127 c 4
 246 127 251 153 251 169 c 4xfd
EndSplineSet
Colour: ffc259
EndChar

StartChar: u1CF25.ss04
Encoding: 60981 60981 156
Width: 0
VWidth: 999
GlyphClass: 4
Flags: W
HStem: 74 23<138.126 185.806>
VStem: 105 29<99.5393 148.81>
AnchorPoint: "Borzaya" 270 95 mark 0
LayerCount: 2
Fore
SplineSet
6 -150 m 4
 6 -144 8 -137 18 -123 c 4
 27 -110 62 -54 104 -8 c 4
 128 19 171 68 186 80 c 5
 186 80 175 74 156 74 c 4
 128 74 105 89 105 113 c 4
 105 115 105 116 105 118 c 5
 108 133 115 153 130 153 c 4
 134 153 137 151 137 146 c 4
 137 139 134 132 134 126 c 4
 134 108 142 97 159 97 c 4
 211 97 218 118 240 140 c 4
 243 143 247 144 250 144 c 4
 256 144 265 139 265 131 c 4
 265 124 256 116 246 106 c 4
 200 61 144 3 100 -53 c 4
 84 -73 40 -134 30 -154 c 4
 26 -161 21 -164 16 -164 c 4
 10 -164 6 -158 6 -150 c 4
EndSplineSet
Colour: ffc259
EndChar

StartChar: u1CF26.ss04
Encoding: 60982 60982 157
Width: 0
VWidth: 999
GlyphClass: 4
Flags: W
HStem: 0 98<39.2218 116.641>
VStem: 8 31<100.344 139.557> 27 12<135.557 155.946>
AnchorPoint: "Podvertka" 148 212 mark 0
LayerCount: 2
Fore
SplineSet
75 0 m 4xc0
 36 0 8 26 8 69 c 4xc0
 8 93 14 120 27 149 c 4
 28 154 30 156 34 156 c 4
 38 156 40 152 39 145 c 6xa0
 39 122 l 6
 39 106 50 98 71 98 c 4
 94 98 113 112 128 133 c 4
 149 160 163 199 168 227 c 4
 169 233 172 236 177 236 c 4
 180 236 181 228 181 214 c 4
 181 171 173 119 156 77 c 4
 139 33 112 0 75 0 c 4xc0
EndSplineSet
Colour: ffc259
EndChar

StartChar: u1CF27.ss04
Encoding: 60983 60983 158
Width: 0
GlyphClass: 4
Flags: W
HStem: 517 19<236.09 283.945> 629 22<231.897 282.599>
VStem: 130 34<505.899 597.947> 181 39<542.914 624.304> 297 38<541.101 622.245>
AnchorPoint: "Lomka" 15 660 mark 0
LayerCount: 2
Fore
SplineSet
129 647 m 4
 136 648 136 646 139 640 c 4
 149 621 164 553 164 516 c 4
 164 511 150 505 140 505 c 4
 135 505 131 507 130 510 c 4
 123 534 119 559 115 583 c 4
 113 594 114 605 110 602 c 4
 78 583 59 545 36 511 c 4
 34 509 30 507 25 507 c 4
 19 507 14 509 14 513 c 4
 14 555 112 643 129 647 c 4
253 517 m 4
 217 517 181 539 181 580 c 4
 181 620 217 651 266 651 c 4
 297 651 335 634 335 585 c 4
 335 546 299 517 253 517 c 4
258 629 m 4
 232 629 220 608 220 585 c 4
 220 561 234 536 260 536 c 4
 286 536 297 557 297 580 c 4
 297 604 283 629 258 629 c 4
EndSplineSet
Colour: ffc259
EndChar

StartChar: u1CF28.ss04
Encoding: 60984 60984 159
Width: 0
VWidth: 999
GlyphClass: 4
Flags: W
HStem: -102 96<26.0144 39.9488 87.1297 104.839>
VStem: 8 65<-46.0615 -22.346> 8 32<-101.965 -39.7556> 72 33<-100.798 -35.6847>
AnchorPoint: "Kupnaya" 193 -9 mark 0
LayerCount: 2
Fore
SplineSet
56 -6 m 4xa0
 66 -6 73 -10 73 -16 c 4xc0
 73 -19 72 -22 69 -25 c 5
 63 -31 54 -37 47 -55 c 4
 40 -72 42 -78 40 -93 c 4
 39 -99 32 -102 25 -102 c 4
 13 -102 8 -92 8 -79 c 4
 8 -49 33 -6 56 -6 c 4xa0
126 -6 m 4
 134 -6 143 -10 143 -16 c 4
 143 -34 115 -29 107 -52 c 4
 106 -56 105 -60 105 -63 c 4
 105 -74 110 -80 110 -89 c 4
 110 -98 104 -102 95 -102 c 4
 80 -102 72 -85 72 -67 c 4x90
 72 -34 102 -6 126 -6 c 4
EndSplineSet
Colour: ffc259
EndChar

StartChar: u1CF29.ss04
Encoding: 60985 60985 160
Width: 0
GlyphClass: 4
Flags: W
HStem: 568 96<28.0144 41.9488 89.1297 106.839>
VStem: 10 65<623.938 647.654> 10 32<568.035 630.244> 74 33<569.202 634.315>
AnchorPoint: "Kachka" 245 663 mark 0
LayerCount: 2
Fore
SplineSet
58 664 m 4xa0
 68 664 75 660 75 654 c 4xc0
 75 651 74 648 71 645 c 5
 65 639 56 633 49 615 c 4
 42 598 44 592 42 577 c 4
 41 571 34 568 27 568 c 4
 15 568 10 578 10 591 c 4
 10 621 35 664 58 664 c 4xa0
128 664 m 4
 136 664 145 660 145 654 c 4
 145 636 117 641 109 618 c 4
 108 614 107 610 107 607 c 4
 107 596 112 590 112 581 c 4
 112 572 106 568 97 568 c 4
 82 568 74 585 74 603 c 4x90
 74 636 104 664 128 664 c 4
EndSplineSet
Colour: ffc259
EndChar

StartChar: u1CF2A.ss04
Encoding: 60986 60986 161
Width: 0
VWidth: 999
GlyphClass: 4
Flags: W
HStem: 318 24<12.7754 142.052> 582 27<122.83 200.764>
VStem: 204 37<527.73 579.765> 219 37<378.444 465.076>
AnchorPoint: "Zevok" 100 607 mark 0
LayerCount: 2
Fore
SplineSet
241 563 m 4xe0
 241 558 241 553 239 547 c 4
 234 526 200 507 200 507 c 5
 227 495 242 481 251 453 c 4
 254 444 256 434 256 425 c 4
 256 341 148 318 65 318 c 4
 45 318 29 320 20 324 c 4
 16 325 10 332 10 336 c 4
 10 340 13 342 20 342 c 4
 63 342 196 346 214 395 c 4
 217 403 219 412 219 419 c 4xd0
 219 461 178 492 148 495 c 4
 138 496 138 505 144 507 c 4
 158 511 204 529 204 556 c 4
 204 576 188 582 170 582 c 4
 139 582 113 565 101 553 c 4
 96 548 91 546 87 546 c 4
 80 546 75 551 75 557 c 4
 75 559 76 562 78 564 c 4
 99 586 137 609 182 609 c 4
 213 609 241 593 241 563 c 4xe0
EndSplineSet
Colour: ffc259
EndChar

StartChar: u1CF2B.ss04
Encoding: 60987 60987 162
Width: 0
GlyphClass: 4
Flags: W
HStem: 572 25<7.02042 51.8748 66 147.267> 580 24<46.3199 250.269>
VStem: 87 27<635.911 699.929>
AnchorPoint: "Auxiliary" 137 629 mark 0
LayerCount: 2
Fore
SplineSet
150 604 m 4x60
 180 604 262 604 262 580 c 4x60
 262 575 257 572 249 572 c 4xa0
 247 572 245 573 243 573 c 4
 210 578 179 580 149 580 c 5x60
 112 580 77 579 43 574 c 5
 36 574 30 572 25 572 c 4
 14 572 7 576 7 585 c 4
 7 590 12 595 20 597 c 4xa0
 44 603 58 608 71 631 c 4
 82 649 85 661 87 675 c 4
 89 692 88 700 102 700 c 4
 112 700 114 689 114 678 c 4
 114 657 107 641 102 633 c 4
 86 606 66 600 66 600 c 5
 96 600 124 604 150 604 c 4x60
EndSplineSet
Colour: ffc259
EndChar

StartChar: u1CF2C.ss04
Encoding: 60988 60988 163
Width: 0
VWidth: 999
GlyphClass: 4
Flags: W
HStem: 567 96
VStem: 19 34<567.041 632.576>
AnchorPoint: "Auxiliary" 94 651 mark 0
LayerCount: 2
Fore
SplineSet
37 567 m 4
 24 567 19 577 19 591 c 4
 19 616 36 646 51 657 c 4
 57 661 62 663 68 663 c 5
 77 662 84 658 84 652 c 4
 84 650 83 647 80 644 c 4
 70 633 53 617 53 594 c 4
 53 581 50 567 37 567 c 4
EndSplineSet
Colour: ffc259
EndChar

StartChar: uniEE56
Encoding: 61014 61014 164
Width: 0
VWidth: 999
GlyphClass: 4
Flags: HW
HStem: 559 95<-316.37 -255.664>
VStem: -351 31<602 718.945> -328 9<721.592 736.031> -231 10<730.467 761.683>
AnchorPoint: "Flexion" -136.563 649 mark 0
LayerCount: 2
Fore
SplineSet
-196.43359375 559 m 0xd0
 -231.43359375 559 -247.848632812 585 -241.853515625 619 c 0xd0
 -234.9765625 658 -220.453125 695 -198.928710938 732 c 0
 -191.8125 744 -187.87109375 738 -190.810546875 727 c 0xb0
 -191.868164062 721 -194.631835938 711 -197.099609375 697 c 0
 -202.213867188 668 -192.682617188 654 -169.682617188 654 c 0
 -144.682617188 654 -120.86328125 687 -98.0498046875 754 c 0
 -96.16796875 759 -93.638671875 762 -89.638671875 762 c 0
 -87.638671875 762 -86.9912109375 760 -87.5205078125 757 c 0
 -88.7548828125 750 -88.7548828125 750 -89.9892578125 743 c 0
 -95.455078125 712 -105.274414062 679 -118.622070312 643 c 0
 -139.49609375 587 -165.43359375 559 -196.43359375 559 c 0xd0
EndSplineSet
Colour: ffc259
EndChar

StartChar: uniEE5A
Encoding: 61018 61018 165
Width: 0
VWidth: 999
GlyphClass: 4
Flags: HW
HStem: 183 184
VStem: 3 129
AnchorPoint: "Tochka" 30.1875 330 mark 0
LayerCount: 2
Fore
SplineSet
75.7119140625 367 m 1
 182.4296875 286 l 1
 156.267578125 183 l 1
 49.55078125 264 l 1
 75.7119140625 367 l 1
EndSplineSet
Colour: ffc259
EndChar

StartChar: uniEE5B
Encoding: 61019 61019 166
Width: 0
VWidth: 999
GlyphClass: 4
Flags: HW
HStem: -1 21G<90.75 122.569>
VStem: 0 143
AnchorPoint: "Tochka" 41.0117 329 mark 0
LayerCount: 2
Fore
SplineSet
40.091796875 182 m 1
 146.80859375 101 l 1
 120.823242188 -1 l 1
 13.9296875 79 l 1
 40.091796875 182 l 1
86.5361328125 366 m 1
 193.252929688 285 l 1
 167.091796875 182 l 1
 60.3740234375 263 l 1
 86.5361328125 366 l 1
EndSplineSet
Colour: ffc259
EndChar

StartChar: uniEA57
Encoding: 59991 59991 167
Width: 625
VWidth: 999
Flags: W
HStem: 0 21G<31.8692 33> 451 125<479.474 545.206>
LayerCount: 2
Fore
SplineSet
620.564453125 576 m 4
 633.564453125 576 645.80078125 566 660.098632812 545 c 4
 673.571289062 525 677.57421875 508 675.10546875 494 c 4
 674.9296875 493 674.9296875 493 674.752929688 492 c 5
 640.946289062 374 l 5
 639.883789062 402 628.115234375 426 604.818359375 447 c 4
 602.346679688 450 597.5234375 451 592.5234375 451 c 4
 591.5234375 451 l 4
 574.5234375 451 547.407226562 439 510.999023438 414 c 4
 461.180664062 381 406.951171875 340 347.134765625 290 c 4
 287.318359375 240 222.091796875 182 150.454101562 116 c 4
 78.81640625 50 37.939453125 11 30 0 c 5
 58.8671875 107 l 5
 69.51171875 122 102.68359375 157 157.380859375 212 c 4
 276.541015625 332 351.825195312 396 493.810546875 498 c 4
 565.979492188 550 607.564453125 576 620.564453125 576 c 4
EndSplineSet
Colour: ff00
EndChar

StartChar: uniEA1E
Encoding: 59934 59934 168
Width: 639
VWidth: 0
GlyphClass: 3
Flags: W
HStem: 0 95<536.44 615.721> -0 41<99.1641 174.501 346.148 417.825> 217 41<315.791 384.306> 229 30<47.9345 113.503> 325 42<378.763 454.236> 457 21G<355 355.5> 468 34<378.739 474>
VStem: 9 30<126.981 216.693> 14 46<-150.704 46.9599> 182 27<47.9093 139.28> 250 27<123.29 184.293> 378 60<507.976 579.211> 455 27<72.8735 134.255> 457 60<376.144 454.48> 529 95<8.2793 87.5597>
LayerCount: 2
Fore
SplineSet
30 227 m 0x1972
 48 252 74 259 96 259 c 0
 120 259 140 251 144 249 c 0
 181 230 209 167 209 109 c 0
 209 64 192 22 150 5 c 0
 143 2 135 1 128 1 c 0
 87 1 56 47 56 47 c 2
 56 47 60 -8 60 -59 c 0
 60 -98 58 -135 49 -143 c 1
 0 -180 l 1
 11 -162 14 -115 14 -68 c 0x18f2
 14 -9 9 49 9 49 c 2
 9 53 9 56 9 60 c 0
 9 86 7 112 7 137 c 0
 7 169 11 200 30 227 c 0x1972
366 258 m 1x687a
 366 258 366 258 367 258 c 0
 375 258 482 229 482 129 c 0
 482 30 379 0 367 -0 c 0
 366 0 l 0
 366 0 365 0 364 -0 c 0
 349 0 250 31 250 129 c 0
 250 227 353 258 365 258 c 0
 366 258 l 1x687a
330 217 m 0
 302 217 277 192 277 165 c 0
 277 137 297 106 320 83 c 0
 343 60 374 41 403 41 c 0
 430 41 455 64 455 92 c 0
 455 120 435 151 412 174 c 0
 389 197 358 217 330 217 c 0
577 95 m 0x8872
 603 95 624 74 624 47 c 0
 624 22 602 0 577 0 c 0
 550 0 529 21 529 47 c 0
 529 74 550 95 577 95 c 0x8872
421 367 m 0
 444 367 457 377 457 406 c 0
 457 442 432 468 395 468 c 0x0a76
 372 468 365 463 346 457 c 1x0c76
 364 482 378 520 378 544 c 0
 378 551 373 555 365 555 c 1
 344 555 304 539 274 515 c 16
 257 501 247 472 247 462 c 0
 247 461 l 1
 180 427 l 1
 191 464 209 496 249 522 c 0
 292 551 316 560 347 571 c 0
 366 578 393 585 422 587 c 0
 433 588 438 584 438 574 c 0
 438 550 420 513 407 492 c 1
 425 498 432 502 455 502 c 0x0a7a
 493 502 517 476 517 440 c 0x0a76
 517 387 479 349 433 333 c 0
 417 328 402 325 387 325 c 0
 374 325 361 327 346 332 c 0
 318 341 304 367 304 367 c 1
 369 400 l 1
 369 400 389 367 421 367 c 0
77 229 m 0x1972
 52 229 39 207 39 185 c 0
 39 160 51 130 63 108 c 0
 80 78 114 36 146 36 c 0
 171 36 182 58 182 81 c 0
 182 108 170 140 159 160 c 0
 142 190 109 229 77 229 c 0x1972
EndSplineSet
Validated: 3073
Colour: ffff00
EndChar

StartChar: afii10095
Encoding: 1101 1101 169
Width: 391
GlyphClass: 2
Flags: W
HStem: -13 42<112.61 254.274> 179 37<115.562 295> 362 37<111.91 235.027>
VStem: 49 17<91.5625 122 278 288.315> 297 61<92.1608 179 216 297.34>
LayerCount: 2
Fore
SplineSet
358 204 m 0
 358 172 355 143 346 117 c 0
 337 91 325 67 309 48 c 0
 293 29 273 13 250 3 c 0
 227 -7 201 -13 172 -13 c 0
 156 -13 142 -11 129 -9 c 0
 116 -7 105 -3 95 1 c 0
 85 5 76 9 68 14 c 0
 60 19 53 22 46 26 c 0
 45 27 44 31 43 37 c 0
 42 43 42 50 42 60 c 0
 42 70 42 79 43 91 c 0
 44 103 47 115 49 126 c 1
 66 122 l 1
 68 107 72 93 80 82 c 0
 88 71 97 61 108 53 c 0
 119 45 132 39 145 35 c 0
 158 31 170 29 183 29 c 0
 200 29 215 31 229 36 c 0
 243 41 254 48 264 59 c 0
 274 70 281 86 287 105 c 0
 293 124 296 149 297 179 c 1
 190 179 l 2
 172 179 156 179 142 178 c 0
 128 177 117 175 107 172 c 1
 96 180 l 1
 99 188 l 2
 101 192 103 197 105 202 c 0
 107 207 108 210 110 214 c 0
 112 218 114 221 115 223 c 1
 127 221 138 220 148 218 c 0
 158 216 170 216 184 216 c 2
 295 216 l 1
 292 263 280 299 258 324 c 0
 236 349 208 362 170 362 c 0
 162 362 153 360 143 358 c 0
 133 356 124 351 114 345 c 0
 104 339 97 329 89 319 c 0
 81 309 75 294 72 278 c 1
 55 276 l 2
 54 276 54 278 53 283 c 0
 52 288 51 294 50 300 c 0
 49 306 49 314 48 322 c 0
 47 330 47 337 46 343 c 0
 45 349 46 355 46 360 c 0
 46 365 45 367 46 367 c 0
 56 373 68 377 80 381 c 0
 92 385 105 389 118 391 c 0
 131 393 144 396 157 398 c 0
 163 399 170 399 176 399 c 0
 182 399 188 399 194 399 c 0
 220 399 243 395 263 386 c 0
 283 377 301 363 315 346 c 0
 329 329 340 309 347 285 c 0
 354 261 358 234 358 204 c 0
EndSplineSet
Validated: 3073
AlternateSubs2: "Stylistic Alternatives for Znamenny (salt)-1" uniEA1C
EndChar

